<svg width="50" height="50" viewBox="0 0 50 50" fill="none" xmlns="http://www.w3.org/2000/svg">
<path d="M8.59187 23.256H41.4067C41.822 23.256 42.1965 23.0055 42.3544 22.6217C42.5127 22.2379 42.4238 21.7963 42.1294 21.5032L30.8882 10.3292C30.5946 10.037 30.1534 9.95045 29.771 10.1092C29.3886 10.268 29.1396 10.6417 29.1396 11.0565V15.6653H16.3761C15.8099 15.6653 15.3507 16.1245 15.3507 16.6907C15.3507 17.2569 15.8099 17.7162 16.3761 17.7162H30.1261C30.8178 17.7162 31.1909 17.1879 31.1909 16.6907V13.5222L38.9206 21.206H8.59187C8.02567 21.206 7.56641 21.6653 7.56641 22.2315C7.56641 22.7977 8.02567 23.256 8.59187 23.256Z" fill="white"/>
<path d="M41.4083 26.7439H8.59352C8.17825 26.7439 7.80371 26.9944 7.64584 27.3782C7.48751 27.762 7.5764 28.2036 7.87084 28.4967L19.112 39.6707C19.3083 39.8657 19.569 39.9689 19.8352 39.9689C19.9676 39.9689 20.1019 39.9434 20.2287 39.8907C20.6111 39.7319 20.8602 39.3582 20.8602 38.9434V34.3346H33.6236C34.1898 34.3346 34.6491 33.8754 34.6491 33.3092C34.6491 32.743 34.1898 32.2837 33.6236 32.2837H19.8736C19.182 32.2837 18.8088 32.812 18.8088 33.3092V36.4786L11.0806 28.7948H41.4093C41.9755 28.7948 42.4347 28.3356 42.4347 27.7694C42.4347 27.2032 41.9755 26.7439 41.4093 26.7439H41.4083Z" fill="white"/>
</svg>
