<svg width="50" height="50" viewBox="0 0 50 50" fill="none" xmlns="http://www.w3.org/2000/svg">
<path d="M5.30395 41.8992C5.16367 42.1163 5.16969 42.3973 5.32293 42.608C5.44423 42.7802 5.64191 42.8825 5.84654 42.8825C5.89145 42.8825 5.93589 42.8825 5.98682 42.8696L11.8539 41.5672C13.5456 42.4293 15.4419 42.8825 17.3442 42.8825C23.9646 42.8825 29.3595 37.5455 29.4614 30.9441C32.334 31.7228 35.4817 31.4293 38.1502 30.076L44.0174 31.3719C44.0623 31.3848 44.1067 31.3848 44.1577 31.3848C44.3618 31.3848 44.56 31.2825 44.6813 31.1103C44.828 30.8996 44.8345 30.6186 44.7002 30.4015L42.3063 26.6158C43.9151 24.5154 44.7961 21.9172 44.7961 19.2483C44.7961 12.5575 39.3567 7.11816 32.666 7.11816C25.9752 7.11816 20.6507 12.4552 20.5489 19.0501C19.5276 18.7691 18.4549 18.6094 17.3438 18.6094C10.6405 18.6158 5.20117 24.0552 5.20117 30.7459C5.20117 33.408 6.08219 36.0066 7.69747 38.1135L5.30349 41.8992H5.30395ZM32.654 8.40103C38.6359 8.40103 43.5072 13.2723 43.5072 19.2543C43.5072 21.776 42.6262 24.2339 41.0174 26.1682C40.8387 26.3788 40.8197 26.6853 40.9664 26.9149L42.7859 29.7876L38.1891 28.7723C38.0424 28.7404 37.8827 28.7594 37.7484 28.8297C35.2012 30.183 32.1303 30.445 29.3979 29.5895C28.9637 24.9862 25.9377 21.1242 21.8007 19.477C21.8007 19.4006 21.7942 19.3237 21.7942 19.2473C21.7942 13.2654 26.6655 8.39409 32.6475 8.39409L32.654 8.40057V8.40103ZM6.47849 30.7459C6.47849 24.764 11.3498 19.8927 17.3317 19.8927C23.3137 19.8927 28.185 24.764 28.185 30.7459C28.185 36.7279 23.3137 41.5992 17.3317 41.5992C15.5567 41.5992 13.7947 41.1584 12.2308 40.3223C12.135 40.2714 12.0331 40.2459 11.9308 40.2459C11.8859 40.2459 11.835 40.2459 11.7905 40.2589L7.20025 41.2742L9.01969 38.4015C9.16645 38.1654 9.14747 37.8654 8.97478 37.6547C7.36599 35.714 6.48497 33.2561 6.48497 30.7344L6.47849 30.7473V30.7459Z" fill="white"/>
<path d="M17.3324 36.4912C17.8612 36.4912 18.2898 36.0626 18.2898 35.5338C18.2898 35.0051 17.8612 34.5764 17.3324 34.5764C16.8036 34.5764 16.375 35.0051 16.375 35.5338C16.375 36.0626 16.8036 36.4912 17.3324 36.4912Z" fill="white"/>
<path d="M17.3328 25.6384C18.386 25.6384 19.248 26.5005 19.248 27.5537C19.248 28.6069 18.386 29.469 17.3328 29.469C16.9818 29.469 16.6943 29.7565 16.6943 30.1074V33.2995H17.9712V30.6819C19.4267 30.3884 20.5249 29.0986 20.5249 27.5537C20.5249 25.7917 19.0948 24.3616 17.3328 24.3616C15.5707 24.3616 14.1406 25.7917 14.1406 27.5537H15.4175C15.4175 26.5005 16.2795 25.6384 17.3328 25.6384Z" fill="white"/>
<path d="M27.5469 14.7852H37.7617V16.062H27.5469V14.7852Z" fill="white"/>
<path d="M27.5469 18.6157H37.7617V19.8926H27.5469V18.6157Z" fill="white"/>
<path d="M30.1016 22.4463H37.7627V23.7231H30.1016V22.4463Z" fill="white"/>
</svg>
