<svg width="50" height="50" viewBox="0 0 50 50" fill="none" xmlns="http://www.w3.org/2000/svg">
<path d="M18.4967 4.35425C18.1287 4.35425 17.8301 4.6524 17.8301 5.02091V7.68666C17.8301 8.05471 18.1287 8.35332 18.4967 8.35332C18.8648 8.35332 19.1634 8.05517 19.1634 7.68666V5.02091C19.1634 4.65286 18.8648 4.35425 18.4967 4.35425Z" fill="white"/>
<path d="M15.1987 9.11841L13.3135 7.23322C13.0533 6.97304 12.6311 6.97304 12.3709 7.23322C12.1107 7.49341 12.1107 7.91563 12.3709 8.17582L14.2561 10.061C14.3862 10.1911 14.557 10.2564 14.7274 10.2564C14.8978 10.2564 15.0686 10.1911 15.1987 10.061C15.4589 9.80082 15.4589 9.3786 15.1987 9.11841Z" fill="white"/>
<path d="M24.6245 7.23322C24.3643 6.97304 23.9421 6.97304 23.6819 7.23322L21.7967 9.11841C21.5365 9.3786 21.5365 9.80082 21.7967 10.061C21.9268 10.1911 22.0972 10.2564 22.268 10.2564C22.4388 10.2564 22.6092 10.1911 22.7393 10.061L24.6245 8.17582C24.8847 7.91563 24.8847 7.49341 24.6245 7.23322Z" fill="white"/>
<path d="M34.4931 21.7268C33.6468 21.7268 32.8736 22.0444 32.2852 22.5661C31.813 21.299 30.5912 20.3939 29.1616 20.3939C28.3153 20.3939 27.5421 20.7115 26.9537 21.2333C26.4815 19.9661 25.2597 19.061 23.8301 19.061C23.0806 19.061 22.388 19.3101 21.8306 19.7296V13.0184C21.8306 11.1809 20.3356 9.68604 18.4981 9.68604C16.6606 9.68604 15.1657 11.1809 15.1657 13.0184V25.793C13.6468 26.1027 12.5 27.449 12.5 29.0583V33.0573C12.5 39.5221 17.3394 44.9328 23.7569 45.6421C23.7819 45.6448 23.8065 45.6462 23.831 45.6462C24.1662 45.6462 24.4551 45.3939 24.4926 45.0527C24.5329 44.687 24.2694 44.3573 23.9032 44.3171C18.162 43.6823 13.8329 38.8416 13.8329 33.0569V29.0578C13.8329 28.1888 14.3903 27.4481 15.1657 27.1731V31.7235C15.1657 32.0916 15.4644 32.3902 15.8324 32.3902C16.2005 32.3902 16.4991 32.0921 16.4991 31.7235V13.018C16.4991 11.9157 17.3958 11.0184 18.4986 11.0184C19.6014 11.0184 20.4981 11.9152 20.4981 13.018V26.3921C20.4981 26.7601 20.7968 27.0587 21.1648 27.0587C21.5329 27.0587 21.8315 26.7606 21.8315 26.3921V22.393C21.8315 21.2907 22.7282 20.3934 23.831 20.3934C24.9338 20.3934 25.8306 21.2902 25.8306 22.393V26.3921C25.8306 26.7601 26.1292 27.0587 26.4972 27.0587C26.8653 27.0587 27.1639 26.7606 27.1639 26.3921V23.7263C27.1639 22.624 28.0606 21.7268 29.1634 21.7268C30.2662 21.7268 31.163 22.6235 31.163 23.7263V26.3921C31.163 26.7601 31.4616 27.0587 31.8296 27.0587C32.1977 27.0587 32.4963 26.7606 32.4963 26.3921V25.0592C32.4963 23.9569 33.3931 23.0596 34.4958 23.0596C35.5986 23.0596 36.4954 23.9564 36.4954 25.0592V33.0569C36.4954 38.8416 32.1662 43.6819 26.425 44.3171C26.0593 44.3573 25.7954 44.687 25.8356 45.0527C25.8731 45.3939 26.162 45.6462 26.4972 45.6462C26.5218 45.6462 26.5463 45.6448 26.5713 45.6421C32.9889 44.9323 37.8282 39.5221 37.8282 33.0573V25.0596C37.8282 23.2221 36.3333 21.7272 34.4958 21.7272L34.4931 21.7268Z" fill="white"/>
</svg>
