<svg width="50" height="50" viewBox="0 0 50 50" fill="none" xmlns="http://www.w3.org/2000/svg">
<path d="M33.6726 15.8652C33.6726 13.7865 32.9258 11.7759 31.5703 10.2041C30.2291 8.64858 28.3786 7.61709 26.3601 7.2995C26.061 7.25228 25.78 7.45691 25.7332 7.75598C25.686 8.05506 25.8906 8.33608 26.1897 8.38283C27.9522 8.66015 29.5679 9.56154 30.7402 10.9203C31.924 12.293 32.5763 14.0495 32.5763 15.8652C32.5763 20.0426 29.1777 23.4412 25.0003 23.4412C20.823 23.4412 17.4244 20.0426 17.4244 15.8652C17.4244 14.0495 18.0763 12.2935 19.2605 10.9203C20.4323 9.56154 22.0485 8.66015 23.811 8.38283C24.1101 8.33561 24.3147 8.05506 24.2675 7.75598C24.2203 7.45691 23.9397 7.25274 23.6406 7.2995C21.6221 7.61756 19.7716 8.64904 18.4304 10.2041C17.0749 11.7759 16.3281 13.7865 16.3281 15.8652C16.3281 20.6476 20.2189 24.5379 25.0008 24.5379C29.7828 24.5379 33.6735 20.6472 33.6735 15.8652H33.6726Z" fill="white"/>
<path d="M35.0438 25.3616C30.2614 25.3616 26.3711 29.2523 26.3711 34.0343C26.3711 36.113 27.1179 38.1236 28.4734 39.6954C29.8146 41.2509 31.6651 42.2824 33.6836 42.6C33.9822 42.6472 34.2637 42.4426 34.3104 42.1435C34.3577 41.8444 34.153 41.5634 33.854 41.5167C32.0915 41.2394 30.4757 40.338 29.3035 38.9792C28.1197 37.6065 27.4674 35.85 27.4674 34.0343C27.4674 29.8569 30.866 26.4583 35.0433 26.4583C39.2206 26.4583 42.6192 29.8569 42.6192 34.0347C42.6192 35.8505 41.9674 37.6065 40.7831 38.9796C39.6114 40.3384 37.9952 41.2398 36.2327 41.5171C35.9336 41.5644 35.729 41.8449 35.7762 42.144C35.8188 42.4144 36.0521 42.6069 36.3174 42.6069C36.3456 42.6069 36.3743 42.6046 36.4035 42.6C38.422 42.2819 40.2725 41.2505 41.6137 39.6954C42.9692 38.1236 43.716 36.113 43.716 34.0343C43.716 29.2519 39.8253 25.3616 35.0433 25.3616H35.0438Z" fill="white"/>
<path d="M22.4383 32.8444C22.4855 33.1435 22.7665 33.3481 23.0651 33.3009C23.3642 33.2537 23.5684 32.9731 23.5216 32.6741C23.2036 30.6556 22.1721 28.8056 20.617 27.4639C19.0448 26.1083 17.0346 25.3616 14.9559 25.3616C10.1735 25.3616 6.2832 29.2523 6.2832 34.0343C6.2832 38.8162 10.1739 42.7069 14.9559 42.7069C17.0346 42.7069 19.0448 41.9602 20.617 40.6046C22.1721 39.2634 23.204 37.413 23.5216 35.3944C23.5689 35.0954 23.3642 34.8143 23.0651 34.7676C22.7661 34.7208 22.4851 34.925 22.4383 35.2241C22.161 36.9861 21.2596 38.6023 19.9008 39.7741C18.5276 40.9583 16.7716 41.6102 14.9559 41.6102C10.7786 41.6102 7.37996 38.2116 7.37996 34.0343C7.37996 29.8569 10.7786 26.4583 14.9559 26.4583C16.7716 26.4583 18.5276 27.1106 19.9008 28.2944C21.2596 29.4662 22.161 31.0824 22.4383 32.8444Z" fill="white"/>
<path d="M25.0001 10.2773C23.8834 10.2773 22.9746 11.1861 22.9746 12.3028C22.9746 13.4195 23.8834 14.3283 25.0001 14.3283C26.1167 14.3283 27.0255 13.4195 27.0255 12.3028C27.0255 11.1861 26.1167 10.2773 25.0001 10.2773ZM25.0001 13.2315C24.488 13.2315 24.0714 12.8148 24.0714 12.3028C24.0714 11.7908 24.488 11.3741 25.0001 11.3741C25.5121 11.3741 25.9288 11.7908 25.9288 12.3028C25.9288 12.8148 25.5121 13.2315 25.0001 13.2315Z" fill="white"/>
<path d="M28.6329 18.9508C29.7496 18.9508 30.6583 18.042 30.6583 16.9254C30.6583 15.8087 29.7496 14.8999 28.6329 14.8999C27.5162 14.8999 26.6074 15.8087 26.6074 16.9254C26.6074 18.042 27.5162 18.9508 28.6329 18.9508ZM28.6329 15.9967C29.1449 15.9967 29.5616 16.4133 29.5616 16.9254C29.5616 17.4374 29.1449 17.8541 28.6329 17.8541C28.1208 17.8541 27.7042 17.4374 27.7042 16.9254C27.7042 16.4133 28.1208 15.9967 28.6329 15.9967Z" fill="white"/>
<path d="M20.5898 18.4024C20.5898 19.5191 21.4986 20.4279 22.6153 20.4279C23.732 20.4279 24.6408 19.5191 24.6408 18.4024C24.6408 17.2857 23.732 16.377 22.6153 16.377C21.4986 16.377 20.5898 17.2857 20.5898 18.4024ZM23.5445 18.4024C23.5445 18.9145 23.1278 19.3311 22.6158 19.3311C22.1037 19.3311 21.6871 18.9145 21.6871 18.4024C21.6871 17.8904 22.1037 17.4737 22.6158 17.4737C23.1278 17.4737 23.5445 17.8904 23.5445 18.4024Z" fill="white"/>
<path d="M36.8486 31.2287V29.8991C36.8486 29.2709 36.3375 28.7598 35.7092 28.7598H34.3796C33.7513 28.7598 33.2402 29.2709 33.2402 29.8991V31.2287C33.2402 31.857 33.7513 32.3681 34.3796 32.3681H35.7092C36.3375 32.3681 36.8486 31.857 36.8486 31.2287ZM35.7518 31.2287C35.7518 31.2524 35.7328 31.2713 35.7092 31.2713H34.3796C34.356 31.2713 34.337 31.2524 34.337 31.2287V29.8991C34.337 29.8755 34.356 29.8565 34.3796 29.8565H35.7092C35.7328 29.8565 35.7518 29.8755 35.7518 29.8991V31.2287Z" fill="white"/>
<path d="M14.9556 32.0718C15.2584 32.0718 15.5037 31.8264 15.5037 31.5236V30.8167H16.2111C16.5139 30.8167 16.7593 30.5713 16.7593 30.2685C16.7593 29.9658 16.5139 29.7204 16.2111 29.7204H15.5037V29.013C15.5037 28.7102 15.2584 28.4648 14.9556 28.4648C14.6528 28.4648 14.4074 28.7102 14.4074 29.013V29.7204H13.7005C13.3977 29.7204 13.1523 29.9658 13.1523 30.2685C13.1523 30.5713 13.3977 30.8167 13.7005 30.8167H14.4074V31.5236C14.4074 31.8264 14.6528 32.0718 14.9556 32.0718Z" fill="white"/>
<path d="M18.1314 37.2666C18.4341 37.2666 18.6795 37.0212 18.6795 36.7184V36.011H19.3869C19.6897 36.011 19.9351 35.7657 19.9351 35.4629C19.9351 35.1601 19.6897 34.9147 19.3869 34.9147H18.6795V34.2073C18.6795 33.9046 18.4341 33.6592 18.1314 33.6592C17.8286 33.6592 17.5832 33.9046 17.5832 34.2073V34.9147H16.8763C16.5735 34.9147 16.3281 35.1601 16.3281 35.4629C16.3281 35.7657 16.5735 36.011 16.8763 36.011H17.5832V36.7184C17.5832 37.0212 17.8286 37.2666 18.1314 37.2666Z" fill="white"/>
<path d="M12.0596 38.5222C12.3623 38.5222 12.6077 38.2768 12.6077 37.9741V37.2666H13.3151C13.6179 37.2666 13.8633 37.0213 13.8633 36.7185C13.8633 36.4157 13.6179 36.1704 13.3151 36.1704H12.6077V35.4629C12.6077 35.1602 12.3623 34.9148 12.0596 34.9148C11.7568 34.9148 11.5114 35.1602 11.5114 35.4629V36.1704H10.804C10.5012 36.1704 10.2559 36.4157 10.2559 36.7185C10.2559 37.0213 10.5012 37.2666 10.804 37.2666H11.5114V37.9741C11.5114 38.2768 11.7568 38.5222 12.0596 38.5222Z" fill="white"/>
<path d="M36.5273 36.9355C36.5273 37.5638 37.0385 38.0749 37.6667 38.0749H38.9963C39.6246 38.0749 40.1357 37.5638 40.1357 36.9355V35.6059C40.1357 34.9777 39.6246 34.4666 38.9963 34.4666H37.6667C37.0385 34.4666 36.5273 34.9777 36.5273 35.6059V36.9355ZM37.6241 35.6059C37.6241 35.5823 37.6431 35.5633 37.6667 35.5633H38.9963C39.0199 35.5633 39.0389 35.5823 39.0389 35.6059V36.9355C39.0389 36.9591 39.0199 36.9781 38.9963 36.9781H37.6667C37.6431 36.9781 37.6241 36.9591 37.6241 36.9355V35.6059Z" fill="white"/>
<path d="M32.6819 34.9629H31.3522C30.724 34.9629 30.2129 35.474 30.2129 36.1022V37.4319C30.2129 38.0601 30.724 38.5712 31.3522 38.5712H32.6819C33.3101 38.5712 33.8212 38.0601 33.8212 37.4319V36.1022C33.8212 35.474 33.3101 34.9629 32.6819 34.9629ZM32.7245 37.4314C32.7245 37.455 32.7055 37.474 32.6819 37.474H31.3522C31.3286 37.474 31.3096 37.455 31.3096 37.4314V36.1018C31.3096 36.0782 31.3286 36.0592 31.3522 36.0592H32.6819C32.7055 36.0592 32.7245 36.0782 32.7245 36.1018V37.4314Z" fill="white"/>
</svg>
