<svg width="200" height="200" viewBox="0 0 200 200" fill="none" xmlns="http://www.w3.org/2000/svg">
<path d="M99.6642 99.6824V183.227C53.5231 183.227 16.1191 145.824 16.1191 99.6824H99.6642Z" stroke="#FF8623" stroke-width="0.82" stroke-miterlimit="10"/>
<path d="M183.225 99.6824H99.6641V16.1216C145.821 16.1216 183.225 53.5412 183.225 99.6824Z" stroke="#FF8623" stroke-width="0.82" stroke-miterlimit="10"/>
<path d="M172.754 101.047C172.754 141.129 140.264 173.62 100.181 173.62C60.099 173.62 27.6088 141.129 27.6088 101.047C27.6088 60.9647 60.099 28.4745 100.181 28.4745C140.264 28.4745 172.754 60.9647 172.754 101.047Z" fill="#FF8623"/>
<path d="M27.6088 101.047C27.6088 60.9664 60.1006 28.4745 100.181 28.4745C140.262 28.4745 172.754 60.9664 172.754 101.047C172.754 141.128 140.262 173.62 100.181 173.62C60.1006 173.62 27.6088 141.128 27.6088 101.047Z" stroke="white" stroke-width="0.82" stroke-miterlimit="10"/>
<path d="M112.234 86.3608L112.238 86.3686C112.238 86.3647 112.238 86.3647 112.234 86.3608ZM99.6652 119.357C100.383 119.357 101.097 119.549 101.74 119.929L119.622 130.627L114.999 110.263C114.669 108.816 115.163 107.302 116.281 106.322L131.963 92.5686L111.214 90.6824C109.72 90.549 108.438 89.6079 107.853 88.2314L99.6652 69.0432L91.4652 88.2353C90.8848 89.6039 89.6025 90.5412 88.1123 90.6784L67.3593 92.5608L83.0417 106.314C84.1633 107.298 84.6574 108.808 84.324 110.263L79.7044 130.624L97.5907 119.929C98.2299 119.549 98.9437 119.357 99.6652 119.357ZM78.6378 136.137C77.8064 136.137 76.9789 135.878 76.2691 135.369C74.9554 134.412 74.3397 132.773 74.6966 131.192L79.5946 109.616L62.9868 95.051C61.7633 93.9843 61.2966 92.298 61.7986 90.753C62.3005 89.2118 63.6652 88.1216 65.2809 87.9726L87.2535 85.9765L95.9437 65.6431C96.5829 64.149 98.0417 63.1843 99.6652 63.1843C101.285 63.1843 102.744 64.149 103.383 65.6392L112.073 85.9765L134.046 87.9726C135.661 88.1177 137.026 89.2118 137.528 90.753C138.03 92.2941 137.563 93.9843 136.344 95.051L119.736 109.616L124.634 131.188C124.991 132.773 124.375 134.412 123.061 135.365C121.748 136.318 119.995 136.388 118.614 135.557L99.6652 124.235L80.7123 135.565C80.0731 135.945 79.3593 136.137 78.6378 136.137Z" fill="white"/>
</svg>
