<svg width="200" height="201" viewBox="0 0 200 201" fill="none" xmlns="http://www.w3.org/2000/svg">
<path d="M99.3549 99.8696V180.262C54.9549 180.262 18.9624 144.27 18.9624 99.8696H99.3549Z" stroke="#6285F0" stroke-miterlimit="10"/>
<path d="M179.762 99.8697H99.3545V19.4622C143.77 19.4622 179.762 55.4697 179.762 99.8697Z" stroke="#6285F0" stroke-miterlimit="10"/>
<path d="M169.687 101.183C169.687 139.753 138.423 171.017 99.8531 171.017C61.2832 171.017 30.0191 139.753 30.0191 101.183C30.0191 62.6131 61.2832 31.3489 99.8531 31.3489C138.423 31.3489 169.687 62.6131 169.687 101.183Z" fill="#6285F0"/>
<path d="M30.0191 101.183C30.0191 62.6146 61.2848 31.3489 99.8531 31.3489C138.421 31.3489 169.687 62.6146 169.687 101.183C169.687 139.751 138.421 171.017 99.8531 171.017C61.2848 171.017 30.0191 139.751 30.0191 101.183Z" stroke="white" stroke-miterlimit="10"/>
<path d="M113.548 84.115C112.688 84.115 111.986 84.8131 111.986 85.6773C111.986 86.5376 112.688 87.2357 113.548 87.2357C114.412 87.2357 115.111 86.5376 115.111 85.6773C115.111 84.8131 114.412 84.115 113.548 84.115Z" fill="white"/>
<path d="M85.178 112.485C84.3138 112.485 83.6157 113.183 83.6157 114.047C83.6157 114.911 84.3138 115.609 85.178 115.609C86.0383 115.609 86.7402 114.911 86.7402 114.047C86.7402 113.183 86.0383 112.485 85.178 112.485Z" fill="white"/>
<path d="M123.721 87.9943C122.355 87.9943 121.012 87.7754 119.729 87.3452C119.17 87.1565 118.548 87.2999 118.129 87.7188C110.299 95.549 93.4345 112.413 87.2232 118.624C86.8006 119.043 86.6572 119.666 86.8458 120.228C88.144 124.081 87.5213 128.194 85.1402 131.507C82.7666 134.813 79.0723 136.711 75.0043 136.711C74.5477 136.711 74.0949 136.685 73.6421 136.636L78.6043 131.715C78.8987 131.424 79.0647 131.024 79.0647 130.609V126.191C79.0647 125.775 78.8987 125.379 78.6081 125.085L74.1364 120.617C73.8458 120.323 73.4458 120.16 73.0345 120.16H68.6157C68.2006 120.16 67.8006 120.326 67.5062 120.621L62.5855 125.579C62.5364 125.13 62.5138 124.677 62.5138 124.217C62.5138 120.153 64.4081 116.458 67.7138 114.081C71.0308 111.7 75.1402 111.081 78.9968 112.379C79.5591 112.568 80.1779 112.421 80.5968 112.002C80.6836 111.915 111.484 81.1188 111.506 81.0962C111.925 80.6773 112.068 80.0547 111.88 79.4924C110.582 75.6396 111.201 71.5301 113.582 68.2169C115.959 64.9075 119.653 63.0131 123.721 63.0131C124.193 63.0131 124.661 63.0396 125.121 63.0886L120.268 68.0169C119.978 68.3113 119.819 68.7037 119.819 69.115V73.5301C119.819 73.9377 119.974 74.3226 120.257 74.6169L124.57 79.0848C124.865 79.3905 125.268 79.5641 125.695 79.5641H130.11C130.525 79.5641 130.925 79.3981 131.219 79.0999L136.14 74.1415C136.189 74.5905 136.212 75.0471 136.212 75.5037C136.212 82.3905 130.608 87.9943 123.721 87.9943ZM110.514 104.149L103.612 111.051L101.502 108.76L108.219 102.043L110.514 104.149ZM112.816 106.262L134.408 126.07C136.819 128.507 136.812 132.455 134.385 134.881C131.952 137.315 128.012 137.323 125.57 134.904L105.729 113.349L112.816 106.262ZM73.0987 75.8056C72.8043 75.5113 72.4081 75.3641 71.993 75.3641L68.4609 75.3603L62.9213 66.1075L65.6119 63.4169L74.8496 68.9603V72.4924C74.8496 72.9037 75.0119 73.2999 75.3062 73.5943L94.9251 93.2584L92.7175 95.466L73.0987 75.8056ZM137.397 69.4962C136.868 69.3716 136.314 69.5301 135.933 69.915L129.461 76.4396H126.355L122.94 72.8999V69.7528L129.321 63.2773C129.699 62.8962 129.853 62.3452 129.729 61.8207C129.604 61.2962 129.216 60.8735 128.706 60.7037C127.106 60.1641 125.427 59.8886 123.721 59.8886C118.635 59.8886 114.016 62.2584 111.046 66.3943C108.265 70.266 107.408 75.0094 108.635 79.549L97.1326 91.0509L77.9704 71.8433V68.0735C77.9704 67.5264 77.6836 67.0169 77.2157 66.7377L66.1741 60.1113C65.5591 59.7415 64.7742 59.8396 64.2647 60.3452L59.8496 64.7603C59.344 65.2698 59.2458 66.0547 59.6157 66.6698L66.2383 77.7113C66.5213 78.1792 67.0308 78.466 67.5779 78.4698H71.344L90.51 97.6735L79.0534 109.134C74.51 107.907 69.7666 108.764 65.8949 111.545C61.7628 114.515 59.393 119.134 59.393 124.221C59.393 125.926 59.6647 127.602 60.2043 129.206C60.3779 129.719 60.8043 130.104 61.3326 130.228C61.8609 130.349 62.4119 130.191 62.793 129.806L69.2647 123.281H72.3855L75.944 126.84V129.957L69.4194 136.432C69.0345 136.813 68.876 137.364 68.9968 137.892C69.1175 138.421 69.5062 138.847 70.0194 139.021C71.6232 139.56 73.2987 139.832 75.0043 139.832C80.0911 139.832 84.71 137.462 87.6798 133.33C90.4609 129.458 91.3175 124.711 90.0911 120.172L99.2949 110.972L101.401 113.262L100.435 114.228C99.8232 114.836 99.8232 115.824 100.435 116.436C101.046 117.043 102.031 117.043 102.642 116.436L103.518 115.56L123.295 137.043C123.31 137.058 123.325 137.074 123.34 137.089C127.001 140.749 132.933 140.749 136.593 137.089C140.242 133.436 140.242 127.492 136.593 123.84C136.578 123.824 136.559 123.809 136.544 123.794L115.027 104.055L115.891 103.187C116.502 102.579 116.502 101.591 115.891 100.979C115.284 100.368 114.295 100.368 113.684 100.979L112.725 101.941L110.431 99.8358L119.676 90.5867C120.989 90.9377 122.348 91.1188 123.721 91.1188C132.333 91.1188 139.336 84.1113 139.336 75.5037C139.336 73.7981 139.061 72.1188 138.521 70.5188C138.348 70.0056 137.921 69.6169 137.397 69.4962Z" fill="white"/>
<path d="M108.028 88.9868L88.4889 108.526C87.8813 109.134 87.8813 110.123 88.4889 110.734C89.1002 111.345 90.0889 111.345 90.6964 110.734L110.236 91.1944C110.847 90.5868 110.847 89.5981 110.236 88.9868C109.628 88.3755 108.64 88.3755 108.028 88.9868Z" fill="white"/>
<path d="M127.76 130.466C128.372 131.074 129.36 131.074 129.968 130.462C130.579 129.851 130.575 128.862 129.964 128.255L115.892 114.224C115.281 113.617 114.292 113.617 113.681 114.228C113.073 114.84 113.073 115.828 113.685 116.436L127.76 130.466Z" fill="white"/>
</svg>
