<svg width="200" height="201" viewBox="0 0 200 201" fill="none" xmlns="http://www.w3.org/2000/svg">
<path d="M99.3556 99.8696V180.262C54.9556 180.262 18.9631 144.27 18.9631 99.8696H99.3556Z" stroke="#717E8A" stroke-miterlimit="10"/>
<path d="M179.763 99.8697H99.3552V19.4622C143.77 19.4622 179.763 55.4697 179.763 99.8697Z" stroke="#717E8A" stroke-miterlimit="10"/>
<path d="M169.688 101.183C169.688 139.753 138.424 171.017 99.8538 171.017C61.284 171.017 30.0198 139.753 30.0198 101.183C30.0198 62.6133 61.284 31.3492 99.8538 31.3492C138.424 31.3492 169.688 62.6133 169.688 101.183Z" fill="#717E8A"/>
<path d="M30.0198 101.183C30.0198 62.6149 61.2855 31.3492 99.8538 31.3492C138.422 31.3492 169.688 62.6149 169.688 101.183C169.688 139.751 138.422 171.017 99.8538 171.017C61.2855 171.017 30.0198 139.751 30.0198 101.183Z" stroke="white" stroke-miterlimit="10"/>
<path d="M116.545 141.043C113.299 141.043 110.028 140.345 106.933 138.941C100.439 135.998 95.7598 130.432 94.0919 123.674C92.3409 116.583 94.2239 108.972 99.1221 103.311C104.028 97.6471 111.307 94.6999 118.571 95.4056C125.896 96.1263 132.473 100.485 136.164 107.062C139.854 113.647 140.145 121.534 136.941 128.168C136.575 128.926 135.658 129.24 134.903 128.877C134.141 128.511 133.824 127.594 134.194 126.836C136.964 121.104 136.707 114.27 133.503 108.557C130.299 102.847 124.609 99.066 118.273 98.4433C111.899 97.8094 105.752 100.319 101.431 105.307C97.1183 110.296 95.5221 116.723 97.0579 122.941C98.4994 128.787 102.556 133.602 108.194 136.16C113.816 138.707 120.107 138.587 125.45 135.824C126.198 135.436 127.118 135.73 127.507 136.477C127.896 137.224 127.601 138.149 126.85 138.534C123.62 140.206 120.096 141.043 116.545 141.043Z" fill="white"/>
<path d="M131.098 135.168C130.713 135.168 130.332 135.025 130.034 134.738C129.43 134.149 129.415 133.179 130.004 132.579L131.068 131.481C131.657 130.877 132.623 130.866 133.227 131.451C133.83 132.04 133.846 133.01 133.257 133.61L132.193 134.704C131.895 135.013 131.495 135.168 131.098 135.168Z" fill="white"/>
<path d="M81.8776 77.0246C81.0964 77.0246 80.4323 76.4321 80.3606 75.6397C80.2814 74.7981 80.9002 74.0585 81.738 73.9793C84.304 73.7415 86.9229 73.8057 89.4549 73.8736C90.621 73.9038 91.7832 73.934 92.9304 73.934C93.7757 73.934 94.4587 74.617 94.4587 75.4585C94.4587 76.3038 93.7757 76.9868 92.9304 76.9868C91.7568 76.9868 90.5719 76.9566 89.3795 76.9264C86.9342 76.8623 84.4059 76.7981 82.021 77.0208C81.9719 77.0246 81.9266 77.0246 81.8776 77.0246Z" fill="white"/>
<path d="M75.4111 80.6508C75.0941 80.6508 74.7734 80.5527 74.4979 80.3452C73.8224 79.8433 73.6866 78.8848 74.1885 78.2131C74.547 77.7339 74.9432 77.2886 75.3696 76.8773C75.9772 76.2961 76.947 76.3188 77.5281 76.9301C78.113 77.5414 78.0904 78.5074 77.4791 79.0886C77.1734 79.3791 76.8904 79.6999 76.6338 80.0395C76.3357 80.4395 75.8753 80.6508 75.4111 80.6508Z" fill="white"/>
<path d="M73.584 94.8093C72.7425 94.8093 72.0557 94.1262 72.0557 93.281V84.8357C72.0557 83.9904 72.7425 83.3074 73.584 83.3074C74.4255 83.3074 75.1123 83.9904 75.1123 84.8357V93.281C75.1123 94.1262 74.4255 94.8093 73.584 94.8093Z" fill="white"/>
<path d="M112.509 115.911H107.928C107.086 115.911 106.403 115.228 106.403 114.383C106.403 113.541 107.086 112.858 107.928 112.858H112.509C113.35 112.858 114.037 113.541 114.037 114.383C114.037 115.228 113.35 115.911 112.509 115.911Z" fill="white"/>
<path d="M124.721 115.911H120.14C119.298 115.911 118.615 115.228 118.615 114.383C118.615 113.541 119.298 112.858 120.14 112.858H124.721C125.562 112.858 126.249 113.541 126.249 114.383C126.249 115.228 125.562 115.911 124.721 115.911Z" fill="white"/>
<path d="M112.509 123.542H107.928C107.086 123.542 106.403 122.859 106.403 122.013C106.403 121.172 107.086 120.489 107.928 120.489H112.509C113.35 120.489 114.037 121.172 114.037 122.013C114.037 122.859 113.35 123.542 112.509 123.542Z" fill="white"/>
<path d="M124.721 123.542H120.14C119.298 123.542 118.615 122.859 118.615 122.013C118.615 121.172 119.298 120.489 120.14 120.489H124.721C125.562 120.489 126.249 121.172 126.249 122.013C126.249 122.859 125.562 123.542 124.721 123.542Z" fill="white"/>
<path d="M120.141 115.911C119.3 115.911 118.613 115.228 118.613 114.383V109.806C118.613 108.96 119.3 108.277 120.141 108.277C120.983 108.277 121.67 108.96 121.67 109.806V114.383C121.67 115.228 120.983 115.911 120.141 115.911Z" fill="white"/>
<path d="M120.141 128.123C119.3 128.123 118.613 127.44 118.613 126.594V122.017C118.613 121.172 119.3 120.489 120.141 120.489C120.983 120.489 121.67 121.172 121.67 122.017V126.594C121.67 127.44 120.983 128.123 120.141 128.123Z" fill="white"/>
<path d="M112.509 115.911C111.668 115.911 110.981 115.228 110.981 114.383V109.806C110.981 108.96 111.668 108.277 112.509 108.277C113.351 108.277 114.037 108.96 114.037 109.806V114.383C114.037 115.228 113.351 115.911 112.509 115.911Z" fill="white"/>
<path d="M112.509 128.123C111.668 128.123 110.981 127.44 110.981 126.594V122.017C110.981 121.172 111.668 120.489 112.509 120.489C113.351 120.489 114.037 121.172 114.037 122.017V126.594C114.037 127.44 113.351 128.123 112.509 128.123Z" fill="white"/>
<path d="M107.93 123.542C104.503 123.542 102.711 120.855 102.711 118.198C102.711 116.836 103.171 115.549 104.005 114.579C104.96 113.47 106.356 112.855 107.93 112.855C108.771 112.855 109.458 113.538 109.458 114.383C109.458 115.228 108.771 115.908 107.93 115.908C107.239 115.908 106.696 116.13 106.318 116.572C105.967 116.979 105.764 117.572 105.764 118.198C105.764 118.432 105.828 120.489 107.93 120.489C108.771 120.489 109.458 121.172 109.458 122.013C109.458 122.859 108.771 123.542 107.93 123.542Z" fill="white"/>
<path d="M124.721 123.542C123.879 123.542 123.192 122.859 123.192 122.013C123.192 121.172 123.879 120.489 124.721 120.489C125.411 120.489 125.955 120.266 126.332 119.825C126.683 119.417 126.887 118.825 126.887 118.198C126.887 117.964 126.823 115.908 124.721 115.908C123.879 115.908 123.192 115.228 123.192 114.383C123.192 113.538 123.879 112.855 124.721 112.855C128.147 112.855 129.94 115.545 129.94 118.198C129.94 119.564 129.479 120.847 128.645 121.817C127.69 122.93 126.294 123.542 124.721 123.542Z" fill="white"/>
<path d="M120.141 111.33C119.3 111.33 118.613 110.647 118.613 109.802C118.613 109.111 118.39 108.568 117.952 108.191C117.545 107.84 116.952 107.64 116.326 107.64C116.092 107.64 114.035 107.7 114.035 109.802C114.035 110.647 113.352 111.33 112.507 111.33C111.666 111.33 110.983 110.647 110.983 109.802C110.983 106.379 113.669 104.587 116.326 104.587C118.979 104.587 121.669 106.379 121.669 109.802C121.669 110.647 120.983 111.33 120.141 111.33Z" fill="white"/>
<path d="M116.325 131.813C114.959 131.813 113.676 131.357 112.706 130.523C111.593 129.568 110.982 128.172 110.982 126.594C110.982 125.753 111.665 125.07 112.51 125.07C113.352 125.07 114.035 125.753 114.035 126.594C114.035 128.7 116.091 128.76 116.325 128.76C116.559 128.76 118.616 128.7 118.616 126.594C118.616 125.753 119.299 125.07 120.14 125.07C120.985 125.07 121.668 125.753 121.668 126.594C121.668 130.021 118.978 131.813 116.325 131.813Z" fill="white"/>
<path d="M131.59 104.768C130.748 104.768 130.061 104.085 130.061 103.239V84.6168C130.061 83.7715 130.748 83.0923 131.59 83.0923C132.431 83.0923 133.118 83.7715 133.118 84.6168V103.239C133.118 104.085 132.431 104.768 131.59 104.768Z" fill="white"/>
<path d="M101.369 134.991H82.7423C81.9008 134.991 81.2178 134.308 81.2178 133.462C81.2178 132.621 81.9008 131.938 82.7423 131.938H101.369C102.21 131.938 102.897 132.621 102.897 133.462C102.897 134.308 102.21 134.991 101.369 134.991Z" fill="white"/>
<path d="M82.7429 134.991C76.8524 134.991 72.0562 130.194 72.0562 124.304C72.0562 123.462 72.7429 122.779 73.5845 122.779C74.426 122.779 75.109 123.462 75.109 124.304C75.109 128.515 78.5354 131.938 82.7429 131.938C83.5845 131.938 84.2712 132.621 84.2712 133.462C84.2712 134.308 83.5845 134.991 82.7429 134.991Z" fill="white"/>
<path d="M73.584 125.832C72.7425 125.832 72.0557 125.149 72.0557 124.304V112.587C72.0557 111.745 72.7425 111.062 73.584 111.062C74.4255 111.062 75.1123 111.745 75.1123 112.587V124.304C75.1123 125.149 74.4255 125.832 73.584 125.832Z" fill="white"/>
<path d="M69.0168 115.134C66.6771 115.134 64.3413 114.47 62.3375 113.168C61.6319 112.704 61.4319 111.76 61.8922 111.055C62.3526 110.349 63.2998 110.149 64.0054 110.61C66.6545 112.33 70.0734 112.56 72.93 111.21C73.6922 110.847 74.6017 111.172 74.9639 111.934C75.3224 112.696 74.9979 113.606 74.2356 113.968C72.5903 114.749 70.8017 115.134 69.0168 115.134Z" fill="white"/>
<path d="M63.1706 113.413C62.8838 113.413 62.597 113.334 62.3404 113.164C56.7857 109.545 55.1404 102.036 58.6725 96.421C61.9027 91.2776 68.7404 89.2889 74.2386 91.9002C75.0008 92.2625 75.3216 93.1719 74.9631 93.9342C74.6008 94.6964 73.6914 95.0172 72.9291 94.6587C68.8046 92.704 63.6801 94.1908 61.2574 98.0474C58.6537 102.187 59.9103 107.938 64.0046 110.61C64.714 111.07 64.9103 112.013 64.4499 112.719C64.1593 113.168 63.6687 113.413 63.1706 113.413Z" fill="white"/>
<path d="M131.59 86.1454C130.748 86.1454 130.061 85.4624 130.061 84.6171C130.061 80.4096 126.639 76.9869 122.431 76.9869C121.59 76.9869 120.903 76.3039 120.903 75.4586C120.903 74.6171 121.59 73.9341 122.431 73.9341C128.322 73.9341 133.118 78.7265 133.118 84.6171C133.118 85.4624 132.431 86.1454 131.59 86.1454Z" fill="white"/>
<path d="M92.9332 76.9866C92.3634 76.9866 91.8125 76.6658 91.5521 76.1149C88.703 70.1036 91.2502 62.8319 97.2238 59.9074C103.035 57.0696 110.262 59.3866 113.337 65.0847C113.737 65.8243 113.458 66.7526 112.714 67.1489C111.975 67.5564 111.05 67.2734 110.646 66.53C108.345 62.2583 102.926 60.5224 98.5672 62.6507C94.1596 64.8055 92.2087 70.3753 94.3106 74.8055C94.6728 75.5677 94.3483 76.4809 93.586 76.8394C93.3747 76.9375 93.1521 76.9866 92.9332 76.9866Z" fill="white"/>
<path d="M112.24 76.9831C112.021 76.9831 111.799 76.934 111.587 76.8359C110.825 76.4736 110.501 75.5642 110.863 74.8019C112.104 72.1793 112.025 69.0849 110.648 66.5265C110.248 65.7831 110.523 64.8585 111.267 64.4585C112.006 64.0548 112.935 64.3378 113.335 65.0774C115.172 68.4887 115.278 72.6133 113.618 76.1114C113.361 76.6623 112.81 76.9831 112.24 76.9831Z" fill="white"/>
<path d="M122.431 76.9869H112.242C111.4 76.9869 110.714 76.3039 110.714 75.4586C110.714 74.6171 111.4 73.9341 112.242 73.9341H122.431C123.272 73.9341 123.959 74.6171 123.959 75.4586C123.959 76.3039 123.272 76.9869 122.431 76.9869Z" fill="white"/>
</svg>
