<svg width="200" height="200" viewBox="0 0 200 200" fill="none" xmlns="http://www.w3.org/2000/svg">
<path d="M99.6628 99.6785V183.224C53.5216 183.224 16.1177 145.82 16.1177 99.6785H99.6628Z" stroke="#FF8623" stroke-width="0.82" stroke-miterlimit="10"/>
<path d="M183.223 99.6785H99.6624V16.1177C145.819 16.1177 183.223 53.5373 183.223 99.6785Z" stroke="#FF8623" stroke-width="0.82" stroke-miterlimit="10"/>
<path d="M172.753 101.047C172.753 141.129 140.263 173.62 100.18 173.62C60.098 173.62 27.6078 141.129 27.6078 101.047C27.6078 60.9647 60.098 28.4745 100.18 28.4745C140.263 28.4745 172.753 60.9647 172.753 101.047Z" fill="#FF8623"/>
<path d="M27.6078 101.047C27.6078 60.9664 60.0997 28.4745 100.18 28.4745C140.261 28.4745 172.753 60.9664 172.753 101.047C172.753 141.128 140.261 173.62 100.18 173.62C60.0997 173.62 27.6078 141.128 27.6078 101.047Z" stroke="white" stroke-width="0.82" stroke-miterlimit="10"/>
<path d="M99.6784 74.5177C101.063 74.5177 101.063 74.5177 101.067 73.2471C101.067 71.7922 101.067 71.7922 99.7725 71.7922C98.3411 71.7883 98.3411 71.7883 98.3411 73.1138C98.3411 74.5177 98.3411 74.5177 99.6784 74.5177ZM104.604 136.812C102.435 134.153 101.2 133.6 97.7293 134.188C96.4078 134.412 95.8078 135.831 94.7411 136.812H104.604ZM99.6587 68.5922C99.8627 68.5922 100.067 68.5647 100.267 68.5961C101.153 68.7373 101.569 68.3726 101.737 67.4824C101.984 66.153 102.376 64.8471 102.663 63.5177C102.933 62.2785 102.435 61.0981 101.384 60.4471C100.274 59.7647 99.1333 59.7608 98.0235 60.4471C96.9725 61.102 96.4784 62.2745 96.7411 63.5177C96.9882 64.6745 97.2666 65.8275 97.5686 66.9726C98.0509 68.8157 97.698 68.5687 99.6587 68.5922ZM99.6117 142.89C105.639 142.89 111.667 142.894 117.698 142.886C117.941 142.886 118.278 143.02 118.42 142.757C118.584 142.463 118.302 142.216 118.145 141.988C117.212 140.631 115.871 140.067 114.267 140.059C111.082 140.051 107.894 140.055 104.706 140.055C98.2156 140.055 91.7215 140.059 85.2313 140.055C83.6313 140.055 82.2744 140.576 81.3136 141.91C81.1333 142.157 80.8156 142.427 80.9842 142.749C81.1411 143.039 81.5176 142.886 81.7921 142.886C87.7333 142.894 93.6705 142.89 99.6117 142.89ZM126.463 113.38C121.941 113.38 117.423 113.38 112.902 113.384C111.918 113.384 111.835 113.518 112.2 114.439C113.286 117.177 115.914 119.039 118.874 119.059C123.914 119.09 128.961 119.129 134 119.047C137.137 118.996 139.345 117.373 140.623 114.51C141.063 113.529 140.953 113.384 139.851 113.384C135.388 113.38 130.925 113.38 126.463 113.38ZM72.996 113.38C68.5333 113.38 64.0705 113.38 59.6078 113.384C58.4195 113.384 58.3254 113.522 58.8313 114.62C60.1489 117.471 62.3921 119.016 65.5254 119.055C70.4784 119.114 75.4352 119.114 80.3921 119.055C83.5646 119.016 85.8156 117.447 87.145 114.569C87.6274 113.518 87.5293 113.384 86.3842 113.384C81.9215 113.38 77.4587 113.38 72.996 113.38ZM98.3411 104.322V118.765C98.3411 122.478 98.3372 126.188 98.3489 129.902C98.3489 130.231 98.1999 130.706 98.6078 130.831C99.3019 131.043 100.074 131.067 100.749 130.839C101.337 130.643 101.051 129.973 101.055 129.518C101.067 112.726 101.067 95.9294 101.063 79.1373C101.063 78.8745 101.055 78.6157 101.059 78.353C101.071 77.9177 100.855 77.7177 100.423 77.7255C100.133 77.7294 99.8431 77.7216 99.5529 77.7216C98.345 77.7255 98.3411 77.7255 98.3411 78.9138V104.322ZM126.372 110.184H139.239C140.294 110.184 140.31 110.153 139.859 109.177C139.627 108.678 139.396 108.177 139.165 107.678C135.157 98.9334 131.149 90.1883 127.137 81.4471C126.988 81.1255 126.91 80.6902 126.404 80.7059C125.949 80.7177 125.878 81.1177 125.741 81.4157C121.49 90.6863 117.247 99.9608 113.004 109.235C112.572 110.173 112.584 110.184 113.592 110.184H126.372ZM73.0038 110.184H85.698C86.8235 110.184 86.8352 110.177 86.3803 109.18C82.2117 100.067 78.0391 90.9491 73.8509 81.8432C73.6509 81.4079 73.6431 80.6981 72.9489 80.7216C72.3293 80.7412 72.294 81.4 72.1019 81.8157C67.8901 90.9765 63.6901 100.141 59.4901 109.306C59.1097 110.137 59.1372 110.18 60.047 110.18C64.3685 110.188 68.6862 110.184 73.0038 110.184ZM100.921 56.804C103.4 57.502 105.114 58.9922 105.733 61.5569C106.004 62.6745 105.906 63.804 105.623 64.9138C105.376 65.8981 105.141 66.8863 104.878 67.8667C104.753 68.3373 104.867 68.553 105.396 68.5961C107.247 68.753 107.247 68.7687 107.231 70.6589C107.223 71.7412 107.184 71.7765 106.106 71.7922C104.078 71.8236 104.302 71.4706 104.259 73.6628C104.243 74.3922 104.565 74.5294 105.2 74.5255C108.565 74.5059 111.929 74.5412 115.294 74.5098C118.282 74.4863 121.196 74.8392 123.965 76.0314C124.423 76.2275 124.706 76.1765 124.906 75.6745C125.176 75.004 125.69 74.5608 126.431 74.5608C127.212 74.5647 127.721 75.0549 127.992 75.753C128.208 76.3177 128.51 76.3334 128.988 76.0667C129.671 75.6824 130.4 75.3804 131.082 75C131.588 74.7177 131.839 74.8628 132.098 75.3451C133.239 77.4706 133.247 77.4589 131.094 78.5412C129.353 79.4118 129.557 79.102 130.29 80.702C134.718 90.3804 139.118 100.071 143.616 109.71C144.525 111.659 144.396 113.463 143.706 115.337C142.208 119.424 138.416 122.192 134.059 122.255C128.984 122.326 123.906 122.333 118.831 122.255C113.478 122.173 109.106 118.055 108.557 112.737C108.474 111.969 108.588 111.247 108.914 110.537C113.455 100.655 117.98 90.7687 122.518 80.8902C123.376 79.0236 123.388 79.0275 121.431 78.4393C119.839 77.9647 118.22 77.7098 116.549 77.7177C112.808 77.7373 109.067 77.7451 105.325 77.7059C104.471 77.6942 104.255 77.9843 104.255 78.804C104.274 96.2079 104.271 113.612 104.259 131.016C104.259 131.643 104.431 132.106 104.89 132.545C106.165 133.773 107.408 135.031 108.643 136.298C109.035 136.702 109.459 136.878 110.023 136.878C111.792 136.886 113.557 136.843 115.325 136.977C118.769 137.243 121.878 140.404 122.023 143.871C122.09 145.431 121.572 145.977 119.996 145.977C106.714 145.98 93.4274 145.98 80.145 145.977C79.7372 145.977 79.3293 145.992 78.9254 145.969C77.945 145.91 77.4078 145.337 77.3725 144.345C77.247 140.757 80.4509 137.259 84.0391 136.98C85.7803 136.847 87.5176 136.871 89.2548 136.882C89.9176 136.886 90.4038 136.682 90.8587 136.204C92.0666 134.949 93.3019 133.726 94.5489 132.51C94.9489 132.122 95.1489 131.714 95.145 131.141C95.1333 113.651 95.1333 96.1608 95.1489 78.6706C95.1489 77.9608 94.9372 77.7059 94.2078 77.7098C90.1764 77.7412 86.145 77.7177 82.1136 77.7451C80.2666 77.753 78.5058 78.2196 76.7842 78.8667C76.2235 79.0785 76.1685 79.3098 76.4078 79.8275C77.9058 83.0628 79.3803 86.3098 80.8627 89.553C84.0744 96.5647 87.2784 103.58 90.5097 110.584C91.0509 111.761 90.8784 112.914 90.6156 114.071C89.545 118.765 85.4352 122.18 80.6078 122.255C75.5333 122.329 70.4548 122.326 65.3803 122.255C60.6274 122.192 56.6195 118.961 55.4038 114.373C55.3293 114.094 55.2313 113.82 55.145 113.545V111.11C55.2823 110.851 55.4313 110.604 55.5529 110.341C57.5921 105.886 59.6274 101.431 61.6705 96.9765C64.2509 91.3373 66.8274 85.6942 69.4352 80.0667C69.7333 79.4275 69.6038 79.1373 68.9999 78.8745C68.2862 78.5647 67.6038 78.1687 66.894 77.8392C66.447 77.6275 66.2705 77.3765 66.545 76.8942C66.8431 76.3647 67.1058 75.8118 67.3607 75.2589C67.5607 74.8196 67.8274 74.7373 68.2548 74.9647C68.9725 75.3491 69.7176 75.6706 70.4274 76.0667C70.9176 76.3412 71.2038 76.2942 71.4195 75.7451C71.694 75.0432 72.2038 74.5647 72.9882 74.5647C73.7293 74.5687 74.2352 75.0236 74.5019 75.6863C74.7097 76.2 75.0038 76.2236 75.4509 76.0314C78.1921 74.851 81.0744 74.4863 84.0313 74.5098C87.4235 74.5373 90.8195 74.5059 94.2117 74.5255C94.8548 74.5294 95.1646 74.3804 95.1489 73.6589C95.1019 71.4745 95.3254 71.7843 93.294 71.8079C92.4156 71.8196 92.1372 71.5255 92.1568 70.6549C92.1999 68.7726 92.1568 68.7569 94.0156 68.5961C94.545 68.553 94.647 68.3334 94.5254 67.8628C94.2274 66.7098 93.9293 65.5608 93.6744 64.4C93.4352 63.3098 93.4313 62.2118 93.7764 61.1373C94.5333 58.8118 96.1764 57.4471 98.4862 56.804H100.921Z" fill="white"/>
</svg>
