<svg width="200" height="201" viewBox="0 0 200 201" fill="none" xmlns="http://www.w3.org/2000/svg">
<path d="M99.3556 99.8699V180.259C54.9556 180.259 18.9631 144.27 18.9631 99.8699H99.3556Z" stroke="#FFB816" stroke-miterlimit="10"/>
<path d="M179.763 99.8697H99.3552V19.4622C143.77 19.4622 179.763 55.4697 179.763 99.8697Z" stroke="#FFB816" stroke-miterlimit="10"/>
<path d="M169.688 101.187C169.688 139.757 138.424 171.021 99.8538 171.021C61.284 171.021 30.0198 139.757 30.0198 101.187C30.0198 62.617 61.284 31.3528 99.8538 31.3528C138.424 31.3528 169.688 62.617 169.688 101.187Z" fill="#FFB816"/>
<path d="M30.0198 101.187C30.0198 62.6186 61.2855 31.3528 99.8538 31.3528C138.422 31.3528 169.688 62.6186 169.688 101.187C169.688 139.755 138.422 171.021 99.8538 171.021C61.2855 171.021 30.0198 139.755 30.0198 101.187Z" stroke="white" stroke-miterlimit="10"/>
<path d="M88.5097 111.266H80.6871V103.443H88.5097V111.266ZM90.7248 103.368C90.7248 102.187 89.7626 101.228 88.5852 101.228H80.6116C79.4343 101.228 78.472 102.187 78.472 103.368V111.338C78.472 112.519 79.4343 113.477 80.6116 113.477H88.5852C89.7626 113.477 90.7248 112.519 90.7248 111.338V103.368ZM118.563 88.9754H96.2607C95.6494 88.9754 95.1513 89.4697 95.1513 90.081C95.1513 90.6923 95.6494 91.1905 96.2607 91.1905H118.563C119.174 91.1905 119.672 90.6923 119.672 90.081C119.672 89.4697 119.174 88.9754 118.563 88.9754ZM118.563 84.5451H96.2607C95.6494 84.5451 95.1513 85.0433 95.1513 85.6546C95.1513 86.2659 95.6494 86.7602 96.2607 86.7602H118.563C119.174 86.7602 119.672 86.2659 119.672 85.6546C119.672 85.0433 119.174 84.5451 118.563 84.5451ZM88.5097 94.5829H80.6871V86.7602H88.5097V94.5829ZM90.7248 86.6885C90.7248 85.5074 89.7626 84.5451 88.5852 84.5451H80.6116C79.4343 84.5451 78.472 85.5074 78.472 86.6885V94.6583C78.472 95.8394 79.4343 96.798 80.6116 96.798H88.5852C89.7626 96.798 90.7248 95.8394 90.7248 94.6583V86.6885ZM88.5097 127.945H80.6871V120.123H88.5097V127.945ZM88.5852 117.907H80.6116C79.4343 117.907 78.472 118.866 78.472 120.047V128.017C78.472 129.198 79.4343 130.156 80.6116 130.156H88.5852C89.7626 130.156 90.7248 129.198 90.7248 128.017V120.047C90.7248 118.866 89.7626 117.907 88.5852 117.907ZM112.227 80.2622C110.393 80.2622 108.906 78.7754 108.906 76.9414V65.8546L123.314 80.2622H112.227ZM125.989 105.206C126.6 105.206 127.095 104.711 127.095 104.1V81.3715C127.091 81.1451 127.015 80.8207 126.77 80.5867L108.581 62.398C108.397 62.232 108.163 62.0735 107.797 62.0735H77.1701C74.1173 62.0735 71.6343 64.5564 71.6343 67.6093V132.115C71.6343 135.168 74.1173 137.651 77.1701 137.651H121.559C124.612 137.651 127.095 135.168 127.095 132.115V109.266C127.095 108.655 126.6 108.16 125.989 108.16C125.378 108.16 124.88 108.655 124.88 109.266V132.115C124.88 133.945 123.389 135.436 121.559 135.436H77.1701C75.3362 135.436 73.8494 133.945 73.8494 132.115V67.6093C73.8494 65.7753 75.3362 64.2886 77.1701 64.2886H106.691V68.7149H81.0569C79.6305 68.7149 78.472 69.8735 78.472 71.2999V76.6848C78.472 78.1113 79.6305 79.2697 81.0569 79.2697H102.853C103.464 79.2697 103.959 78.7754 103.959 78.1641C103.959 77.5528 103.464 77.0546 102.853 77.0546H81.0569C80.8532 77.0546 80.6871 76.8886 80.6871 76.6848V71.2999C80.6871 71.0962 80.8532 70.93 81.0569 70.93H106.691V76.9414C106.691 79.9942 109.174 82.4772 112.227 82.4772H124.88V104.1C124.88 104.711 125.378 105.206 125.989 105.206ZM118.563 101.228H96.2607C95.6494 101.228 95.1513 101.723 95.1513 102.334C95.1513 102.945 95.6494 103.44 96.2607 103.44H118.563C119.174 103.44 119.672 102.945 119.672 102.334C119.672 101.723 119.174 101.228 118.563 101.228ZM118.563 117.907H96.2607C95.6494 117.907 95.1513 118.402 95.1513 119.013C95.1513 119.624 95.6494 120.123 96.2607 120.123H118.563C119.174 120.123 119.672 119.624 119.672 119.013C119.672 118.402 119.174 117.907 118.563 117.907ZM118.563 122.334H96.2607C95.6494 122.334 95.1513 122.832 95.1513 123.443C95.1513 124.055 95.6494 124.549 96.2607 124.549H118.563C119.174 124.549 119.672 124.055 119.672 123.443C119.672 122.832 119.174 122.334 118.563 122.334ZM118.563 105.655H96.2607C95.6494 105.655 95.1513 106.149 95.1513 106.76C95.1513 107.372 95.6494 107.87 96.2607 107.87H118.563C119.174 107.87 119.672 107.372 119.672 106.76C119.672 106.149 119.174 105.655 118.563 105.655Z" fill="white"/>
</svg>
