<svg width="200" height="201" viewBox="0 0 200 201" fill="none" xmlns="http://www.w3.org/2000/svg">
<path d="M99.3553 99.8699V180.259C54.9553 180.259 18.9629 144.27 18.9629 99.8699H99.3553Z" stroke="#16A0FF" stroke-miterlimit="10"/>
<path d="M179.763 99.8697H99.3555V19.4622C143.771 19.4622 179.763 55.4697 179.763 99.8697Z" stroke="#16A0FF" stroke-miterlimit="10"/>
<path d="M169.688 101.183C169.688 139.753 138.423 171.017 99.8535 171.017C61.2837 171.017 30.0196 139.753 30.0196 101.183C30.0196 62.6133 61.2837 31.3492 99.8535 31.3492C138.423 31.3492 169.688 62.6133 169.688 101.183Z" fill="#16A0FF"/>
<path d="M30.0196 101.183C30.0196 62.6149 61.2853 31.3492 99.8535 31.3492C138.422 31.3492 169.688 62.6149 169.688 101.183C169.688 139.751 138.422 171.017 99.8535 171.017C61.2853 171.017 30.0196 139.751 30.0196 101.183Z" stroke="white" stroke-miterlimit="10"/>
<path d="M130.265 131.957C130.907 131.957 131.552 131.953 132.194 131.957C132.529 131.96 132.718 131.87 132.48 131.515C131.839 130.549 131.194 129.587 130.552 128.625C130.333 128.3 130.145 128.402 129.967 128.67C129.341 129.613 128.714 130.553 128.084 131.496C127.873 131.813 127.952 131.96 128.337 131.957C128.979 131.953 129.624 131.957 130.265 131.957ZM110.567 85.085C109.401 85.085 109.401 85.085 109.469 86.2359C109.473 86.3114 109.48 86.3906 109.484 86.4661C109.729 90.4397 109.986 94.4133 110.213 98.3868C110.299 99.9076 110.028 99.7944 111.711 99.8208C112.28 99.8321 112.48 99.6586 112.439 99.0661C112.311 97.2472 112.243 95.4246 112.145 93.6019C112.009 91.1152 111.88 88.6284 111.726 86.1416C111.662 85.0812 111.635 85.085 110.567 85.085ZM106.371 99.8133H106.68C107.65 99.8095 107.624 99.8133 107.563 98.8397C107.428 96.685 107.329 94.5265 107.201 92.368C107.073 90.1869 106.914 88.0057 106.797 85.8246C106.767 85.2699 106.571 85.0585 106.001 85.0736C104.296 85.1152 104.511 84.9076 104.518 86.5491C104.518 86.7038 104.529 86.8585 104.537 87.0133C104.733 90.8661 104.945 94.7189 105.126 98.5755C105.182 99.8095 105.152 99.8133 106.371 99.8133ZM73.4578 100.715C73.4578 101.821 73.4767 102.93 73.4502 104.036C73.4352 104.553 73.5936 104.779 74.1484 104.768C75.3068 104.738 76.4653 104.742 77.6238 104.764C78.1219 104.776 78.3031 104.594 78.2993 104.093C78.2842 101.877 78.2842 99.6661 78.2993 97.451C78.3031 97.0472 78.1521 96.7944 77.8276 96.5604C75.9031 95.1793 75.9069 95.1718 73.9748 96.534C73.9559 96.5491 73.937 96.568 73.9144 96.5793C73.5484 96.768 73.4427 97.0736 73.4502 97.4736C73.4691 98.5529 73.4578 99.6359 73.4578 100.715ZM133.492 128.059C133.382 126.606 133.273 125.225 133.171 123.843C132.948 120.923 132.737 118.002 132.511 115.081C132.224 111.394 131.903 107.708 131.643 104.017C131.518 102.266 131.552 102.262 129.801 102.387C129.401 102.417 129.273 102.526 129.314 102.949C129.579 105.451 129.809 107.96 130.058 110.466C130.45 114.425 130.922 118.383 131.22 122.349C131.382 124.493 131.816 126.447 133.492 128.059ZM93.2352 67.8774C93.2729 68.134 93.4993 68.2435 93.6502 68.4019C95.8276 70.6472 96.9748 73.3076 96.9484 76.4548C96.937 78.2321 96.9597 80.0057 96.9408 81.7793C96.9333 82.2963 97.0804 82.5265 97.6389 82.5114C98.7936 82.4812 99.9521 82.4925 101.107 82.5076C101.529 82.5114 101.801 82.4246 101.786 81.9189C101.729 79.6321 101.899 77.3453 101.643 75.0623C101.197 71.0925 97.171 67.6397 93.2352 67.8774ZM85.9106 67.7793C85.405 67.8321 85.1257 67.8661 84.8502 67.8887C80.8993 68.2548 77.6616 71.4925 77.2767 75.4208C77.0691 77.5755 77.2276 79.734 77.1635 81.8925C77.1484 82.3755 77.371 82.5152 77.8163 82.5076C78.9484 82.4925 80.0804 82.4774 81.2087 82.5152C81.8087 82.534 82.0276 82.3491 82.0163 81.7265C81.9823 79.8774 82.0087 78.0246 82.005 76.1755C82.0012 74.2246 82.537 72.4246 83.4993 70.7416C84.1031 69.685 84.8993 68.7869 85.9106 67.7793ZM126.352 129.342C127.065 128.274 127.616 127.345 128.269 126.493C128.824 125.776 128.896 125.028 128.801 124.176C128.439 120.828 128.107 117.477 127.767 114.13C127.42 110.677 127.088 107.225 126.718 103.776C126.567 102.36 126.533 102.391 125.065 102.383C124.446 102.379 124.265 102.572 124.318 103.194C124.68 107.496 125.024 111.802 125.356 116.104C125.692 120.436 126.009 124.768 126.352 129.342ZM89.5446 82.5038C90.9106 82.5038 92.2767 82.4887 93.6389 82.5114C94.1559 82.5189 94.3823 82.3718 94.3748 81.8133C94.3484 80.0133 94.4201 78.2057 94.3521 76.4057C94.2314 73.2359 92.8918 70.7227 90.1521 69.0208C89.7559 68.7718 89.3974 68.6548 88.9408 68.9302C86.5484 70.3793 85.0918 72.4585 84.7182 75.2435C84.4238 77.4472 84.6502 79.6661 84.5785 81.8774C84.5597 82.4246 84.8427 82.5114 85.2993 82.5076C86.7144 82.4925 88.1295 82.5038 89.5446 82.5038ZM109.265 131.957C113.873 131.957 118.48 131.949 123.088 131.968C123.741 131.972 123.929 131.779 123.865 131.119C123.643 128.764 123.465 126.406 123.288 124.047C123.062 121.074 122.85 118.1 122.624 115.126C122.329 111.255 122.02 107.387 121.733 103.515C121.654 102.447 121.631 102.394 120.563 102.394H98.0163C96.8465 102.394 96.8616 102.413 96.7785 103.606C96.5748 106.632 96.3408 109.659 96.1106 112.685C95.8238 116.425 95.5257 120.168 95.2352 123.908C95.0502 126.266 94.8842 128.625 94.6804 130.979C94.5974 131.911 94.5974 131.957 95.5182 131.957C100.099 131.96 104.684 131.957 109.265 131.957ZM85.8201 85.085C83.2201 85.085 80.6201 85.0963 78.0201 85.0736C77.4125 85.0661 77.1408 85.2019 77.1521 85.8812C77.1899 88.017 77.1823 90.1567 77.1559 92.2925C77.1484 92.7982 77.337 93.1001 77.7484 93.3567C78.5559 93.8623 79.337 94.4095 80.1295 94.9378C80.6427 95.2774 80.8842 95.7302 80.8804 96.3642C80.8653 99.5302 80.8804 102.696 80.8691 105.866C80.8653 106.874 80.4125 107.33 79.4012 107.334C77.0578 107.345 74.7144 107.345 72.371 107.334C71.3182 107.33 70.8804 106.885 70.8804 105.813C70.8729 102.67 70.888 99.5302 70.8691 96.3869C70.8653 95.7227 71.1219 95.2585 71.6616 94.9076C72.4616 94.3906 73.2427 93.8397 74.0465 93.3302C74.4352 93.085 74.5974 92.7906 74.5936 92.3189C74.571 90.1567 74.571 87.9944 74.5936 85.8321C74.6012 85.2548 74.4087 85.0661 73.8351 85.0736C71.9068 85.1001 69.9748 85.1076 68.0427 85.0736C67.4276 85.0623 67.2502 85.2812 67.2238 85.8699C67.0918 89.0057 66.9219 92.1416 66.7635 95.2736C66.4616 101.315 66.1559 107.353 65.854 113.391C65.737 115.677 65.6238 117.964 65.5069 120.251C65.3182 123.9 65.137 127.549 64.937 131.194C64.9068 131.757 65.088 131.968 65.6729 131.968C74.1748 131.953 82.6729 131.953 91.171 131.968C91.7785 131.972 92.0087 131.73 92.0389 131.172C92.0918 130.3 92.1521 129.425 92.2163 128.553C92.4389 125.579 92.6578 122.602 92.888 119.628C93.1748 115.911 93.4729 112.194 93.7597 108.474C93.9408 106.142 94.0804 103.806 94.2993 101.474C94.4314 100.077 94.7861 99.8133 96.1823 99.8133C98.0616 99.8095 99.9408 99.7982 101.82 99.8208C102.394 99.8284 102.59 99.6548 102.548 99.0623C102.42 97.2397 102.352 95.4133 102.254 93.5906C102.111 90.9718 101.952 88.3529 101.828 85.7302C101.801 85.2208 101.59 85.0699 101.111 85.0774C99.9521 85.1001 98.7899 85.1076 97.6352 85.0736C97.0691 85.0585 96.9257 85.3038 96.9408 85.817C96.9672 86.7416 96.9559 87.6699 96.9446 88.5982C96.9295 89.4887 96.4427 90.017 95.6653 90.0208C94.888 90.0284 94.3861 89.5001 94.371 88.617C94.3559 87.7152 94.3333 86.8133 94.3785 85.9152C94.4087 85.2774 94.1936 85.0623 93.5484 85.0699C90.971 85.1038 88.3974 85.085 85.8201 85.085ZM99.3672 134.538H64.1333C62.5182 134.538 62.1635 134.213 62.2389 132.579C62.4653 127.67 62.7333 122.76 62.9823 117.855C63.0918 115.643 63.1974 113.432 63.3069 111.221C63.5597 106.209 63.8163 101.202 64.0653 96.1906C64.2389 92.6661 64.3899 89.1453 64.5597 85.6246C64.5861 85.0321 64.6238 84.4435 64.688 83.8548C64.7936 82.8736 65.2012 82.5114 66.2087 82.5076C68.6276 82.5001 71.0502 82.5038 73.4729 82.5038C74.5823 82.5038 74.5823 82.5038 74.5861 81.4284C74.5861 79.6736 74.5785 77.9227 74.5861 76.1718C74.6201 70.168 79.5823 65.217 85.5861 65.1944C86.3068 65.1944 87.0465 65.1227 87.7333 65.3604C88.9257 65.7718 90.0653 65.5831 91.2691 65.3642C98.1068 64.1227 104.333 69.3529 104.363 76.3038C104.371 78.1076 104.386 79.9114 104.356 81.7114C104.345 82.3152 104.533 82.5227 105.148 82.5152C107.646 82.4887 110.145 82.5001 112.643 82.5038C113.79 82.5076 114.186 82.8284 114.269 83.9869C114.439 86.4246 114.567 88.8661 114.688 91.3076C114.816 93.8774 114.933 96.4472 115.016 99.0208C115.039 99.6925 115.348 99.8208 115.937 99.8208C121.345 99.8057 126.756 99.8133 132.163 99.8133C133.643 99.8133 133.99 100.077 134.118 101.568C134.379 104.542 134.571 107.519 134.801 110.493C135.088 114.213 135.386 117.93 135.673 121.647C135.899 124.598 136.118 127.549 136.341 130.496C136.397 131.243 136.473 131.987 136.496 132.73C136.545 134.145 136.16 134.538 134.756 134.538H99.3672Z" fill="white"/>
<path d="M116.727 113.851C116.727 115.421 116.738 116.994 116.723 118.564C116.689 121.881 113.976 124.602 110.666 124.643C109.791 124.651 108.915 124.651 108.036 124.643C104.478 124.621 101.798 121.938 101.787 118.368C101.776 115.149 101.78 111.93 101.791 108.711C101.791 107.689 102.436 107.096 103.323 107.251C103.987 107.368 104.361 107.885 104.361 108.745C104.368 111.836 104.361 114.926 104.368 118.017C104.368 119.134 104.644 120.157 105.466 120.975C107.044 122.545 111.429 122.56 113.025 120.998C113.874 120.168 114.146 119.119 114.146 117.975C114.149 115.115 114.149 112.255 114.149 109.398C114.149 109.164 114.146 108.934 114.149 108.704C114.172 107.76 114.655 107.225 115.463 107.236C116.236 107.247 116.719 107.775 116.723 108.674C116.738 110.398 116.727 112.126 116.727 113.851Z" fill="white"/>
</svg>
