<svg width="200" height="200" viewBox="0 0 200 200" fill="none" xmlns="http://www.w3.org/2000/svg">
<path d="M99.3593 99.3699V179.762C54.9593 179.762 18.9668 143.77 18.9668 99.3699H99.3593Z" stroke="#2653E0" stroke-miterlimit="10"/>
<path d="M179.767 99.37H99.3594V18.9624C143.774 18.9624 179.767 54.97 179.767 99.37Z" stroke="#2653E0" stroke-miterlimit="10"/>
<path d="M169.691 100.687C169.691 139.257 138.427 170.521 99.8574 170.521C61.2876 170.521 30.0235 139.257 30.0235 100.687C30.0235 62.1172 61.2876 30.8531 99.8574 30.8531C138.427 30.8531 169.691 62.1172 169.691 100.687Z" fill="#2653E0"/>
<path d="M30.0235 100.687C30.0235 62.1188 61.2892 30.8531 99.8574 30.8531C138.426 30.8531 169.691 62.1188 169.691 100.687C169.691 139.255 138.426 170.521 99.8574 170.521C61.2892 170.521 30.0235 139.255 30.0235 100.687Z" stroke="white" stroke-miterlimit="10"/>
<path d="M135.947 71.7549C135.033 73.9436 133.415 76.3436 131.335 78.6266L125.158 72.4492C127.441 70.37 129.841 68.7511 132.03 67.8379C134.022 67.0077 135.705 66.8643 136.313 67.4719C136.924 68.0794 136.781 69.7624 135.947 71.7549ZM121.256 85.8417C119.43 86.4379 118.339 86.2568 117.932 85.853C117.426 85.3436 117.441 84.0907 117.943 82.5323C118.679 82.804 119.369 83.2341 119.962 83.8266C120.543 84.4077 120.981 85.0945 121.256 85.8417ZM115.973 93.4455C114.471 93.4455 113.056 92.8606 111.992 91.7964C110.928 90.7323 110.339 89.3172 110.339 87.8115C110.339 86.3058 110.924 84.8907 111.992 83.8266C112.762 83.053 113.705 82.5549 114.701 82.3247C114.067 84.7964 114.4 86.8077 115.686 88.0983C116.554 88.9662 117.747 89.4002 119.184 89.4002C119.886 89.4002 120.652 89.2945 121.464 89.087C121.23 90.1021 120.717 91.0379 119.962 91.7964C118.894 92.8606 117.479 93.4455 115.973 93.4455ZM138.558 65.2266C136.943 63.6077 134.188 63.4945 130.807 64.9058C128.256 65.9738 125.494 67.8304 122.909 70.204C122.769 70.0643 122.633 69.9247 122.494 69.7851C122.181 69.4832 121.769 69.3134 121.332 69.3172L97.8109 69.8153C97.3995 69.8228 97.0108 69.9889 96.7203 70.2794L88.5807 78.419C87.9618 79.0379 87.9618 80.0455 88.5807 80.6643C89.2033 81.2832 90.2071 81.2832 90.8259 80.6643L98.5165 72.9775L120.607 72.5096C118.671 74.6266 117.086 76.8643 115.996 79.004C113.732 79.0002 111.467 79.8568 109.747 81.5813C108.083 83.2455 107.166 85.4568 107.166 87.8115C107.166 90.1624 108.079 92.3775 109.747 94.0417C111.407 95.7058 113.622 96.6228 115.977 96.6228C118.328 96.6228 120.543 95.7058 122.207 94.0417C123.871 92.3775 124.784 90.1624 124.784 87.8115C124.784 87.419 124.758 87.0304 124.709 86.6492C124.709 86.6417 124.705 86.6379 124.705 86.6304C124.452 84.7247 123.588 82.9624 122.207 81.5813C121.335 80.7134 120.332 80.0643 119.26 79.6341C120.181 78.0077 121.43 76.3247 122.913 74.6983L131.279 83.0643L130.811 105.272L95.0033 141.076L62.709 108.781L81.7882 89.7021C82.4071 89.0832 82.4071 88.0757 81.7882 87.4568C81.1693 86.8379 80.1618 86.8379 79.5429 87.4568L59.3391 107.661C59.041 107.959 58.875 108.359 58.875 108.781C58.875 109.204 59.041 109.608 59.3391 109.906L93.8825 144.445C94.192 144.755 94.5958 144.91 95.0033 144.91C95.4108 144.91 95.8184 144.755 96.1278 144.445L133.505 107.064C133.796 106.778 133.962 106.385 133.973 105.974L134.467 82.453C134.475 82.019 134.309 81.6002 134.003 81.2945L133.584 80.8757C135.954 78.2945 137.811 75.5323 138.879 72.9775C140.29 69.5964 140.177 66.8417 138.558 65.2266Z" fill="white"/>
<path d="M93.5336 105.438C93.1336 104.174 93.3412 102.827 94.0997 101.74C94.9072 100.578 96.1978 99.8719 97.6431 99.804C98.7902 99.7474 99.9185 100.057 100.873 100.664L94.4053 107.136C94.0053 106.574 93.7148 106.008 93.5336 105.438ZM95.0921 113.51C95.4921 114.77 95.2846 116.121 94.5261 117.208C93.7185 118.37 92.428 119.076 90.9827 119.144C89.8355 119.2 88.7034 118.891 87.7525 118.279L94.2204 111.812C94.6167 112.374 94.911 112.94 95.0921 113.51ZM84.5751 107.502C82.9374 109.14 82.0317 111.321 82.0317 113.642C82.0317 115.279 82.4884 116.849 83.3299 118.208L81.76 119.778C81.1412 120.4 81.1412 121.404 81.76 122.023C82.0733 122.336 82.477 122.491 82.8846 122.491C83.2921 122.491 83.6959 122.336 84.0091 122.023L85.4733 120.559C86.9751 121.698 88.8242 122.325 90.7223 122.325C90.8582 122.325 90.9978 122.321 91.1336 122.317C93.5676 122.2 95.7563 121 97.1336 119.023C98.4582 117.121 98.8167 114.762 98.1185 112.551C97.7902 111.513 97.2468 110.506 96.4921 109.54L102.949 103.083C103.254 103.774 103.417 104.528 103.417 105.306C103.417 106.778 102.843 108.159 101.802 109.2C101.183 109.819 101.183 110.827 101.802 111.445C102.42 112.068 103.428 112.068 104.047 111.445C105.688 109.808 106.59 107.627 106.59 105.306C106.59 103.664 106.137 102.098 105.296 100.736L106.866 99.1662C107.485 98.5474 107.485 97.5436 106.866 96.9209C106.243 96.3021 105.239 96.3021 104.617 96.9209L103.153 98.3889C101.541 97.1662 99.5336 96.5323 97.4921 96.6304C95.0544 96.7474 92.8695 97.9474 91.4921 99.9247C90.1676 101.827 89.8091 104.185 90.5072 106.396C90.8317 107.434 91.3789 108.442 92.1336 109.404L85.677 115.864C85.3714 115.174 85.2091 114.419 85.2091 113.642C85.2091 112.17 85.7827 110.785 86.8242 109.747C87.4431 109.125 87.4431 108.121 86.8242 107.502C86.2016 106.879 85.1978 106.879 84.5751 107.502Z" fill="white"/>
</svg>
