<svg width="200" height="201" viewBox="0 0 200 201" fill="none" xmlns="http://www.w3.org/2000/svg">
<path d="M99.3544 99.8696V180.262C54.9544 180.262 18.9619 144.27 18.9619 99.8696H99.3544Z" stroke="#F06BBC" stroke-miterlimit="10"/>
<path d="M179.762 99.866H99.3545V19.4585C143.77 19.4585 179.762 55.466 179.762 99.866Z" stroke="#F06BBC" stroke-miterlimit="10"/>
<path d="M169.197 99.8584C169.197 138.428 137.933 169.692 99.3633 169.692C60.7935 169.692 29.5293 138.428 29.5293 99.8584C29.5293 61.2886 60.7935 30.0245 99.3633 30.0245C137.933 30.0245 169.197 61.2886 169.197 99.8584Z" fill="#F06BBC"/>
<path d="M29.5293 99.8584C29.5293 61.2902 60.7951 30.0245 99.3633 30.0245C137.932 30.0245 169.197 61.2902 169.197 99.8584C169.197 138.427 137.932 169.692 99.3633 169.692C60.7951 169.692 29.5293 138.427 29.5293 99.8584Z" stroke="white" stroke-miterlimit="10"/>
<path d="M89.2006 90.4282C88.3251 90.4282 87.4534 90.4358 86.578 90.4244C86.1327 90.4207 85.8799 90.5641 85.8874 91.0622C85.9063 91.9075 85.895 92.7565 85.8912 93.6056C85.8912 93.9188 85.9516 94.2207 86.3365 94.2282C87.6346 94.2509 88.9516 94.4131 90.2233 94.1716C92.2044 93.7943 92.5289 93.2509 92.51 91.232C92.5063 90.5942 92.2648 90.3942 91.6648 90.4169C90.8421 90.4508 90.0233 90.4282 89.2006 90.4282ZM100.167 133.119C100.178 132.187 99.7704 131.534 99.027 131.221C98.2421 130.892 97.3629 131.077 96.7931 131.757C96.0459 132.647 95.3251 133.564 94.6195 134.489C93.8534 135.489 93.9704 136.7 94.8572 137.383C95.6987 138.028 96.9138 137.836 97.6723 136.911C98.3402 136.092 98.9893 135.255 99.6459 134.424C99.9629 134.021 100.204 133.587 100.167 133.119ZM95.6912 127.7C95.6685 126.885 95.295 126.285 94.544 125.953C93.7667 125.609 92.8761 125.783 92.3063 126.47C91.2723 127.715 90.2723 128.987 89.2836 130.266C88.495 131.289 88.6006 132.455 89.5025 133.157C90.3817 133.843 91.5591 133.651 92.3704 132.647C93.3214 131.47 94.2421 130.273 95.178 129.085C95.495 128.681 95.7251 128.24 95.6912 127.7ZM85.0308 119.451C85.0006 118.428 84.6308 117.832 83.8685 117.507C83.061 117.164 82.1817 117.36 81.5704 118.104C80.5402 119.349 79.5365 120.621 78.5591 121.907C77.8157 122.889 77.9591 124.047 78.8497 124.734C79.6836 125.375 80.861 125.224 81.6082 124.319C82.6006 123.111 83.5591 121.873 84.5251 120.643C84.8421 120.236 85.061 119.787 85.0308 119.451ZM83.4572 127.311C83.4534 128.266 83.91 128.941 84.7063 129.232C85.5063 129.526 86.295 129.319 86.9063 128.568C88.1629 127.024 89.3968 125.462 90.6195 123.892C91.4421 122.836 91.3629 121.719 90.461 120.994C89.5704 120.281 88.4157 120.443 87.5931 121.458C86.3553 122.983 85.1553 124.534 83.9327 126.073C83.627 126.462 83.4308 126.885 83.4572 127.311ZM137.408 108.749C137.408 105.643 137.393 102.541 137.419 99.4395C137.423 98.798 137.238 98.5188 136.563 98.5603C135.876 98.6056 135.182 98.6131 134.499 98.5603C133.744 98.5037 133.48 98.7641 133.487 99.5414C133.521 102.855 133.502 106.172 133.502 109.485C133.502 112.296 133.514 115.107 133.495 117.919C133.487 118.53 133.687 118.787 134.321 118.753C135.035 118.715 135.755 118.704 136.465 118.757C137.189 118.809 137.431 118.56 137.423 117.817C137.386 114.794 137.408 111.772 137.408 108.749ZM61.3742 108.572C61.3742 111.7 61.3855 114.828 61.3667 117.957C61.3629 118.534 61.5402 118.783 62.1402 118.753C62.8534 118.715 63.5742 118.704 64.2874 118.757C65.0383 118.813 65.3025 118.553 65.295 117.775C65.261 114.436 65.2799 111.092 65.2799 107.753C65.2799 104.968 65.2685 102.183 65.2874 99.4018C65.295 98.7867 65.0912 98.5301 64.461 98.5641C63.7478 98.6018 63.027 98.6093 62.3138 98.5603C61.5893 98.5075 61.3516 98.7603 61.3591 99.5037C61.3968 102.526 61.3742 105.549 61.3742 108.572ZM99.4119 61.8018C97.4459 61.8018 95.4799 61.8169 93.5176 61.7942C92.9478 61.7867 92.7025 61.9565 92.7063 62.5603C92.7251 66.0659 92.71 69.5716 92.7214 73.0735C92.7214 73.8546 92.8723 73.9339 93.5591 73.5263C95.1327 72.5942 96.71 71.6622 98.261 70.6886C99.027 70.2131 99.7176 70.1905 100.487 70.6659C102.023 71.6207 103.578 72.5339 105.129 73.4584C105.955 73.9527 106.065 73.8999 106.065 72.9527C106.069 69.5301 106.05 66.1037 106.08 62.6773C106.087 61.9565 105.816 61.7792 105.144 61.7905C103.235 61.8244 101.321 61.8018 99.4119 61.8018ZM130.574 108.723V102.353C130.574 101.289 130.57 101.285 129.529 101.285C124.831 101.285 120.133 101.277 115.435 101.292C114.484 101.292 113.604 101.092 112.755 100.662C109.989 99.2584 107.212 97.8659 104.431 96.4848C102.189 95.3716 100.163 95.7188 98.4233 97.5225C96.6685 99.3376 94.9365 101.168 93.1968 102.99C92.3176 103.915 91.4308 104.828 90.5704 105.772C89.9214 106.481 89.827 107.507 90.2799 108.281C90.6987 108.998 91.5025 109.334 92.4119 109.172C92.9968 109.07 93.3931 108.673 93.8006 108.292C95.9629 106.289 98.1251 104.289 100.28 102.281C101.046 101.564 101.94 101.379 102.936 101.587C103.552 101.715 104.027 102.115 104.518 102.481C110.804 107.187 117.129 111.851 123.186 116.858C123.661 117.251 124.069 117.3 124.631 117.123C126.25 116.598 127.914 116.262 129.616 116.175C130.287 116.145 130.608 115.926 130.589 115.172C130.544 113.021 130.574 110.87 130.574 108.723ZM68.2082 108.689V115.375C68.2082 115.76 68.2006 116.119 68.7402 116.179C71.578 116.492 74.3176 117.213 76.9591 118.292C77.3704 118.458 77.6534 118.413 77.9214 118.047C78.2761 117.553 78.6799 117.092 79.0459 116.602C81.71 113.036 86.3478 114.304 87.5176 117.323C87.6534 117.673 87.8648 117.821 88.2534 117.726C90.7667 117.104 93.7968 118.753 94.1176 122.164C94.1666 122.677 94.3742 122.889 94.8534 123.024C97.1138 123.655 98.344 125.1 98.6006 127.428C98.6497 127.87 98.7365 128.149 99.227 128.285C102.238 129.123 103.574 131.357 102.88 134.394C102.789 134.79 102.846 135.055 103.144 135.307C103.929 135.983 104.687 136.689 105.491 137.341C106.227 137.938 107.389 137.866 108.05 137.236C108.71 136.609 108.816 135.572 108.306 134.753C107.552 133.545 107.506 133.013 108.11 132.424C108.71 131.843 109.212 131.896 110.45 132.643C111.118 133.051 111.819 133.066 112.495 132.692C113.159 132.326 113.423 131.719 113.404 130.96C113.393 130.421 113.155 130.009 112.838 129.598C112.299 128.892 112.325 128.209 112.857 127.651C113.393 127.092 114.08 127.047 114.804 127.526C114.959 127.628 115.103 127.753 115.261 127.847C116.435 128.572 117.857 127.979 118.204 126.64C118.416 125.836 117.989 125.273 117.582 124.674C117.163 124.062 117.227 123.319 117.691 122.843C118.193 122.323 118.925 122.258 119.582 122.677C119.759 122.79 119.918 122.938 120.099 123.047C120.978 123.587 122.05 123.398 122.665 122.602C123.299 121.779 123.231 120.73 122.465 120.017C121.997 119.583 121.502 119.179 121.008 118.779C115.155 114.021 109.095 109.538 103.084 104.987C102.37 104.447 101.974 104.526 101.363 105.119C99.3893 107.051 97.378 108.941 95.3289 110.79C93.427 112.515 90.8534 112.587 88.9138 111.062C86.627 109.262 86.4346 105.941 88.5138 103.738C90.7516 101.36 93.0119 99.0018 95.2572 96.632C95.4119 96.4659 95.7327 96.3225 95.6346 96.0773C95.5251 95.7942 95.1742 95.8961 94.9176 95.8773C93.9931 95.8018 93.1365 96.0169 92.31 96.4358C89.5629 97.8282 86.8044 99.198 84.061 100.59C83.1176 101.07 82.1402 101.3 81.0761 101.296C77.1478 101.27 73.2195 101.285 69.2874 101.285C68.2119 101.285 68.2082 101.289 68.2082 102.394V108.689ZM84.7025 97.0131C83.6119 96.3339 83.0082 95.4886 82.978 94.3414C82.9402 92.9905 82.9176 91.632 82.9817 90.281C83.061 88.6282 84.2421 87.5226 85.8799 87.5075C88.11 87.4886 90.3402 87.4886 92.5704 87.5075C93.944 87.5226 94.9516 88.3339 95.31 89.632C95.51 90.3641 95.4685 91.115 95.4157 91.8471C95.3591 92.6622 95.5516 93.1376 96.4572 93.2282C96.9176 93.2773 97.3742 93.4886 97.8082 93.6848C98.1553 93.8395 98.4497 93.832 98.7893 93.6735C101.178 92.5603 103.514 92.7376 105.827 93.9414C107.97 95.0546 110.174 96.0622 112.28 97.2395C113.819 98.0999 115.389 98.5075 117.14 98.3641C118.084 98.2848 118.25 98.1942 118.306 97.2622C118.321 97.0244 118.318 96.7829 118.318 96.5452V65.0018C118.318 62.8018 117.329 61.8169 115.099 61.8056C113.37 61.7942 111.646 61.8358 109.921 61.7867C109.17 61.7641 108.974 62.0207 108.982 62.7414C109.012 66.2999 108.989 69.8584 109.001 73.4169C109.004 74.6848 108.57 75.715 107.446 76.3527C106.299 77.0056 105.167 76.881 104.057 76.1942C102.703 75.3603 101.318 74.5678 99.9667 73.7225C99.544 73.4584 99.227 73.4697 98.8119 73.7301C97.5063 74.5452 96.1629 75.2999 94.861 76.1188C93.71 76.8433 92.544 77.0471 91.3327 76.3527C90.1402 75.6735 89.7704 74.5754 89.778 73.2546C89.8044 69.7263 89.7742 66.1942 89.7968 62.6622C89.8044 62.0131 89.6082 61.7754 88.9402 61.7905C87.1629 61.8282 85.3817 61.8169 83.6044 61.798C81.6346 61.7829 80.427 62.9225 80.4384 65.0056C80.495 75.5188 80.4648 86.032 80.4648 96.5452C80.4648 96.8622 80.4685 97.1829 80.495 97.4999C80.544 98.0961 80.8346 98.398 81.4836 98.3565C82.6799 98.2773 83.544 97.5037 84.7025 97.0131ZM140.178 119.734C139.499 121.183 138.344 121.772 136.767 121.689C135.733 121.636 134.695 121.689 133.661 121.673C132.095 121.655 131.186 121.021 130.68 119.538C130.529 119.096 130.333 118.979 129.869 119.04C128.714 119.19 127.559 119.345 126.419 119.609C125.944 119.723 125.778 119.885 125.872 120.424C126.37 123.24 124.778 125.557 121.944 126.175C121.419 126.292 121.148 126.47 121.069 127.085C120.819 128.987 119.291 130.541 117.321 130.941C116.684 131.073 116.374 131.266 116.227 131.99C115.808 134.062 114.457 135.338 112.401 135.787C111.835 135.907 111.589 136.07 111.469 136.689C110.736 140.47 106.453 141.949 103.506 139.47C102.835 138.907 102.163 138.341 101.536 137.73C101.133 137.338 100.91 137.424 100.616 137.843C99.8044 138.979 98.9138 140.017 97.5025 140.455C94.9667 141.243 92.2761 139.889 91.4497 137.33C91.261 136.738 91.0119 136.511 90.3667 136.447C88.1025 136.221 86.6044 134.983 85.9931 132.764C85.8761 132.341 85.6761 132.236 85.2761 132.213C82.9251 132.081 81.3893 130.907 80.7025 128.707C80.5667 128.27 80.3855 128.058 79.8874 128.036C76.4233 127.9 74.3516 124.443 75.5251 121.462C75.6874 121.047 75.627 120.851 75.1893 120.692C73.1365 119.949 71.0497 119.368 68.8761 119.1C68.4157 119.043 68.227 119.149 68.0799 119.594C67.627 120.964 66.6685 121.647 65.2157 121.673C63.9667 121.692 62.7176 121.696 61.4723 121.673C59.6912 121.64 58.5516 120.481 58.5516 118.696C58.544 112.006 58.544 105.315 58.5516 98.6244C58.5516 96.8169 59.6685 95.6735 61.461 95.6433C62.7327 95.6207 64.0082 95.6244 65.2836 95.6433C66.6799 95.6622 67.6459 96.3603 68.0761 97.6999C68.2346 98.1905 68.4723 98.3641 68.9817 98.3603C71.6346 98.3376 74.2912 98.3414 76.944 98.3565C77.5025 98.3603 77.7176 98.2056 77.5893 97.6131C77.4987 97.2056 77.5327 96.7678 77.5327 96.3414C77.5289 85.9867 77.5289 75.6358 77.5327 65.281C77.5327 61.8886 78.7025 60.2018 81.8648 59.032H116.918C120.087 60.2093 121.25 61.8886 121.25 65.281C121.253 75.6131 121.253 85.9414 121.25 96.2697C121.25 96.6961 121.299 97.1376 121.201 97.5414C121.038 98.2244 121.303 98.3641 121.925 98.3603C124.529 98.3376 127.129 98.3414 129.733 98.3603C130.253 98.3641 130.54 98.2358 130.71 97.6886C131.129 96.3527 132.106 95.6659 133.51 95.6433C134.601 95.6244 135.691 95.681 136.774 95.6282C138.352 95.5527 139.514 96.115 140.178 97.5867V119.734Z" fill="white"/>
</svg>
