<svg width="200" height="200" viewBox="0 0 200 200" fill="none" xmlns="http://www.w3.org/2000/svg">
<path d="M99.3588 99.3696V179.762C54.9588 179.762 18.9663 143.77 18.9663 99.3696H99.3588Z" fill="white" stroke="#2653E0" stroke-miterlimit="10"/>
<path d="M179.766 99.3697H99.3584V18.9622C143.773 18.9622 179.766 54.9697 179.766 99.3697Z" fill="white" stroke="#2653E0" stroke-miterlimit="10"/>
<path d="M169.691 100.683C169.691 139.253 138.427 170.517 99.857 170.517C61.2871 170.517 30.023 139.253 30.023 100.683C30.023 62.1131 61.2871 30.8489 99.857 30.8489C138.427 30.8489 169.691 62.1131 169.691 100.683Z" fill="#2653E0"/>
<path d="M30.023 100.683C30.023 62.1146 61.2887 30.8489 99.857 30.8489C138.425 30.8489 169.691 62.1146 169.691 100.683C169.691 139.251 138.425 170.517 99.857 170.517C61.2887 170.517 30.023 139.251 30.023 100.683Z" stroke="white" stroke-miterlimit="10"/>
<path d="M132.776 127.517C132.776 131.34 129.667 134.445 125.844 134.445H104.984C101.165 134.445 98.0517 131.34 98.0517 127.517V95.5773C98.0517 91.7547 101.165 88.6453 104.984 88.6453H125.848C129.667 88.6453 132.776 91.7547 132.776 95.5773V127.517ZM95.8555 124.381H93.7423C93.5951 124.151 93.4253 123.94 93.2329 123.747C94.7612 122.204 94.7649 119.724 93.2329 118.181C93.9423 117.468 94.38 116.487 94.38 115.4C94.38 114.317 93.9423 113.332 93.2329 112.619C95.6932 110.136 93.9347 105.883 90.4253 105.883H77.1725V68.9283C77.1725 66.4415 79.1951 64.4188 81.6819 64.4188H108.346V73.5962C108.346 74.2415 108.871 74.766 109.516 74.766H117.988C118.233 75.7169 118.082 75.4037 118.127 86.449H104.984C99.9498 86.449 95.8555 90.5434 95.8555 95.5773V124.381ZM92.0253 126.724C91.9272 127.521 91.248 128.14 90.4253 128.14H84.297C84.5083 127.124 84.5687 126.026 84.4404 124.917H90.4253C91.414 124.917 92.1498 125.8 92.0253 126.724ZM90.4253 133.702H80.9725C82.0178 132.819 82.8781 131.721 83.4895 130.483H90.4253C91.3121 130.483 92.0366 131.204 92.0366 132.094C92.0366 132.981 91.3121 133.702 90.4253 133.702ZM74.8744 133.857C70.5876 134.041 66.9612 130.724 66.7763 126.426C66.4819 119.589 74.6517 115.649 79.7951 120.37C84.8668 125.026 81.78 133.574 74.8744 133.857ZM64.8781 131.426C65.5989 131.426 66.014 131.43 66.1121 131.423C66.5498 132.113 67.0781 132.755 67.6895 133.328C66.6253 132.913 65.6819 132.275 64.8781 131.426ZM63.4178 129.23C63.1574 128.641 62.9725 128.019 62.8668 127.377H64.6555C64.9763 129.196 64.9951 128.883 65.0744 129.23H63.4178ZM63.2291 123.423H64.9347C64.897 123.589 64.7046 124.219 64.614 125.181H62.814C62.8819 124.577 63.0215 123.989 63.2291 123.423ZM67.6857 118.86C66.9725 119.54 66.3385 120.343 65.8404 121.226H64.4744C65.3649 120.121 66.4744 119.336 67.6857 118.86ZM92.0366 120.966C92.0366 121.853 91.3121 122.574 90.4253 122.574H83.8706C83.4253 121.389 82.7536 120.298 81.8819 119.355H90.4253C91.3121 119.355 92.0366 120.075 92.0366 120.966ZM73.3838 113.789H90.4253C91.3121 113.789 92.0366 114.513 92.0366 115.4C92.0366 116.291 91.3121 117.011 90.4253 117.011H78.6555C78.1763 116.792 77.6781 116.611 77.1725 116.475C76.414 116.268 75.6291 116.151 74.8291 116.132C74.5989 116.124 74.3687 116.128 74.1385 116.136H71.9536C71.8366 115.917 71.7725 115.664 71.7725 115.4C71.7725 114.513 72.497 113.789 73.3838 113.789ZM73.3838 108.226H90.4253C91.3121 108.226 92.0366 108.951 92.0366 109.838C92.0366 110.724 91.3121 111.445 90.4253 111.445H73.3838C72.497 111.445 71.7725 110.724 71.7725 109.838C71.7725 108.947 72.497 108.226 73.3838 108.226ZM116.52 72.3849L116.523 72.3886L116.531 72.3962L116.542 72.4037L116.546 72.4113L116.55 72.4151L116.557 72.4226H110.689V66.2188C115.289 71.083 116.327 72.1773 116.52 72.3849ZM125.844 86.449H120.471V75.8717C120.471 74.0603 119.75 72.3736 118.572 71.1396L115.097 67.5056C112.15 64.4679 111.78 63.6075 110.025 62.7585C109.206 62.3509 108.135 62.0754 107.052 62.0754H81.6819C77.9008 62.0754 74.8291 65.1509 74.8291 68.9283V105.883H73.3838C71.2027 105.883 69.4291 107.657 69.4291 109.838C69.4291 110.921 69.8706 111.906 70.5763 112.619C69.8706 113.332 69.4291 114.317 69.4291 115.4C69.4291 115.808 69.4857 116.049 69.5083 116.181C60.9272 117.057 57.5121 127.675 63.7876 133.438C65.6857 135.177 68.2027 136.166 70.931 136.053C71.8329 136.053 90.4027 136.045 90.4253 136.045C92.6064 136.045 94.38 134.272 94.38 132.094C94.38 131.008 93.9423 130.026 93.2329 129.309C93.897 128.638 94.3272 127.732 94.3725 126.724H95.8555V127.517C95.8555 132.551 99.9498 136.645 104.984 136.645H125.844C130.878 136.645 134.972 132.551 134.972 127.517V95.5773C134.972 90.5434 130.878 86.449 125.844 86.449Z" fill="white"/>
<path d="M125.768 91.1357H105.063C103.025 91.1357 101.376 92.7848 101.376 94.8225V98.8414C101.376 100.879 103.025 102.528 105.063 102.528H109.044C109.651 102.528 110.142 102.038 110.142 101.43C110.142 100.823 109.651 100.332 109.044 100.332H105.063C104.24 100.332 103.572 99.6603 103.572 98.8414V94.8225C103.572 94.0037 104.24 93.332 105.063 93.332H125.768C126.591 93.332 127.259 93.9999 127.259 94.8225V98.8414C127.259 99.664 126.591 100.332 125.768 100.332H113.78C113.176 100.332 112.682 100.823 112.682 101.43C112.682 102.038 113.176 102.528 113.78 102.528H125.768C127.802 102.528 129.455 100.875 129.455 98.8414V94.8225C129.455 92.7886 127.802 91.1357 125.768 91.1357Z" fill="white"/>
<path d="M107.529 120.328C107.529 120.385 107.483 120.43 107.427 120.43H103.672C103.619 120.43 103.57 120.385 103.57 120.328V116.577C103.57 116.521 103.619 116.476 103.672 116.476H107.427C107.483 116.476 107.529 116.521 107.529 116.577V120.328ZM107.427 114.279H103.672C102.408 114.279 101.374 115.309 101.374 116.577V120.328C101.374 121.596 102.408 122.626 103.672 122.626H107.427C108.695 122.626 109.725 121.596 109.725 120.328V116.577C109.725 115.309 108.695 114.279 107.427 114.279Z" fill="white"/>
<path d="M127.378 110.517C127.378 110.573 127.332 110.619 127.276 110.619H123.525C123.468 110.619 123.423 110.573 123.423 110.517C123.468 106.804 123.325 106.664 123.525 106.664H127.276C127.332 106.664 127.378 106.709 127.378 106.766V110.517ZM127.276 104.468H123.525C122.257 104.468 121.227 105.498 121.227 106.766V110.517C121.227 111.785 122.257 112.815 123.525 112.815H127.276C128.544 112.815 129.574 111.785 129.574 110.517V106.766C129.574 105.498 128.544 104.468 127.276 104.468Z" fill="white"/>
<path d="M107.529 110.517C107.529 110.573 107.483 110.619 107.427 110.619H103.672C103.619 110.619 103.57 110.573 103.57 110.517V106.766C103.57 106.709 103.619 106.664 103.672 106.664H107.427C107.483 106.664 107.529 106.709 107.529 106.766V110.517ZM107.427 104.468H103.672C102.408 104.468 101.374 105.498 101.374 106.766V110.517C101.374 111.785 102.408 112.815 103.672 112.815H107.427C108.695 112.815 109.725 111.785 109.725 110.517V106.766C109.725 105.498 108.695 104.468 107.427 104.468Z" fill="white"/>
<path d="M107.426 129.758C103.721 129.713 103.57 129.853 103.57 129.656C103.57 125.683 103.528 125.804 103.672 125.804H107.426C107.608 125.804 107.494 126.053 107.528 126.724C107.528 126.724 107.623 129.758 107.426 129.758ZM109.147 124.381C108.725 123.906 108.11 123.607 107.426 123.607H103.672C102.989 123.607 102.374 123.906 101.955 124.381C101.159 125.275 101.426 126.249 101.374 126.724V129.656C101.374 130.924 102.408 131.955 103.672 131.955H107.426C108.694 131.955 109.725 130.924 109.725 129.656V126.724C109.672 126.26 109.94 125.275 109.147 124.381Z" fill="white"/>
<path d="M126.429 129.758H124.368C123.848 129.758 123.421 129.332 123.421 128.807V117.158C123.421 116.781 123.727 116.472 124.108 116.472H126.693C127.07 116.472 127.376 116.781 127.376 117.158V128.807C127.376 129.332 126.953 129.758 126.429 129.758ZM126.693 114.275H124.108C122.519 114.275 121.225 115.57 121.225 117.158V128.807C121.225 130.543 122.636 131.955 124.368 131.955H126.429C128.165 131.955 129.572 130.543 129.572 128.807V117.158C129.572 115.57 128.282 114.275 126.693 114.275Z" fill="white"/>
<path d="M88.834 93.9773C87.4944 93.4867 86.5283 93.1282 86.5283 91.8905C86.5283 90.7584 87.2793 90.1848 88.7585 90.1848C90.3321 90.1848 90.7547 90.8791 91.3095 90.8791C91.9095 90.8791 92.2453 90.2376 92.2453 89.7961C92.2453 88.8791 90.751 88.4263 89.4189 88.3056V87.4829C89.4189 86.9093 88.951 86.4414 88.3774 86.4414C87.8038 86.4414 87.3359 86.9093 87.3359 87.4829V88.4376C85.5132 88.8716 84.5095 90.132 84.5095 91.9999C84.5095 94.5546 86.3925 95.2603 87.9057 95.8301C89.3849 96.3848 90.5547 96.8263 90.5547 98.5169C90.5547 99.9131 89.7774 100.619 88.2491 100.619C86.0113 100.619 85.9887 99.1093 85.1359 99.1093C84.6076 99.1093 84.1812 99.7018 84.1812 100.192C84.1812 101.057 85.4717 102.192 87.3359 102.49V103.287C87.3359 103.86 87.8038 104.328 88.3774 104.328C88.951 104.328 89.4189 103.86 89.4189 103.287V102.468C91.4227 102.09 92.5736 100.619 92.5736 98.4074C92.5736 95.3508 90.4981 94.5886 88.834 93.9773Z" fill="white"/>
<path d="M117.293 129.758C113.587 129.713 113.436 129.853 113.436 129.656V125.902C113.436 125.849 113.485 125.804 113.538 125.804H117.293C117.349 125.804 117.395 125.849 117.395 125.902C117.349 129.619 117.489 129.758 117.293 129.758ZM118.885 124.249C118.474 123.853 117.912 123.607 117.293 123.607H113.538C112.855 123.607 112.24 123.906 111.821 124.381C111.025 125.275 111.293 126.249 111.24 126.724V129.656C111.24 130.924 112.27 131.955 113.538 131.955H117.293C118.561 131.955 119.591 130.924 119.591 129.656V125.902C119.591 125.253 119.319 124.668 118.885 124.249Z" fill="white"/>
<path d="M117.292 110.619H113.537C113.485 110.619 113.435 110.573 113.435 110.517V106.766C113.435 106.566 113.571 106.706 117.292 106.664C117.349 106.664 117.394 106.709 117.394 106.766V110.517C117.394 110.573 117.349 110.619 117.292 110.619ZM117.292 104.468H113.537C112.269 104.468 111.239 105.498 111.239 106.766V110.517C111.239 111.785 112.269 112.815 113.537 112.815H117.292C117.586 112.815 117.869 112.758 118.13 112.656C118.983 112.321 119.59 111.487 119.59 110.517V106.766C119.59 105.494 118.552 104.468 117.292 104.468Z" fill="white"/>
<path d="M117.393 120.328C117.393 120.385 117.348 120.43 117.291 120.43H113.54C113.484 120.43 113.438 120.385 113.438 120.328V116.577C113.438 116.521 113.484 116.476 113.54 116.476H117.291C117.348 116.476 117.393 116.521 117.393 116.577V120.328ZM118.129 114.438C117.869 114.332 117.589 114.279 117.291 114.279H113.54C112.272 114.279 111.242 115.309 111.242 116.577V120.328C111.242 121.596 112.272 122.626 113.54 122.626H117.291C118.559 122.626 119.589 121.596 119.589 120.328V116.577C119.589 115.604 118.982 114.77 118.129 114.438Z" fill="white"/>
<path d="M110.954 77.083H108.195C107.588 77.083 107.097 77.5736 107.097 78.1811C107.097 78.7887 107.588 79.2792 108.195 79.2792H110.954C111.561 79.2792 112.052 78.7887 112.052 78.1811C112.052 77.5736 111.561 77.083 110.954 77.083Z" fill="white"/>
<path d="M103.802 77.083H84.3266C83.7229 77.083 83.2285 77.5736 83.2285 78.1811C83.2285 78.7887 83.7229 79.2792 84.3266 79.2792H103.802C104.41 79.2792 104.9 78.7887 104.9 78.1811C104.9 77.5736 104.41 77.083 103.802 77.083Z" fill="white"/>
<path d="M87.8187 82.5356H84.3281C83.7205 82.5356 83.23 83.0262 83.23 83.6338C83.23 84.2413 83.7205 84.7319 84.3281 84.7319H87.8187C88.4262 84.7319 88.9168 84.2413 88.9168 83.6338C88.9168 83.0262 88.4262 82.5356 87.8187 82.5356Z" fill="white"/>
<path d="M110.954 82.5356H92.2104C91.6066 82.5356 91.1123 83.0262 91.1123 83.6338C91.1123 84.2413 91.6066 84.7319 92.2104 84.7319H110.954C111.561 84.7319 112.052 84.2413 112.052 83.6338C112.052 83.0262 111.561 82.5356 110.954 82.5356Z" fill="white"/>
<path d="M73.9186 123.996C73.9186 123.721 74.0205 123.642 74.1148 123.589C74.4092 123.426 75.0884 123.377 75.7073 123.694C75.8733 123.781 76.0582 123.876 76.3035 123.876C77.3865 123.876 78.2431 121.864 75.6544 121.419V121.351C75.6544 120.736 75.1563 120.238 74.5412 120.238C73.9261 120.238 73.428 120.736 73.428 121.351V121.562C72.345 121.955 71.7299 122.849 71.7299 124.06C71.7299 125.936 73.0922 126.445 74.0846 126.819C75.0318 127.174 75.3601 127.332 75.3601 127.977C75.3601 128.377 75.2544 128.751 74.4658 128.751C73.3186 128.751 73.4544 127.845 72.5941 127.845C71.9865 127.845 71.5337 128.445 71.5337 128.981C71.5337 129.743 72.3261 130.464 73.428 130.759V130.842C73.428 131.453 73.9261 131.955 74.5412 131.955C75.1563 131.955 75.6544 131.457 75.6544 130.842V130.728C76.8469 130.343 77.5488 129.317 77.5488 127.909C77.5488 124.574 73.9186 125.076 73.9186 123.996Z" fill="white"/>
</svg>
