<svg width="200" height="200" viewBox="0 0 200 200" fill="none" xmlns="http://www.w3.org/2000/svg">
<path d="M99.3588 99.3696V179.758C54.9588 179.758 18.9663 143.77 18.9663 99.3696H99.3588Z" fill="white" stroke="#A163FF" stroke-miterlimit="10"/>
<path d="M179.766 99.3697H99.3584V18.9622C143.773 18.9622 179.766 54.9697 179.766 99.3697Z" fill="white" stroke="#A163FF" stroke-miterlimit="10"/>
<path d="M169.691 100.687C169.691 139.256 138.427 170.521 99.857 170.521C61.2871 170.521 30.023 139.256 30.023 100.687C30.023 62.1167 61.2871 30.8526 99.857 30.8526C138.427 30.8526 169.691 62.1167 169.691 100.687Z" fill="#A163FF"/>
<path d="M30.023 100.687C30.023 62.1183 61.2887 30.8526 99.857 30.8526C138.425 30.8526 169.691 62.1183 169.691 100.687C169.691 139.255 138.425 170.521 99.857 170.521C61.2887 170.521 30.023 139.255 30.023 100.687Z" stroke="white" stroke-miterlimit="10"/>
<path d="M88.9867 100.268C83.3641 100.268 78.8056 95.7095 78.8056 90.0868C78.8056 84.4642 83.3641 79.9057 88.9867 79.9057C94.6094 79.9057 99.1679 84.4642 99.1679 90.0868C99.1603 95.7057 94.6056 100.26 88.9867 100.268ZM88.9867 77.3623C81.9565 77.3623 76.2622 83.0604 76.2622 90.0868C76.2622 97.117 81.9565 102.811 88.9867 102.811C96.0169 102.811 101.711 97.117 101.711 90.0868C101.704 83.0604 96.0131 77.3699 88.9867 77.3623Z" fill="white"/>
<path d="M87.7144 88.8151C87.0125 88.8151 86.4427 88.2453 86.4427 87.5434V86.2717C86.4427 85.5661 87.0125 84.9962 87.7144 84.9962V88.8151ZM91.5332 92.634V93.9057C91.5332 94.6076 90.9634 95.1774 90.2578 95.1774V91.3585C90.9634 91.3585 91.5332 91.9283 91.5332 92.634ZM90.2578 82.4529V81.1812H87.7144V82.4529C85.6049 82.4529 83.8955 84.1623 83.8955 86.2717V87.5434C83.8955 89.6491 85.6049 91.3585 87.7144 91.3585V95.1774C87.0125 95.1774 86.4427 94.6076 86.4427 93.9057V92.634H83.8955V93.9057C83.8955 96.0151 85.6049 97.7245 87.7144 97.7245V98.9962H90.2578V97.7245C92.3672 97.7245 94.0766 96.0151 94.0766 93.9057V92.634C94.0766 90.5245 92.3672 88.8151 90.2578 88.8151V84.9962C90.9634 84.9962 91.5332 85.5661 91.5332 86.2717V87.5434H94.0766V86.2717C94.0766 84.1623 92.3672 82.4529 90.2578 82.4529Z" fill="white"/>
<path d="M76.2599 110.449H71.1694V102.815H76.2599V110.449ZM77.5316 100.268H69.8977C69.1958 100.268 68.626 100.837 68.626 101.539V111.72C68.626 112.422 69.1958 112.992 69.8977 112.992H77.5316C78.2373 112.992 78.8071 112.422 78.8071 111.72V101.539C78.8071 100.837 78.2373 100.268 77.5316 100.268Z" fill="white"/>
<path d="M106.803 110.449H101.713V102.815H106.803V110.449ZM108.075 100.268H100.441C99.7392 100.268 99.1694 100.837 99.1694 101.539V111.72C99.1694 112.422 99.7392 112.992 100.441 112.992H108.075C108.777 112.992 109.347 112.422 109.347 111.72V101.539C109.347 100.837 108.777 100.268 108.075 100.268Z" fill="white"/>
<path d="M110.461 115.539C108.57 115.536 106.782 116.377 105.574 117.83L101.118 123.173H96.6233V112.996C96.6233 108.777 93.2044 105.358 88.9856 105.358C84.7705 105.358 81.3516 108.777 81.3516 112.996V125.721H66.0799V87.9583L88.9856 71.2979L111.895 87.9583V115.539H110.461ZM104.431 123.173L107.529 119.46C108.25 118.588 109.321 118.087 110.453 118.083H114.438V121.902C114.438 122.604 113.869 123.173 113.167 123.173H104.431ZM127.714 119.46L131.959 124.551C132.152 124.777 132.257 125.068 132.257 125.362V132.083C132.257 132.785 131.687 133.354 130.982 133.354H129.582C128.884 129.913 125.525 127.687 122.08 128.385C119.578 128.894 117.62 130.853 117.11 133.354H111.767C111.069 129.913 107.71 127.687 104.265 128.385C101.759 128.894 99.8044 130.853 99.295 133.354H95.3516C94.646 133.354 94.0761 132.785 94.0761 132.083V126.992C94.0761 126.29 94.646 125.721 95.3516 125.721H113.167C115.276 125.721 116.986 124.011 116.986 121.902V118.083H124.782C125.914 118.083 126.989 118.588 127.714 119.46ZM123.348 138.445C121.238 138.445 119.529 136.736 119.529 134.63C119.529 132.521 121.238 130.811 123.348 130.811C125.457 130.811 127.167 132.521 127.167 134.63C127.167 136.736 125.457 138.445 123.348 138.445ZM105.533 138.445C103.423 138.445 101.714 136.736 101.714 134.63C101.714 132.521 103.423 130.811 105.533 130.811C107.638 130.811 109.348 132.521 109.348 134.63C109.348 136.736 107.638 138.445 105.533 138.445ZM87.7139 125.721H83.895V112.996C83.9063 110.679 85.4724 108.664 87.7139 108.083V125.721ZM94.0761 123.407C93.0007 123.796 92.1516 124.641 91.7667 125.721H90.261V108.083C92.4988 108.664 94.0686 110.679 94.0761 112.996V123.407ZM60.9894 128.264H91.5327V130.807H60.9894V128.264ZM61.1177 88.4186L59.129 86.43L88.9856 64.9318L118.842 86.43L116.857 88.4186L89.7365 68.6979C89.2875 68.3734 88.6837 68.3734 88.2384 68.6979L61.1177 88.4186ZM104.257 64.6337H124.62V70.9998C124.62 71.7017 125.189 72.2715 125.891 72.2715H132.257V110.449H114.438V89.8111L116.235 91.1167C116.744 91.4903 117.446 91.4337 117.891 90.9884L121.71 87.1734C122.204 86.6752 122.204 85.8677 121.71 85.3734C121.661 85.3243 121.608 85.279 121.552 85.2375L104.257 72.7884V64.6337ZM127.167 66.4337L130.457 69.7243H127.167V66.4337ZM133.529 112.996C134.231 112.996 134.801 112.426 134.801 111.721V70.9998C134.801 70.6601 134.665 70.3356 134.427 70.0979L126.793 62.4639C126.555 62.2224 126.231 62.0903 125.891 62.0903H102.986C102.284 62.0903 101.714 62.6601 101.714 63.362V70.9583L89.729 62.3281C89.2875 62.0111 88.6875 62.0111 88.2422 62.3281L56.4271 85.2375C55.8573 85.6451 55.729 86.4413 56.1403 87.0111C56.178 87.0677 56.2233 87.1205 56.2724 87.1696L60.0912 90.9884C60.5327 91.4337 61.2384 91.4866 61.7441 91.113L63.5365 89.8111V125.721H59.7177C59.0158 125.721 58.446 126.29 58.446 126.992V132.083C58.446 132.785 59.0158 133.354 59.7177 133.354H91.7667C92.3026 134.875 93.7365 135.894 95.3516 135.902H99.295C99.9931 139.343 103.352 141.57 106.797 140.871C109.303 140.362 111.257 138.404 111.767 135.902H117.11C117.812 139.343 121.17 141.57 124.612 140.871C127.118 140.362 129.076 138.404 129.582 135.902H130.982C133.091 135.902 134.801 134.192 134.801 132.083V125.37C134.797 124.475 134.484 123.611 133.91 122.924L129.669 117.83C128.461 116.377 126.669 115.536 124.782 115.539H114.438V112.996H133.529Z" fill="white"/>
<path d="M122.075 67.1812H106.804V69.7246H122.075V67.1812Z" fill="white"/>
<path d="M129.709 74.8149H114.438V77.3584H129.709V74.8149Z" fill="white"/>
<path d="M129.709 79.9058H119.528V82.4492H129.709V79.9058Z" fill="white"/>
<path d="M129.709 102.811H116.985V105.354H129.709V102.811Z" fill="white"/>
<path d="M129.709 97.7207H116.985V100.264H129.709V97.7207Z" fill="white"/>
</svg>
