<svg width="200" height="200" viewBox="0 0 200 200" fill="none" xmlns="http://www.w3.org/2000/svg">
<path d="M99.3524 99.3699V179.762C54.9524 179.762 18.96 143.77 18.96 99.3699H99.3524Z" stroke="#15B210" stroke-miterlimit="10"/>
<path d="M179.759 99.37H99.3516V18.9624C143.767 18.9624 179.759 54.97 179.759 99.37Z" stroke="#15B210" stroke-miterlimit="10"/>
<path d="M169.685 100.687C169.685 139.257 138.42 170.521 99.8506 170.521C61.2808 170.521 30.0166 139.257 30.0166 100.687C30.0166 62.1172 61.2808 30.8531 99.8506 30.8531C138.42 30.8531 169.685 62.1172 169.685 100.687Z" fill="#15B210"/>
<path d="M30.0166 100.687C30.0166 62.1188 61.2824 30.8531 99.8506 30.8531C138.419 30.8531 169.685 62.1188 169.685 100.687C169.685 139.255 138.419 170.521 99.8506 170.521C61.2824 170.521 30.0166 139.255 30.0166 100.687Z" stroke="white" stroke-miterlimit="10"/>
<path d="M135.09 79.8378L123.46 89.8756C118.241 76.5699 103.226 70.0114 89.9201 75.2303C83.9767 77.5586 79.1088 82.0001 76.2446 87.702H70.8446C70.1314 87.702 69.5503 87.1208 69.5503 86.4039V70.8529C69.5503 70.1359 70.1314 69.5548 70.8446 69.5548H114.913C115.63 69.5548 116.211 68.9737 116.211 68.2605V64.6944C116.203 64.0605 116.58 63.4869 117.162 63.2341C117.754 62.951 118.464 63.0529 118.954 63.4907L135.09 77.419C135.758 77.9812 135.845 78.9774 135.282 79.6454C135.222 79.7171 135.158 79.7812 135.09 79.8378ZM127.875 111.03C128.592 111.03 129.173 111.611 129.173 112.328V127.883C129.173 128.596 128.592 129.177 127.875 129.177H83.8069C83.0899 129.177 82.5126 129.759 82.5126 130.472V134.038C82.5163 134.672 82.1427 135.249 81.5616 135.498C80.9692 135.785 80.2597 135.687 79.7692 135.249L63.6333 121.317C62.9654 120.751 62.8786 119.755 63.4409 119.083C63.5012 119.015 63.5654 118.951 63.6333 118.894L75.2635 108.857C80.4824 122.162 95.4975 128.721 108.807 123.502C114.743 121.17 119.614 116.732 122.479 111.03H127.875ZM122.69 99.3661C122.69 112.253 112.245 122.698 99.3616 122.698C86.4748 122.698 76.0295 112.253 76.0295 99.3661C76.0295 86.4831 86.4748 76.0378 99.3616 76.0378C112.241 76.0529 122.675 86.4869 122.69 99.3661ZM120.648 61.5208C119.388 60.419 117.596 60.1624 116.082 60.8718C114.577 61.5473 113.611 63.0454 113.618 64.6944V66.9624H70.8446C68.6975 66.9624 66.9578 68.7058 66.9578 70.8529V86.4039C66.9578 88.551 68.6975 90.2944 70.8446 90.2944H75.1088C73.1654 95.3774 72.9088 100.955 74.3805 106.196L61.939 116.936C60.188 118.434 59.9805 121.068 61.4786 122.819C61.622 122.981 61.7729 123.136 61.939 123.276L78.0748 137.215C78.8446 137.883 79.8295 138.249 80.8484 138.249C81.4673 138.253 82.0786 138.117 82.6409 137.86C84.1465 137.189 85.1126 135.687 85.105 134.038V131.77H127.875C130.022 131.77 131.765 130.03 131.765 127.883V112.328C131.765 110.181 130.022 108.438 127.875 108.438H123.614C125.554 103.355 125.811 97.7812 124.343 92.5397L136.784 81.8001C138.535 80.302 138.739 77.6642 137.241 75.9133C137.101 75.751 136.947 75.5963 136.784 75.4567L120.648 61.5208Z" fill="white"/>
<path d="M104.545 105.849C104.537 108.208 102.937 110.26 100.658 110.849V100.849C102.937 101.438 104.537 103.491 104.545 105.849ZM94.1752 92.8869C94.1866 90.5322 95.7828 88.4756 98.0658 87.8869V97.8869C95.7828 97.2982 94.1866 95.2454 94.1752 92.8869ZM104.926 89.9171C105.439 90.4114 106.262 90.4001 106.756 89.8831C107.243 89.3812 107.243 88.585 106.756 88.0831C105.058 86.536 102.934 85.5322 100.658 85.2114V83.8152C100.658 83.0982 100.077 82.5171 99.3601 82.5171C98.6432 82.5171 98.0658 83.0982 98.0658 83.8152V85.2265C93.8356 85.9397 90.9828 89.9473 91.6922 94.1775C92.2432 97.4416 94.7979 100 98.0658 100.547V110.917C96.4771 110.619 94.9979 109.894 93.7866 108.823C93.2733 108.328 92.4507 108.344 91.9526 108.857C91.4696 109.362 91.4696 110.159 91.9564 110.66C93.6582 112.208 95.7866 113.204 98.0658 113.525V114.921C98.0658 115.638 98.6432 116.219 99.3601 116.219C100.077 116.219 100.658 115.638 100.658 114.921V113.51C104.888 112.796 107.741 108.793 107.028 104.562C106.481 101.294 103.922 98.7397 100.658 98.1888V87.819C102.243 88.1209 103.715 88.8454 104.926 89.9171Z" fill="white"/>
</svg>
