<svg width="200" height="201" viewBox="0 0 200 201" fill="none" xmlns="http://www.w3.org/2000/svg">
<path d="M99.3475 99.8701V180.263C54.9475 180.263 18.9551 144.27 18.9551 99.8701H99.3475Z" fill="white" stroke="#121B46" stroke-miterlimit="10"/>
<path d="M179.755 99.8699H99.3477V19.4624C143.763 19.4624 179.755 55.47 179.755 99.8699Z" fill="white" stroke="#121B46" stroke-miterlimit="10"/>
<path d="M169.68 101.183C169.68 139.753 138.416 171.017 99.8457 171.017C61.2759 171.017 30.0118 139.753 30.0118 101.183C30.0118 62.6133 61.2759 31.3492 99.8457 31.3492C138.416 31.3492 169.68 62.6133 169.68 101.183Z" fill="#121B46"/>
<path d="M30.0118 101.183C30.0118 62.6149 61.2775 31.3492 99.8457 31.3492C138.414 31.3492 169.68 62.6149 169.68 101.183C169.68 139.751 138.414 171.017 99.8457 171.017C61.2775 171.017 30.0118 139.751 30.0118 101.183Z" stroke="white" stroke-miterlimit="10"/>
<path d="M126.05 78.281L124.416 76.647L132.839 68.2206L134.476 69.8546L126.05 78.281ZM137.114 68.9753L133.718 65.5829C133.254 65.115 132.427 65.115 131.959 65.5829L121.774 75.7678C121.291 76.2508 121.291 77.0395 121.774 77.5263L125.171 80.9187C125.405 81.1527 125.722 81.2848 126.05 81.2848C126.378 81.2848 126.695 81.1527 126.929 80.9187L137.114 70.7338C137.601 70.247 137.601 69.4621 137.114 68.9753Z" fill="white"/>
<path d="M125.956 83.466L125.201 84.2207L118.473 77.4924L119.227 76.7377C119.714 76.2546 120.503 76.2509 120.986 76.7377L125.956 81.7075C126.442 82.1905 126.442 82.9792 125.956 83.466ZM127.714 79.949L122.744 74.9792C121.291 73.5226 118.925 73.5226 117.469 74.9792L115.831 76.6169C115.597 76.8471 115.469 77.1641 115.469 77.4962C115.469 77.8245 115.597 78.1414 115.831 78.3754L124.322 86.8622C124.552 87.0962 124.869 87.2245 125.201 87.2245C125.529 87.2245 125.846 87.0924 126.08 86.8622L127.714 85.2245C129.171 83.7716 129.171 81.4056 127.714 79.949Z" fill="white"/>
<path d="M124.954 98.0471L118.411 104.59L98.1016 84.2848L104.645 77.7414C106.056 76.3301 107.928 75.5527 109.92 75.5527C111.917 75.5527 113.788 76.3301 115.2 77.7414L124.954 87.4961C127.864 90.4055 127.864 95.1376 124.954 98.0471ZM126.713 85.7376L116.958 75.9791C115.079 74.0999 112.581 73.0659 109.92 73.0659C107.264 73.0659 104.769 74.0999 102.886 75.9791L95.4638 83.4055C95.2299 83.6357 95.1016 83.9527 95.1016 84.2848C95.1016 84.6131 95.2299 84.9301 95.4638 85.164L117.532 107.228C117.773 107.473 118.09 107.594 118.411 107.594C118.728 107.594 119.045 107.473 119.29 107.228L126.713 99.8055C130.592 95.9263 130.592 89.6131 126.713 85.7376Z" fill="white"/>
<path d="M116.743 82.5568L113.347 79.1606C111.46 77.27 108.388 77.27 106.498 79.1606L103.105 82.5568C102.619 83.0436 102.619 83.8285 103.105 84.3153C103.588 84.8021 104.377 84.8021 104.864 84.3153L108.256 80.9191C109.177 80.0021 110.671 80.0021 111.588 80.9191L114.985 84.3153C115.226 84.5568 115.547 84.6814 115.864 84.6814C116.181 84.6814 116.498 84.5568 116.743 84.3153C117.23 83.8285 117.23 83.0436 116.743 82.5568Z" fill="white"/>
<path d="M67.4873 136.84L65.8534 135.206L74.276 126.779L75.9138 128.413L67.4873 136.84ZM78.5515 127.534L75.1553 124.141C74.9251 123.907 74.6081 123.775 74.276 123.775C73.9477 123.775 73.6307 123.907 73.3968 124.141L63.2119 134.326C62.7289 134.809 62.7289 135.598 63.2119 136.085L66.6081 139.477C66.8421 139.711 67.159 139.843 67.4873 139.843C67.8194 139.843 68.1326 139.711 68.3666 139.477L78.5515 129.292C79.0383 128.806 79.0383 128.021 78.5515 127.534Z" fill="white"/>
<path d="M81.0997 128.323C80.6129 128.806 79.8242 128.81 79.3412 128.323L74.3714 123.353C73.8846 122.866 73.8846 122.077 74.3714 121.594L75.1261 120.836L81.8544 127.568L81.0997 128.323ZM84.4922 126.689L76.0054 118.202C75.7714 117.968 75.4544 117.836 75.1261 117.836C74.7941 117.836 74.4809 117.968 74.2469 118.202L72.6092 119.836C71.1563 121.293 71.1563 123.659 72.6092 125.111L77.579 130.081C78.3073 130.81 79.262 131.172 80.2167 131.172C81.1714 131.172 82.1299 130.81 82.8544 130.081L84.4922 128.447C84.7261 128.213 84.8544 127.9 84.8544 127.568C84.8544 127.24 84.7261 126.923 84.4922 126.689Z" fill="white"/>
<path d="M95.6767 127.323C94.2692 128.73 92.3937 129.508 90.4012 129.508C88.4088 129.508 86.5333 128.73 85.1258 127.323L75.371 117.568C72.4616 114.659 72.4616 109.927 75.371 107.017L83.6126 98.7719L103.918 119.081L95.6767 127.323ZM106.556 118.198L84.4918 96.1341C84.0239 95.6662 83.1975 95.6662 82.7333 96.1341L73.6126 105.255C69.7333 109.134 69.7333 115.447 73.6126 119.327L83.3673 129.081C85.2465 130.961 87.7446 131.995 90.4012 131.995C93.0616 131.995 95.556 130.961 97.4352 129.081L106.556 119.957C107.043 119.474 107.043 118.685 106.556 118.198Z" fill="white"/>
<path d="M97.1599 95.2848L90.4014 102.043L88.7674 100.409L95.5259 93.6509C95.9599 93.2131 96.7222 93.2131 97.1599 93.6509C97.3788 93.8698 97.4995 94.1565 97.4995 94.466C97.4995 94.7754 97.3788 95.066 97.1599 95.2848ZM98.9222 91.8924C97.5448 90.515 95.1448 90.515 93.7674 91.8924L86.1297 99.5301C85.8957 99.7641 85.7637 100.077 85.7637 100.409C85.7637 100.741 85.8957 101.055 86.1297 101.289L89.5222 104.681C89.7637 104.926 90.0844 105.047 90.4014 105.047C90.7222 105.047 91.0391 104.926 91.2844 104.681L98.9222 97.0433C99.609 96.3565 99.9901 95.4396 99.9901 94.466C99.9901 93.4924 99.609 92.5792 98.9222 91.8924Z" fill="white"/>
<path d="M109.045 107.168L102.286 113.926L100.652 112.292L107.411 105.534C107.848 105.096 108.607 105.096 109.045 105.534C109.494 105.983 109.494 106.719 109.045 107.168ZM110.803 103.775C109.384 102.353 107.071 102.349 105.652 103.775L98.0107 111.413C97.7767 111.643 97.6484 111.96 97.6484 112.292C97.6484 112.621 97.7767 112.938 98.0107 113.172L101.407 116.564C101.648 116.806 101.969 116.93 102.286 116.93C102.603 116.93 102.924 116.809 103.165 116.564L110.803 108.926C112.226 107.508 112.226 105.194 110.803 103.775Z" fill="white"/>
<path d="M92.0999 124.112L78.5829 110.595L83.6131 105.564L97.1301 119.081L92.0999 124.112ZM99.7678 118.202L84.4923 102.927C84.0056 102.44 83.2206 102.44 82.7339 102.927L75.9452 109.715C75.4584 110.202 75.4584 110.987 75.9452 111.474L91.2206 126.749C91.4659 126.991 91.7829 127.115 92.0999 127.115C92.4169 127.115 92.7376 126.991 92.9791 126.749L99.7678 119.961C100.255 119.474 100.255 118.689 99.7678 118.202Z" fill="white"/>
<path d="M91.2825 116.504L86.1919 111.41C85.7052 110.923 84.9165 110.923 84.4335 111.41C83.9467 111.896 83.9467 112.681 84.4335 113.168L89.524 118.262C89.7655 118.504 90.0863 118.628 90.4033 118.628C90.7202 118.628 91.041 118.504 91.2825 118.262C91.7693 117.776 91.7693 116.991 91.2825 116.504Z" fill="white"/>
</svg>
