<svg width="50" height="51" viewBox="0 0 50 51" fill="none" xmlns="http://www.w3.org/2000/svg">
<g clip-path="url(#clip0_587_14046)">
<path d="M1.98434 24.9166C1.98434 25.8047 2.00339 26.6952 1.97719 27.5833C1.96291 27.9928 2.07958 28.1428 2.51053 28.1309C3.49386 28.1024 4.4772 28.119 5.46053 28.1238C6.08672 28.1285 6.40577 28.3643 6.54862 28.9738C7.02005 30.9833 7.79386 32.8643 8.87958 34.6214C9.26529 35.2452 9.20577 35.6381 8.69624 36.1547C8.00339 36.8547 7.31291 37.5547 6.60577 38.2381C6.38196 38.4547 6.38196 38.5952 6.60339 38.8166C7.91529 40.1095 9.21767 41.4095 10.5105 42.7214C10.7391 42.9547 10.8867 42.9714 11.1224 42.7285C11.7915 42.0309 12.4843 41.3523 13.1724 40.6714C13.7129 40.1357 14.0915 40.0762 14.7391 40.4762C16.4843 41.5524 18.351 42.3166 20.3439 42.7904C20.9867 42.9428 21.2177 43.25 21.2224 43.9024C21.2272 44.9024 21.2343 45.9024 21.2177 46.9024C21.2105 47.2571 21.3343 47.369 21.6867 47.3666C23.5105 47.3547 25.3367 47.35 27.1605 47.369C27.5534 47.3738 27.6462 47.2238 27.6415 46.8643C27.6224 45.8976 27.632 44.9285 27.6343 43.9595C27.6367 43.2404 27.8391 42.9595 28.5558 42.7881C30.5462 42.3095 32.4153 41.5452 34.1581 40.4666C34.782 40.0809 35.1581 40.1476 35.6867 40.6714C36.3748 41.3523 37.0677 42.0309 37.7367 42.7285C37.9724 42.9738 38.1201 42.9524 38.3486 42.7214C39.6415 41.4095 40.9439 40.1071 42.2558 38.8143C42.4796 38.5952 42.4748 38.4524 42.2534 38.2381C41.5343 37.5404 40.8296 36.8309 40.1296 36.1166C39.6724 35.65 39.6153 35.2547 39.9558 34.7024C41.0605 32.919 41.8558 31.0119 42.3296 28.969C42.4724 28.3643 42.8058 28.1285 43.4224 28.1238C44.4081 28.119 45.3915 28.1119 46.3748 28.1285C46.732 28.1357 46.8843 28.0452 46.882 27.65C46.8629 25.8262 46.8653 24 46.8796 22.1762C46.882 21.8262 46.7724 21.6976 46.4153 21.7047C45.4629 21.7238 44.5105 21.7119 43.5582 21.7095C42.7605 21.7095 42.482 21.4976 42.2986 20.7119C41.8415 18.7643 41.0772 16.9452 40.0296 15.2404C39.6153 14.5666 39.6581 14.1904 40.2105 13.6309C40.882 12.9547 41.5486 12.2762 42.2343 11.6143C42.4701 11.3881 42.482 11.2404 42.2415 11.0023C40.9391 9.7214 39.6462 8.43568 38.3701 7.12854C38.0915 6.84283 37.932 6.89997 37.6891 7.15235C37.0177 7.84997 36.3296 8.5333 35.6367 9.20949C35.1701 9.66187 34.7653 9.71664 34.2177 9.38092C32.432 8.28092 30.5343 7.46902 28.4843 7.01187C27.882 6.87616 27.6391 6.53092 27.6367 5.91664C27.632 4.9333 27.6224 3.94997 27.6415 2.96426C27.6486 2.60235 27.5462 2.46187 27.1581 2.46425C25.332 2.48092 23.5081 2.47854 21.682 2.46664C21.3272 2.46426 21.2105 2.5833 21.2177 2.93568C21.2343 3.90235 21.2248 4.8714 21.2224 5.83807C21.2201 6.54997 20.9891 6.8714 20.3153 7.03092C18.3201 7.49997 16.4558 8.27378 14.7105 9.34997C14.0796 9.73806 13.7058 9.68806 13.182 9.1714C12.4915 8.49045 11.8034 7.81187 11.1296 7.11425C10.9081 6.88568 10.7605 6.85711 10.5177 7.10235C9.22719 8.41425 7.92481 9.71664 6.61291 11.0071C6.36291 11.2523 6.401 11.4 6.62958 11.619C7.32481 12.2928 8.00577 12.9809 8.68672 13.6714C9.1891 14.1809 9.26053 14.5619 8.89148 15.1619C7.801 16.9333 7.01767 18.8262 6.54386 20.8524C6.39386 21.4928 6.08196 21.7071 5.41529 21.7095C4.42958 21.7143 3.44624 21.7262 2.46291 21.7023C2.07481 21.6952 1.97005 21.8357 1.97719 22.2023C1.99862 23.1071 1.98434 24.0119 1.98434 24.9166ZM20.6201 49.2976C19.6486 48.8833 19.1796 48.1714 19.2462 47.0928C19.2867 46.3976 19.2415 45.6952 19.2581 44.9976C19.2653 44.7071 19.1605 44.5666 18.8843 44.4928C17.3605 44.0833 15.9201 43.4643 14.5415 42.7C14.2867 42.5571 14.1129 42.5904 13.9177 42.7952C13.4105 43.319 12.8939 43.8357 12.3701 44.3452C11.3581 45.3214 10.2653 45.3119 9.27243 44.3214C7.85577 42.9071 6.44386 41.4928 5.02958 40.0785C4.01529 39.0595 4.02243 37.9904 5.04386 36.9595C5.53434 36.4643 6.01053 35.9524 6.51291 35.469C6.74386 35.2476 6.79148 35.0619 6.62719 34.769C5.87005 33.4047 5.25577 31.9785 4.85577 30.4666C4.77481 30.1595 4.60339 30.0809 4.30815 30.0881C3.52958 30.1024 2.751 30.0952 1.97481 30.0904C0.817671 30.0833 0.0200521 29.3 0.0152902 28.1547C0.0105283 25.9976 0.0105283 23.8381 0.0152902 21.6809C0.0200521 20.5333 0.81529 19.75 1.97243 19.7428C2.73434 19.7381 3.49624 19.7262 4.25577 19.7476C4.59624 19.7571 4.77481 19.6523 4.86767 19.3095C5.27005 17.819 5.85339 16.3952 6.62243 15.0547C6.79386 14.7595 6.73434 14.5785 6.50577 14.3571C5.96053 13.8262 5.43434 13.2762 4.90339 12.7285C4.07005 11.8714 4.06291 10.7357 4.90577 9.88568C6.3891 8.3833 7.88434 6.89283 9.38196 5.40711C10.2224 4.57378 11.3224 4.54044 12.1986 5.33806C12.7843 5.8714 13.3367 6.44283 13.8891 7.01187C14.0986 7.22854 14.2701 7.26902 14.5462 7.10949C15.8724 6.34759 17.2772 5.76188 18.7534 5.35949C19.1534 5.24997 19.2772 5.06187 19.2605 4.66187C19.232 3.89997 19.2462 3.13807 19.2558 2.37616C19.2677 1.31902 20.0724 0.509493 21.132 0.504731C23.3391 0.497588 25.5439 0.495208 27.751 0.507113C28.7796 0.511875 29.5867 1.32378 29.601 2.35473C29.6129 3.16426 29.6153 3.97378 29.5986 4.7833C29.5939 5.08806 29.6962 5.23568 29.9986 5.31664C31.5248 5.72378 32.9653 6.34045 34.3415 7.10949C34.5986 7.25473 34.7605 7.22854 34.9581 7.0214C35.4653 6.49521 35.982 5.97854 36.5058 5.4714C37.4986 4.51664 38.5939 4.52616 39.5677 5.49759C40.9962 6.91902 42.4224 8.34521 43.8439 9.7714C44.8153 10.7452 44.8296 11.8428 43.8772 12.8357C43.3724 13.3619 42.8534 13.8762 42.3272 14.3833C42.1248 14.5785 42.0867 14.7357 42.232 14.9976C43.001 16.3738 43.6201 17.8166 44.0272 19.3404C44.1082 19.6381 44.2462 19.7547 44.5582 19.7476C45.2391 19.7285 45.9248 19.7762 46.6034 19.7333C47.682 19.6666 48.3962 20.1357 48.8105 21.1071V28.7262C48.3939 29.6952 47.6796 30.1643 46.6034 30.1C45.9415 30.0595 45.2724 30.1095 44.6058 30.0857C44.2605 30.0738 44.0986 30.1928 44.0058 30.5309C43.5939 32.0333 42.9986 33.469 42.2224 34.8214C42.0748 35.0809 42.1153 35.2452 42.3177 35.4404C42.8534 35.9571 43.3843 36.4809 43.8986 37.0214C44.8272 37.9952 44.8105 39.0928 43.8581 40.0476C42.4367 41.4738 41.0129 42.8976 39.5867 44.319C38.5915 45.3119 37.501 45.3238 36.4915 44.3476C35.9677 43.8404 35.451 43.3238 34.9439 42.7976C34.7462 42.5928 34.5748 42.5619 34.3224 42.7047C32.951 43.4833 31.5058 44.0833 29.982 44.4952C29.6796 44.5785 29.5915 44.75 29.5986 45.0476C29.6153 45.7285 29.5677 46.4143 29.6129 47.0928C29.682 48.1738 29.201 48.8785 28.2391 49.2976H20.6201Z" fill="white"/>
<path d="M12.5192 24.9096C12.512 30.8644 16.8096 35.862 22.6715 36.712C29.2215 37.662 35.1882 33.2668 36.2263 26.7239C36.6096 24.3191 36.2382 22.0215 35.2311 19.8168C35.112 19.5572 34.9715 19.3001 35.0239 19.0025C35.1025 18.5501 35.3715 18.2572 35.8168 18.1501C36.2477 18.0453 36.693 18.262 36.9215 18.7025C37.5287 19.8644 37.9501 21.0953 38.162 22.3858C38.9215 27.0596 37.7263 31.1763 34.462 34.6144C32.2025 36.9977 29.3858 38.3906 26.1096 38.7572C21.6763 39.2549 17.8192 37.9453 14.6215 34.8477C12.312 32.6072 10.9572 29.8406 10.593 26.6358C10.0834 22.1692 11.4001 18.2858 14.5382 15.0715C16.7763 12.7858 19.5215 11.4501 22.7144 11.0715C25.4787 10.743 28.1168 11.1739 30.6192 12.4049C30.8334 12.5096 31.0477 12.6144 31.2477 12.743C31.762 13.0715 31.9072 13.6025 31.6358 14.0977C31.3787 14.5668 30.8025 14.7549 30.2787 14.4858C29.1453 13.9025 27.9715 13.4311 26.712 13.2025C20.0525 11.9882 14.0787 16.2168 12.7501 22.4525C12.5763 23.262 12.5144 24.0834 12.5192 24.9096Z" fill="white"/>
<path d="M30.2681 22.2095C30.2038 22.1357 30.13 22.0357 30.0419 21.9476C29.6062 21.5071 29.1491 21.0881 28.7372 20.6285C28.4752 20.3333 28.3133 20.3309 28.03 20.619C26.7229 21.9595 25.3895 23.2738 24.0657 24.5976C23.3062 25.3547 22.8705 25.3523 22.0991 24.5833C21.6514 24.1357 21.1895 23.6976 20.761 23.2309C20.5419 22.9928 20.4038 23.0095 20.1919 23.2357C19.7372 23.7238 19.2633 24.1928 18.78 24.6523C18.5538 24.8666 18.5586 25.0166 18.7776 25.2357C20.1205 26.5642 21.4538 27.9 22.7848 29.2404C22.9919 29.45 23.1491 29.4833 23.3752 29.2571C25.6133 27.0071 27.8586 24.7666 30.1014 22.5214C30.18 22.4452 30.2729 22.3714 30.2681 22.2095ZM32.8062 22.2833C32.7729 22.5952 32.6419 22.8595 32.4205 23.0809C29.5824 25.919 26.7467 28.7619 23.9014 31.5928C23.3467 32.1452 22.8038 32.1262 22.2395 31.5642C20.3181 29.6476 18.3991 27.7309 16.4848 25.8071C15.8943 25.2142 15.8943 24.7047 16.4776 24.119C17.5276 23.0595 18.5824 22.0047 19.6419 20.9547C20.2252 20.3762 20.7324 20.3833 21.3276 20.969C21.8157 21.4476 22.3086 21.919 22.7705 22.4214C23.0205 22.6928 23.1729 22.6571 23.4157 22.4119C24.7514 21.0547 26.1038 19.7142 27.4514 18.369C28.161 17.6595 28.5967 17.6571 29.3014 18.3571C30.3229 19.3785 31.3419 20.4023 32.3657 21.419C32.611 21.6619 32.7943 21.9262 32.8062 22.2833Z" fill="white"/>
<path d="M33.7973 16.9475C33.2235 16.9472 32.7934 16.5274 32.7913 15.9678C32.7893 15.4107 33.2211 14.9853 33.7902 14.9832C34.3497 14.9788 34.806 15.4224 34.808 15.9629C34.81 16.5034 34.3521 16.9479 33.7973 16.9475Z" fill="white"/>
</g>
<defs>
<clipPath id="clip0_587_14046">
<rect width="50" height="50" fill="white" transform="translate(0 0.5)"/>
</clipPath>
</defs>
</svg>
