<svg width="45" height="50" viewBox="0 0 45 50" fill="none" xmlns="http://www.w3.org/2000/svg">
<path d="M34.8827 14.475C34.0772 14.475 34.0772 14.475 34.0727 14.9364C34.0682 15.5591 34.3674 15.9705 34.8242 15.9727C35.2832 15.975 35.5599 15.5636 35.5914 14.9455C35.6252 14.2977 35.1707 14.5182 34.8827 14.475ZM40.2399 7.24091C40.2827 4.45001 38.3207 1.77955 34.8107 1.75001C31.7079 1.72273 29.3747 4.20682 29.3634 7.27501C29.3522 10.3068 31.7867 12.8 34.7949 12.7705C38.1969 12.7364 40.2804 10.1886 40.2399 7.24091ZM34.8399 23.9205C37.0854 23.9636 39.2882 23.5568 41.4369 22.8046C41.7902 22.6796 41.9297 22.5 41.9139 22.1205C41.8892 21.475 41.8982 20.8273 41.8307 20.1796C41.5607 17.5705 40.2377 15.6932 37.9719 14.4705C37.2452 14.0796 37.2339 14.1046 37.2339 14.95C37.2339 15.0841 37.2339 15.2182 37.2317 15.35C37.2137 16.5159 36.2822 17.5614 35.1752 17.6614C33.8207 17.7818 32.6619 16.9773 32.4572 15.7477C32.3987 15.3909 32.4099 15.0159 32.4302 14.6523C32.4527 14.2318 32.3199 14.1546 31.9509 14.3318C30.8394 14.8591 29.9192 15.6159 29.1767 16.6C27.8829 18.3182 27.6782 20.3114 27.7524 22.3773C27.7637 22.6682 27.9864 22.7091 28.1822 22.7818C30.3242 23.5546 32.5292 23.9591 34.8399 23.9205ZM26.1032 21.5523C25.9299 19.0386 26.6544 16.8295 28.2992 14.9318C28.8347 14.3136 29.4489 13.7841 30.1464 13.3705C30.5199 13.15 30.5199 13.0432 30.1937 12.7591C28.0764 10.9159 27.2754 8.56819 27.8514 5.82501C28.4409 3.01591 30.1149 1.07728 32.8824 0.284096C37.1012 -0.922722 41.2524 1.84319 41.8802 6.21819C42.2582 8.86364 41.4392 11.0659 39.4232 12.7955C39.1284 13.0477 39.1532 13.1546 39.4637 13.3546C41.7609 14.8386 43.1289 16.95 43.5002 19.675C43.6644 20.8909 43.5587 22.1296 43.5384 23.3591C43.5317 23.7568 43.2167 23.9455 42.8769 24.0841C40.9599 24.8659 38.9754 25.3591 36.9144 25.5591C33.7892 25.8614 30.7427 25.5227 27.7839 24.4636C25.8219 23.7614 26.1234 23.9159 26.1032 22.1C26.1009 21.9182 26.1032 21.7341 26.1032 21.5523Z" fill="white"/>
<path d="M14.1623 29.5932C14.2073 26.816 12.2611 24.1319 8.73759 24.0978C5.65284 24.066 3.27909 26.5319 3.29034 29.616C3.30159 32.7887 5.76309 35.1637 8.76234 35.1137C12.2723 35.0546 14.2096 32.3932 14.1623 29.5932ZM8.74209 46.2682C10.9943 46.3137 13.1948 45.9069 15.3413 45.1591C15.7216 45.0273 15.8566 44.8364 15.8363 44.4387C15.8071 43.8091 15.8228 43.1819 15.7553 42.55C15.4651 39.8023 14.0476 37.8773 11.6131 36.6773C11.2913 36.5182 10.9718 36.4864 10.6118 36.5864C9.38334 36.9273 8.14134 36.9296 6.91284 36.591C6.53484 36.4887 6.20859 36.525 5.86659 36.6841C4.75509 37.2069 3.83709 37.9705 3.09684 38.9523C1.80534 40.6705 1.60059 42.6614 1.67484 44.7228C1.68609 45.0137 1.90434 45.0569 2.10234 45.1273C4.24209 45.9 6.44259 46.3069 8.74209 46.2682ZM0.0255884 43.9C-0.149912 41.3864 0.576838 39.1773 2.22159 37.2796C2.75709 36.6614 3.37134 36.1319 4.06884 35.7182C4.44459 35.4978 4.44234 35.391 4.11609 35.1091C1.99884 33.2637 1.19784 30.916 1.77384 28.1728C2.36334 25.3637 4.03734 23.425 6.80484 22.6341C11.0236 21.425 15.1748 24.191 15.8026 28.566C16.1806 31.2114 15.3616 33.4137 13.3433 35.1432C13.0486 35.3955 13.0756 35.5023 13.3861 35.7023C15.6833 37.1864 17.0536 39.2978 17.4226 42.0228C17.5868 43.2387 17.4811 44.4796 17.4608 45.7069C17.4541 46.1046 17.1391 46.2932 16.7993 46.4319C14.8823 47.2137 12.8978 47.7069 10.8368 47.9069C7.71159 48.2091 4.66509 47.8705 1.70634 46.8114C-0.255661 46.1091 0.0458384 46.2637 0.0255884 44.4478C0.0233384 44.266 0.0255884 44.0819 0.0255884 43.9Z" fill="white"/>
<path d="M25.2952 29.9931C25.4842 30.4636 25.6282 30.7954 25.7497 31.1386C25.9364 31.6545 26.1007 32.1772 26.0669 32.7386C26.0309 33.3317 25.7497 33.6204 25.1692 33.6295C24.5932 33.6386 24.0172 33.6317 23.4389 33.6317C22.0057 33.6363 21.4297 34.2158 21.4297 35.6636C21.4274 38.5408 21.4274 41.4181 21.4297 44.2931C21.4297 45.7454 22.0057 46.334 23.4299 46.334C28.9109 46.3363 34.3942 46.3363 39.8752 46.334C41.3422 46.334 41.9047 45.7613 41.9069 44.2726V35.6954C41.9047 34.2045 41.3422 33.634 39.8752 33.634C36.6172 33.6317 33.3569 33.609 30.0989 33.6499C29.3339 33.659 28.9087 33.4181 28.5644 32.7158C27.9142 31.3795 26.8117 30.5181 25.2952 29.9931ZM31.6559 47.9999C28.7602 47.9999 25.8644 48.0022 22.9687 47.9976C21.1597 47.9954 19.7849 46.6067 19.7827 44.7795C19.7782 41.5726 19.7782 38.3636 19.7827 35.1545C19.7849 33.3567 21.1619 31.9772 22.9462 31.9681H23.5402C24.2669 31.9681 24.2624 31.9681 23.9722 31.2658C23.8394 30.9454 23.6909 30.6249 23.5964 30.2931C23.2702 29.1249 24.2444 28.0226 25.4189 28.2772C27.3382 28.6908 28.7917 29.809 29.8244 31.4704C30.0562 31.8454 30.2992 31.9795 30.7312 31.9772C33.9217 31.959 37.1144 31.9658 40.3072 31.9681C42.1882 31.9704 43.5517 33.3363 43.5539 35.2272C43.5562 38.4022 43.5562 41.5772 43.5539 44.7522C43.5517 46.6136 42.1859 47.9954 40.3454 47.9976C37.4497 48.0022 34.5539 47.9999 31.6559 47.9999Z" fill="white"/>
<path d="M19.7689 18.007C19.8161 17.7501 19.6789 17.6092 19.6159 17.4433C19.3571 16.7615 19.0624 16.0888 19.0916 15.3342C19.1164 14.7115 19.3999 14.4183 20.0074 14.4115C20.5991 14.4024 21.1931 14.4115 21.7849 14.407C23.1169 14.4001 23.7266 13.7933 23.7289 12.4592C23.7334 9.53196 23.7334 6.60696 23.7289 3.67969C23.7289 2.30696 23.1281 1.70923 21.7624 1.70696C19.6721 1.70241 17.5796 1.70469 15.4894 1.70469C12.0334 1.70469 8.57739 1.70241 5.12139 1.70696C3.89289 1.70923 3.25839 2.34559 3.25614 3.58423C3.24939 6.57741 3.25389 9.56832 3.25389 12.5615C3.25389 13.2138 3.44064 13.7774 4.01439 14.1433C4.37664 14.3751 4.78614 14.4092 5.20239 14.4092C8.59314 14.407 11.9839 14.416 15.3746 14.4001C15.9079 14.3979 16.2431 14.591 16.4524 15.082C16.7089 15.6842 17.0981 16.2047 17.5616 16.6592C18.1894 17.2751 18.9071 17.741 19.7689 18.007ZM13.5139 0.0410492C16.3939 0.0410492 19.2716 0.0387764 22.1516 0.0410492C24.0214 0.0433219 25.3759 1.42059 25.3781 3.32059C25.3804 6.47741 25.3804 9.6365 25.3781 12.7956C25.3759 14.6933 24.0191 16.066 22.1516 16.0729C20.9254 16.0774 20.9254 16.0774 21.3911 17.241C21.5914 17.7433 21.7444 18.2501 21.5261 18.7865C21.1931 19.6024 20.3539 19.9751 19.4359 19.7047C17.6899 19.1888 16.3106 18.1592 15.3544 16.6001C15.1001 16.1865 14.8279 16.0592 14.3666 16.0615C11.1896 16.082 8.01264 16.0751 4.83789 16.0706C2.96589 16.0706 1.60689 14.6956 1.60689 12.8001C1.60239 9.62514 1.60239 6.45014 1.60689 3.27514C1.60914 1.40923 2.96814 0.0433219 4.82439 0.0410492C7.72014 0.0387764 10.6159 0.0410492 13.5139 0.0410492Z" fill="white"/>
<path d="M39.1279 20.059C38.7342 20.059 38.3382 20.0749 37.9444 20.0544C37.4584 20.0317 37.1592 19.6885 37.1682 19.209C37.1772 18.7522 37.4742 18.4181 37.9377 18.4067C38.7589 18.3885 39.5824 18.3885 40.4037 18.4067C40.8897 18.4181 41.1889 18.7703 41.1799 19.2522C41.1709 19.7067 40.8739 20.0181 40.4104 20.059C40.3789 20.0612 40.3452 20.0612 40.3114 20.0612L39.1279 20.059Z" fill="white"/>
<path d="M31.6358 42.4114C29.5635 42.4114 27.4913 42.4159 25.4213 42.4091C24.7755 42.4068 24.3728 41.8977 24.5595 41.3296C24.7013 40.8886 25.0365 40.7409 25.482 40.7432C27.372 40.7523 29.262 40.7477 31.1543 40.7477C33.3908 40.7477 35.6273 40.7455 37.8638 40.75C38.5478 40.7523 38.964 41.2455 38.7728 41.8296C38.631 42.2705 38.2958 42.4182 37.8503 42.4159C35.7803 42.4068 33.708 42.4114 31.6358 42.4114Z" fill="white"/>
<path d="M34.828 37.5545C35.8472 37.5545 36.8665 37.5499 37.8835 37.5567C38.4775 37.5613 38.8217 37.8886 38.8082 38.4113C38.7947 38.909 38.4572 39.2136 37.8857 39.2158C35.8472 39.2204 33.811 39.2204 31.7725 39.2158C31.1807 39.2136 30.8365 38.884 30.85 38.3613C30.8612 37.8636 31.1987 37.559 31.7725 37.5567C32.7917 37.5499 33.8087 37.5545 34.828 37.5545Z" fill="white"/>
<path d="M13.543 5.62727C15.6175 5.62727 17.6897 5.62955 19.7642 5.625C20.176 5.625 20.4752 5.8 20.599 6.19091C20.7047 6.525 20.6395 6.84773 20.3582 7.09773C20.185 7.25 19.9847 7.29091 19.762 7.29091C15.5815 7.28864 11.401 7.29091 7.22272 7.28636C6.65797 7.28636 6.33847 6.95455 6.35197 6.43182C6.36322 5.93864 6.67822 5.63182 7.22272 5.62955C9.33097 5.62273 11.437 5.62727 13.543 5.62727Z" fill="white"/>
<path d="M16.614 10.4841C15.6105 10.4841 14.607 10.4887 13.6035 10.4818C12.996 10.4796 12.6652 10.1705 12.672 9.63865C12.6787 9.12502 13.0027 8.82502 13.581 8.82275C15.6217 8.8182 17.6625 8.8182 19.7032 8.82275C20.3107 8.82275 20.6415 9.13411 20.6347 9.66593C20.628 10.1909 20.295 10.4796 19.674 10.4841C18.6547 10.4887 17.6332 10.4841 16.614 10.4841Z" fill="white"/>
</svg>
