<svg width="50" height="50" viewBox="0 0 50 50" fill="none" xmlns="http://www.w3.org/2000/svg">
<g clip-path="url(#clip0_587_14064)">
<path d="M16.9536 9.92957C18.8854 9.92957 20.8149 9.93185 22.7467 9.9273C23.5217 9.9273 23.8854 9.57275 23.9013 8.79094C23.9149 8.01139 23.8967 7.23185 23.9104 6.45457C23.9149 6.15003 23.8013 6.04094 23.499 6.04548C22.7354 6.05912 21.974 6.05003 21.2104 6.05003C20.2763 6.04775 19.9558 5.7523 19.8831 4.81821C19.7331 2.9273 17.8945 1.66594 16.0899 2.21821C14.9263 2.57503 14.1263 3.60003 14.0422 4.84321C13.9854 5.69094 13.6104 6.04548 12.7695 6.04775C11.9922 6.05003 11.2126 6.05912 10.4354 6.04548C10.1308 6.04094 10.0195 6.15457 10.024 6.45457C10.0376 7.21821 10.0263 7.98184 10.0286 8.74548C10.0308 9.61366 10.3399 9.9273 11.2081 9.92957C13.1217 9.93184 15.0376 9.92957 16.9536 9.92957ZM-0.0078125 10.1341C0.430824 8.23184 1.52173 6.89321 3.3831 6.22503C3.97855 6.01139 4.59673 5.97048 5.22401 5.98185C5.95582 5.99548 6.68991 5.96594 7.42173 5.99321C7.82173 6.00685 7.96264 5.85457 7.91491 5.4773C7.90582 5.40003 7.91491 5.32275 7.91491 5.24321C7.92401 4.37275 8.32628 3.95912 9.20582 3.94775C9.98537 3.93639 10.7649 3.93184 11.5445 3.95003C11.8763 3.95685 12.0354 3.84776 12.1467 3.51821C12.8672 1.35912 14.7036 0.00457247 16.8695 2.70152e-05C19.1854 -0.00679117 20.9922 1.2773 21.749 3.49548C21.8672 3.84094 22.0354 3.95912 22.3854 3.95003C23.1331 3.92957 23.8831 3.93866 24.6308 3.94548C25.5899 3.9523 25.9967 4.35912 26.0104 5.31366C26.0217 5.98412 26.0217 5.97048 26.7172 5.98866C27.7899 6.02048 28.8717 5.86139 29.9354 6.07957C32.3058 6.56139 33.9604 8.59775 33.9717 11.0228C33.9808 12.9409 33.9763 14.8568 33.9717 16.775C33.9717 17.5614 33.5626 18.0273 32.899 18.0205C32.2581 18.0114 31.8626 17.55 31.8626 16.7864C31.8581 14.9159 31.8626 13.0455 31.8604 11.175C31.8558 9.31821 30.6445 8.1023 28.7899 8.09321C28.0558 8.08866 27.324 8.11366 26.5922 8.08412C26.1467 8.06366 25.9831 8.20685 26.0035 8.66366C26.0399 9.49548 25.8467 10.275 25.299 10.9296C24.7081 11.6364 23.9604 12.0341 23.024 12.0341C18.9876 12.0364 14.949 12.0387 10.9126 12.0341C9.26946 12.0318 7.95128 10.7182 7.91491 9.06821C7.89446 8.09094 7.89446 8.09093 6.90355 8.09093C6.26491 8.09093 5.62401 8.08639 4.98537 8.09321C3.29219 8.11594 2.07173 9.3273 2.06946 11.0296C2.06037 17.0932 2.06491 23.1568 2.06491 29.2205C2.06491 31.7455 2.06037 34.2705 2.06719 36.7978C2.07173 38.6682 3.26491 39.8591 5.13991 39.8614C9.63082 39.8659 14.1195 39.8614 18.6081 39.8637C19.349 39.8637 19.7558 40.0932 19.9354 40.5978C20.1604 41.225 19.7308 41.9023 19.0672 41.9614C18.9126 41.975 18.7558 41.9682 18.599 41.9682C14.1263 41.9682 9.65128 41.9182 5.17855 41.9887C2.71491 42.0273 0.503551 40.3205 0.0399146 37.9523C0.0308237 37.9068 0.00809659 37.8637 -0.0078125 37.8205V10.1341Z" fill="white"/>
<path d="M45.8081 34.9726C45.9172 29.4999 41.5149 24.0612 34.9354 24.0431C28.799 24.0249 23.9763 28.8703 24.0013 34.9771C24.0286 41.5612 29.4422 45.8612 34.8877 45.8658C40.874 45.8703 45.8717 40.9158 45.8081 34.9726ZM33.4786 47.9226C31.8513 47.6862 30.2763 47.2658 28.8286 46.4612C25.0172 44.3431 22.7036 41.1499 22.0354 36.8271C20.9604 29.8771 25.7558 23.3271 32.7127 22.1044C39.5195 20.9067 46.1104 25.3453 47.6331 32.1567C49.2195 39.2431 44.5399 46.3931 37.4331 47.7408C37.0831 47.8067 36.7308 47.8635 36.3786 47.9226H33.4786Z" fill="white"/>
<path d="M16.9364 18.0228C13.6477 18.0228 10.3591 18.025 7.07048 18.0205C6.32275 18.0205 5.90911 17.5978 5.95229 16.9046C5.97957 16.4318 6.27957 16.0841 6.78638 15.9682C6.98184 15.925 7.18866 15.9182 7.38866 15.9182C13.7637 15.9159 20.1364 15.9159 26.5114 15.9182C26.7114 15.9182 26.9182 15.9273 27.1137 15.9705C27.6682 16.0909 28.025 16.5614 27.9818 17.0773C27.9341 17.6159 27.4887 18.0182 26.8955 18.0205C24.3227 18.025 21.7523 18.0228 19.1796 18.0228H16.9364Z" fill="white"/>
<path d="M13.9424 24.0092H7.16513C6.36513 24.0092 5.94922 23.6546 5.94922 22.9842C5.94922 22.3342 6.39922 21.9092 7.15376 21.9092C11.6879 21.9023 16.2242 21.9023 20.7583 21.9092C21.406 21.9092 21.7924 22.1842 21.9492 22.6955C22.0833 23.1342 21.9288 23.4887 21.6015 23.7819C21.3606 23.9955 21.0697 24.0114 20.7674 24.0114C18.4924 24.0069 16.2174 24.0092 13.9424 24.0092Z" fill="white"/>
<path d="M11.9653 29.9956C10.3449 29.9956 8.72217 29.9978 7.10171 29.9956C6.37217 29.9933 5.9608 29.6342 5.94944 29.0001C5.93808 28.3592 6.36535 27.9115 7.07899 27.9001C8.30853 27.8774 9.54035 27.891 10.7722 27.891C12.754 27.891 14.7335 27.8865 16.7131 27.8933C17.4903 27.8956 17.9563 28.2797 17.9813 28.9069C18.0085 29.5637 17.6063 29.9887 16.9222 29.9933C15.2699 30.0001 13.6176 29.9956 11.9653 29.9956Z" fill="white"/>
<path d="M32.9142 39.9956C32.6096 39.9796 32.3483 39.8592 32.1278 39.641C30.8278 38.341 29.5233 37.0456 28.2324 35.7365C27.746 35.2433 27.7505 34.6365 28.2005 34.2024C28.6346 33.7819 29.2233 33.7842 29.7028 34.2546C30.6619 35.1887 31.6119 36.1365 32.546 37.0956C32.7869 37.3456 32.9051 37.366 33.1483 37.0842C35.0755 34.8569 37.021 32.6478 38.9596 30.4296C39.4369 29.8819 40.0846 29.766 40.5596 30.1524C41.0755 30.5706 41.096 31.1978 40.5733 31.7978C38.7528 33.8887 36.9233 35.9706 35.096 38.0569C34.6551 38.5615 34.2142 39.0637 33.771 39.5683C33.546 39.8251 33.2664 39.9774 32.9142 39.9956Z" fill="white"/>
</g>
<defs>
<clipPath id="clip0_587_14064">
<rect width="50" height="50" fill="white"/>
</clipPath>
</defs>
</svg>
