<svg width="50" height="51" viewBox="0 0 50 51" fill="none" xmlns="http://www.w3.org/2000/svg">
<g clip-path="url(#clip0_587_13706)">
<path d="M4.11304 35.2798C3.88478 35.3711 3.74348 35.5471 3.60217 35.7145C3.46956 35.8689 3.61304 35.9798 3.6913 36.0906C3.91956 36.4167 4.15217 36.7428 4.39348 37.0602C4.67826 37.4319 4.70652 37.8124 4.47609 38.2189C4.27826 38.5689 4.11087 38.9341 4.01957 39.3232C3.89783 39.8298 3.5587 40.0602 3.06957 40.1319C2.6913 40.1863 2.31739 40.2754 1.93696 40.308C1.6087 40.3363 1.56087 40.5124 1.56087 40.7884C1.56304 41.0906 1.68261 41.2145 1.98043 41.245C2.37609 41.2863 2.76739 41.3754 3.16087 41.4298C3.58696 41.4884 3.86087 41.7102 3.98478 42.1232C4.11304 42.5537 4.27609 42.9667 4.49783 43.358C4.7087 43.7276 4.67826 44.0906 4.42174 44.4341C4.17609 44.7689 3.94565 45.1145 3.68696 45.4406C3.5087 45.6667 3.54783 45.8232 3.74783 46.008C3.93696 46.1841 4.08261 46.3384 4.35 46.1211C4.68478 45.8515 5.04565 45.6145 5.39348 45.358C5.7087 45.1276 6.04565 45.095 6.38478 45.2732C6.81087 45.4971 7.24783 45.6884 7.7087 45.8276C8.10217 45.945 8.3087 46.2232 8.36739 46.6254C8.42826 47.0515 8.51087 47.4732 8.56522 47.9015C8.60435 48.208 8.80217 48.2341 9.04565 48.2341C9.27174 48.2341 9.44783 48.2145 9.48043 47.9232C9.52391 47.5276 9.61087 47.1363 9.66739 46.7428C9.73696 46.2558 9.95435 45.9124 10.463 45.7841C10.8652 45.6819 11.2457 45.508 11.6109 45.308C12.0043 45.0906 12.3717 45.1276 12.7283 45.3971C13.0457 45.6384 13.3826 45.8558 13.6935 46.108C13.9196 46.2906 14.0739 46.2515 14.2587 46.0515C14.4304 45.8624 14.5891 45.7145 14.3696 45.445C14.1065 45.1254 13.8826 44.7732 13.6348 44.4406C13.3804 44.0971 13.3326 43.7493 13.55 43.3689C13.7739 42.9798 13.9435 42.5645 14.063 42.1319C14.1804 41.7102 14.463 41.4993 14.8804 41.4341C15.2913 41.3711 15.6978 41.2841 16.1109 41.2428C16.4152 41.2124 16.4696 41.045 16.4652 40.7906C16.463 40.5515 16.4652 40.3493 16.1413 40.3145C15.7457 40.2732 15.3543 40.1906 14.9609 40.1276C14.4978 40.0537 14.1652 39.8384 14.0457 39.345C13.9478 38.9406 13.7652 38.5645 13.5609 38.2015C13.3457 37.8276 13.3674 37.4776 13.6239 37.1298C13.8696 36.7971 14.0957 36.4471 14.3522 36.1211C14.537 35.8863 14.5174 35.7189 14.3022 35.5102C14.0978 35.3145 13.9413 35.2363 13.6935 35.4363C13.3826 35.6863 13.0457 35.9037 12.7261 36.1428C12.3565 36.4232 11.9804 36.4689 11.5696 36.2276C11.2261 36.0232 10.8609 35.8515 10.4717 35.758C9.95652 35.6363 9.73913 35.2928 9.66739 34.8102C9.60652 34.4145 9.52609 34.0232 9.47826 33.6276C9.43696 33.2906 9.2 33.345 8.98043 33.3363C8.7413 33.3276 8.58913 33.395 8.5587 33.6711C8.51304 34.0819 8.43043 34.4906 8.36739 34.8993C8.29783 35.3341 8.07826 35.6319 7.63478 35.7471C7.46522 35.7906 7.2913 35.8384 7.13696 35.9189C5.76739 36.645 5.96739 36.5863 4.51739 35.5558C4.38696 35.4645 4.25652 35.3776 4.11304 35.2798ZM0 39.2515C0.502174 38.6841 1.22609 38.7928 1.86522 38.645C2.17826 38.5732 2.52174 38.6167 2.67609 38.195C2.79565 37.8711 2.80217 37.6363 2.57609 37.3667C2.28913 37.0232 2.03696 36.6515 1.78696 36.2819C1.48696 35.8406 1.51957 35.4558 1.8913 35.0711C2.36957 34.5798 2.85435 34.0906 3.34783 33.6145C3.72826 33.2493 4.07391 33.2232 4.51522 33.5189C4.91304 33.7863 5.29348 34.0776 5.68261 34.3558C6.16522 34.6993 6.76304 34.4515 6.86304 33.8645C6.93913 33.4254 7 32.9819 7.06956 32.5406C7.1587 31.9863 7.42609 31.7037 7.98478 31.6798C8.68696 31.6493 9.3913 31.6515 10.0935 31.6776C10.5935 31.6971 10.8696 31.9732 10.963 32.4732C11.0413 32.8798 11.1 33.2906 11.1652 33.6993C11.2957 34.5124 11.8435 34.7406 12.5043 34.2602C12.8413 34.0167 13.1739 33.7667 13.5152 33.5319C13.9565 33.2298 14.3043 33.2298 14.687 33.5863C15.213 34.0754 15.7217 34.5841 16.2109 35.1102C16.5696 35.4928 16.5717 35.8406 16.2674 36.2819C16.0261 36.6384 15.7652 36.9841 15.5109 37.3319C15.0674 37.9406 15.2957 38.4928 16.05 38.6254C16.4739 38.6993 16.9022 38.7558 17.3239 38.8363C17.8413 38.9319 18.1087 39.2189 18.1261 39.7515C18.15 40.4211 18.1522 41.095 18.1261 41.7645C18.1043 42.3711 17.8261 42.6384 17.213 42.7341C16.8348 42.7928 16.4587 42.8645 16.0804 42.9211C15.2935 43.0341 15.0565 43.5906 15.5261 44.2319C15.7804 44.5819 16.0413 44.9254 16.2804 45.2841C16.5739 45.7232 16.5478 46.0732 16.1848 46.4515C15.7087 46.945 15.2217 47.4298 14.7283 47.908C14.3435 48.2798 13.9587 48.3124 13.5196 48.0124C13.1109 47.7341 12.7196 47.4298 12.313 47.145C11.9348 46.8819 11.3261 47.108 11.2304 47.5602C11.137 47.9971 11.0696 48.4384 11.0087 48.8798C10.9587 49.2428 10.8217 49.5537 10.5478 49.7993H7.57609C7.25 49.6037 7.09783 49.3124 7.0587 48.9363C7.01087 48.4928 6.93478 48.0515 6.85 47.6145C6.74783 47.0971 6.1413 46.8624 5.71304 47.1667C5.32174 47.4428 4.94348 47.7341 4.54783 48.0037C4.1 48.3058 3.71304 48.2863 3.33261 47.9211C2.83696 47.4493 2.35217 46.9645 1.87826 46.4667C1.51522 46.0863 1.49348 45.6993 1.79565 45.2537C2.03696 44.8971 2.29565 44.5515 2.54783 44.2037C2.98913 43.595 2.74565 43.0319 1.99565 42.9232C1.61739 42.8667 1.24348 42.7819 0.865217 42.7406C0.486957 42.7015 0.195652 42.5537 0 42.2232V39.2515Z" fill="white"/>
<path d="M20.801 19.8494C22.0945 19.8494 23.3901 19.8429 24.6836 19.8537C25.0293 19.8581 25.0706 19.7516 24.9054 19.4711C24.4641 18.7298 24.0401 17.9798 23.601 17.2364C23.3641 16.8342 23.0206 16.6298 22.5358 16.6342C20.8749 16.6451 19.2119 16.632 17.551 16.6407C16.8684 16.6429 16.538 16.9864 16.5271 17.6842C16.5184 18.2429 16.5445 18.8037 16.5184 19.3603C16.5032 19.7385 16.638 19.8624 17.0141 19.8559C18.2771 19.8385 19.538 19.8494 20.801 19.8494ZM25.5706 21.5168C22.7597 21.5168 19.9467 21.5277 17.1358 21.5081C16.6467 21.5037 16.5119 21.6537 16.5162 22.1342C16.5358 24.9951 16.5249 27.8537 16.5249 30.7146C16.5271 31.6277 16.8423 31.9364 17.7749 31.9364C23.1271 31.9385 28.4793 31.9385 33.8315 31.9364C34.7793 31.9364 35.0706 31.6494 35.0706 30.7168C35.0728 28.0646 35.0728 25.4124 35.0706 22.7603C35.0706 21.7798 34.8097 21.519 33.8162 21.519C31.0662 21.5168 28.3184 21.5168 25.5706 21.5168ZM25.7988 33.6146C23.1141 33.6168 20.4315 33.6168 17.7467 33.6146C15.9554 33.6146 14.8641 32.5516 14.8597 30.7624C14.8488 26.4494 14.8488 22.1342 14.8597 17.8211C14.8619 16.0211 15.9401 14.9624 17.7293 14.9624C19.2967 14.9603 20.8619 14.9668 22.4271 14.9603C23.601 14.9537 24.4836 15.4429 25.0706 16.4668C25.6249 17.4364 26.2054 18.3929 26.7445 19.3733C26.938 19.7255 27.1662 19.8624 27.5728 19.8581C29.7141 19.8407 31.8554 19.8472 33.9945 19.8516C35.6358 19.8537 36.7401 20.9385 36.7467 22.5777C36.7554 25.3255 36.7554 28.0755 36.7467 30.8233C36.7401 32.5124 35.6336 33.6124 33.9467 33.6146C31.2315 33.619 28.5141 33.6146 25.7988 33.6146Z" fill="white"/>
<path d="M37.0141 14.108C37.2119 14.1123 37.3793 14.2123 37.5532 14.2884C37.9032 14.445 38.2467 14.6341 38.6119 14.7319C39.1401 14.8754 39.3662 15.2167 39.4358 15.721C39.4836 16.0689 39.5706 16.4123 39.5988 16.7602C39.6249 17.0993 39.7923 17.1776 40.101 17.1732C40.4032 17.1667 40.5227 17.0558 40.5488 16.7536C40.5836 16.358 40.6727 15.9667 40.7358 15.5732C40.8032 15.1536 41.0227 14.8776 41.4423 14.7602C41.8749 14.6428 42.288 14.471 42.6793 14.2471C43.0401 14.0428 43.3793 14.0754 43.7097 14.3167C44.0575 14.571 44.4184 14.808 44.7554 15.0776C45.001 15.2732 45.151 15.1602 45.3227 14.9841C45.4901 14.8145 45.6358 14.6754 45.4271 14.4254C45.1836 14.1297 44.9836 13.7971 44.7467 13.4993C44.4314 13.1036 44.3901 12.7102 44.6293 12.2558C44.8162 11.9058 44.9727 11.5319 45.0836 11.1536C45.2249 10.6689 45.5401 10.4471 46.0075 10.3754C46.3858 10.3167 46.7597 10.2341 47.1401 10.1971C47.4445 10.1667 47.5423 10.0341 47.5401 9.73626C47.538 9.41017 47.4119 9.28191 47.0945 9.25365C46.7141 9.21887 46.3401 9.12321 45.9597 9.07539C45.5119 9.01669 45.2293 8.78626 45.1054 8.35365C44.9858 7.93843 44.8206 7.54061 44.6097 7.16234C44.3923 6.77321 44.4206 6.40365 44.6901 6.04495C44.9401 5.71234 45.1684 5.36452 45.4271 5.04061C45.6227 4.79713 45.5119 4.6493 45.3314 4.47539C45.1597 4.308 45.0206 4.17104 44.7684 4.36887C44.4184 4.64713 44.0467 4.89495 43.6836 5.15582C43.3662 5.38408 43.0271 5.40148 42.6901 5.21669C42.2967 4.9993 41.888 4.82321 41.4575 4.6993C41.0032 4.57104 40.7749 4.27104 40.7227 3.80365C40.6771 3.39278 40.588 2.98626 40.5293 2.57539C40.4901 2.29713 40.301 2.26669 40.0749 2.26887C39.8641 2.27104 39.6597 2.25365 39.6227 2.558C39.5749 2.96887 39.4923 3.37539 39.4314 3.78626C39.3641 4.25582 39.1423 4.58408 38.6575 4.708C38.2532 4.81017 37.8727 4.97756 37.5097 5.18408C37.101 5.41452 36.7206 5.37321 36.351 5.09061C36.0336 4.84713 35.6945 4.63408 35.3858 4.37974C35.1423 4.17756 34.9967 4.29061 34.8249 4.47104C34.6597 4.64278 34.5162 4.78626 34.7184 5.03843C34.9771 5.36235 35.201 5.71234 35.451 6.04278C35.7227 6.3993 35.7662 6.76017 35.5358 7.15582C35.3445 7.48843 35.1793 7.83843 35.0901 8.21235C34.9575 8.77104 34.6119 9.04495 34.0445 9.09061C33.7141 9.11887 33.388 9.22539 33.0554 9.25148C32.7575 9.27756 32.6314 9.38626 32.6293 9.69495C32.6271 9.99495 32.6858 10.1863 33.0336 10.2015C33.2554 10.2102 33.4727 10.2971 33.6945 10.3036C34.5184 10.3363 34.8814 10.7732 35.2206 11.5319C35.9054 13.0645 35.8358 12.858 34.8141 14.2906C34.6293 14.5493 34.5184 14.7319 34.8141 15.0167C35.101 15.295 35.2771 15.1602 35.5054 14.9884C35.7988 14.7689 36.0988 14.5558 36.3967 14.3428C36.5814 14.2123 36.7793 14.108 37.0141 14.108ZM32.6141 14.7863C32.6336 14.5754 32.7075 14.3841 32.8336 14.2123C33.0858 13.8623 33.338 13.5123 33.5923 13.1645C34.0227 12.571 33.8097 12.0189 33.0901 11.8863C32.651 11.8058 32.2075 11.7471 31.7684 11.6645C31.2706 11.571 30.9945 11.2928 30.9771 10.7906C30.9488 10.0884 30.9467 9.38408 30.9771 8.68408C31.0032 8.12539 31.288 7.86017 31.8445 7.77104C32.238 7.708 32.6314 7.63843 33.0249 7.58191C33.8097 7.46669 34.0401 6.91017 33.5706 6.26452C33.3162 5.91669 33.0554 5.57104 32.8162 5.21235C32.5227 4.77321 32.551 4.42756 32.9184 4.04713C33.3945 3.55365 33.8814 3.06887 34.3749 2.59061C34.7575 2.21887 35.1401 2.18843 35.5836 2.49061C35.9923 2.77104 36.3836 3.07539 36.7901 3.358C37.1684 3.62321 37.7749 3.39278 37.8706 2.93843C37.9749 2.43843 38.038 1.93191 38.1358 1.43191C38.2467 0.871041 38.4858 0.675388 39.0597 0.67104C39.7467 0.666693 40.4336 0.664519 41.1206 0.673215C41.6662 0.679737 41.9358 0.921041 42.0249 1.46235C42.0945 1.87104 42.1619 2.28191 42.2227 2.69061C42.3314 3.44713 42.8945 3.69495 43.5032 3.25148C43.851 2.99713 44.1967 2.73843 44.5532 2.49713C45.0162 2.18626 45.3923 2.21887 45.8032 2.61452C46.2749 3.06887 46.7401 3.53191 47.1923 4.00365C47.5836 4.41017 47.6141 4.79061 47.2988 5.25582C47.038 5.63843 46.7575 6.008 46.488 6.38408C46.1445 6.86669 46.388 7.46235 46.9749 7.56235C47.4314 7.64061 47.8901 7.70148 48.3467 7.77756C48.8814 7.86669 49.1227 8.14061 49.1293 8.68843C49.138 9.39278 49.138 10.095 49.1293 10.7971C49.1227 11.3036 48.9119 11.558 48.4075 11.658C47.9097 11.7602 47.401 11.8189 46.901 11.921C46.388 12.0276 46.1706 12.6254 46.4771 13.058C46.7358 13.4232 47.0054 13.7797 47.2619 14.145C47.6249 14.6602 47.601 15.0297 47.1706 15.4689C46.7141 15.9384 46.251 16.4015 45.7814 16.858C45.3641 17.2623 45.0271 17.2863 44.5401 16.9515C44.1575 16.6906 43.788 16.4102 43.4119 16.1428C42.9336 15.8036 42.3336 16.058 42.2358 16.6428C42.1597 17.0841 42.0988 17.5254 42.0271 17.9667C41.9401 18.5189 41.6684 18.7993 41.1075 18.8232C40.4054 18.8515 39.701 18.8536 38.9988 18.821C38.5162 18.7993 38.2054 18.5276 38.1314 18.021C38.0684 17.595 37.9988 17.171 37.9227 16.7471C37.7923 15.9993 37.2358 15.7732 36.6271 16.2167C36.2662 16.4797 35.9054 16.7471 35.538 17.0015C35.1836 17.2471 34.801 17.2689 34.4814 16.971C33.9097 16.4363 33.3662 15.871 32.8206 15.3123C32.6836 15.1732 32.6314 14.9819 32.6141 14.7863Z" fill="white"/>
<path d="M26.2187 4.40137C25.8035 3.84268 25.4404 3.36224 25.0861 2.87529C24.6991 2.3405 24.723 1.88181 25.1404 1.56876C25.5491 1.26007 26.0165 1.37311 26.41 1.8905C27.2296 2.97311 28.0491 4.05572 28.8578 5.14702C29.3491 5.80789 29.223 6.30137 28.4687 6.63181C27.1817 7.19703 25.8861 7.74268 24.5904 8.28398C24.0883 8.49268 23.61 8.30572 23.4317 7.86224C23.2578 7.43398 23.4469 7.01442 23.9469 6.77963C24.4665 6.53616 24.9969 6.32094 25.6165 6.05137C24.3143 5.80789 23.0948 5.75137 21.8796 5.82963C19.2339 6.00355 16.7078 6.65789 14.3904 7.96659C9.25999 10.8579 6.21434 15.2188 5.2926 21.0405C4.89042 23.5709 5.11216 26.0666 5.81216 28.5253C5.85999 28.6927 5.90782 28.8688 5.90999 29.0405C5.91651 29.4427 5.62086 29.7666 5.21434 29.8362C4.8339 29.9014 4.4426 29.6622 4.3013 29.2253C3.9926 28.2492 3.76651 27.2514 3.62956 26.2383C3.06869 22.0753 3.72521 18.1057 5.74477 14.4253C8.81216 8.83398 13.5383 5.50572 19.823 4.4079C21.8361 4.05572 23.8535 4.06224 25.8709 4.3992C25.9469 4.41224 26.0274 4.40137 26.2187 4.40137Z" fill="white"/>
<path d="M22.8768 46.0994C23.292 46.6581 23.6572 47.1385 24.0094 47.6276C24.392 48.1559 24.3659 48.6233 23.9529 48.9363C23.5594 49.2341 23.0637 49.1102 22.6811 48.6037C21.8594 47.5211 21.0398 46.4385 20.2333 45.3472C19.7442 44.6885 19.879 44.1907 20.6311 43.8646C21.892 43.3189 23.155 42.7841 24.4224 42.2537C24.9811 42.0189 25.442 42.1581 25.6463 42.6015C25.8616 43.0624 25.6463 43.4972 25.0572 43.7689C24.8116 43.882 24.5594 43.982 24.3094 44.0907C24.0637 44.1972 23.8181 44.3059 23.4811 44.4537C24.7529 44.6863 25.9398 44.7472 27.1268 44.6733C29.8224 44.5102 32.3942 43.8472 34.7529 42.5081C39.8572 39.6124 42.8855 35.2581 43.8029 29.4559C44.2029 26.9233 43.979 24.4298 43.279 21.9711C43.2659 21.9254 43.2463 21.8798 43.2355 21.8341C43.0942 21.2385 43.2898 20.8341 43.792 20.6928C44.2485 20.5624 44.6507 20.8189 44.8224 21.3733C45.1159 22.3211 45.3333 23.2863 45.4659 24.2689C46.0333 28.4841 45.3507 32.4972 43.279 36.2081C40.2116 41.7015 35.5333 45.0037 29.3203 46.0907C27.3072 46.4428 25.2877 46.445 23.2724 46.1015C23.1811 46.0863 23.0833 46.0994 22.8768 46.0994Z" fill="white"/>
<path d="M11.4824 40.7602C11.4824 39.4102 10.402 38.3211 9.05852 38.3167C7.66505 38.3124 6.54548 39.4167 6.552 40.7885C6.55852 42.1385 7.68896 43.2559 9.03896 43.2472C10.3911 43.2406 11.4824 42.1298 11.4824 40.7602ZM9.04548 36.6385C11.2911 36.6515 13.1629 38.5341 13.1607 40.7798C13.1585 43.0189 11.2803 44.8993 9.03026 44.9146C6.81722 44.9298 4.89765 43.0189 4.88679 40.7885C4.87374 38.5363 6.78678 36.6276 9.04548 36.6385Z" fill="white"/>
<path d="M40.0595 12.184C41.4269 12.184 42.5377 11.0905 42.5443 9.73618C42.5508 8.38618 41.4334 7.25792 40.0834 7.25357C38.7095 7.24923 37.6073 8.36879 37.6138 9.76227C37.6203 11.1057 38.7095 12.184 40.0595 12.184ZM35.9356 9.70792C35.9443 7.46879 37.8334 5.58836 40.0769 5.58618C42.3008 5.58618 44.2138 7.49923 44.2117 9.72314C44.2095 11.984 42.2964 13.8797 40.0377 13.8623C37.7943 13.8449 35.929 11.9557 35.9356 9.70792Z" fill="white"/>
</g>
<defs>
<clipPath id="clip0_587_13706">
<rect width="50" height="50" fill="white" transform="translate(0 0.666748)"/>
</clipPath>
</defs>
</svg>
