<svg width="52" height="51" viewBox="0 0 52 51" fill="none" xmlns="http://www.w3.org/2000/svg">
<g clip-path="url(#clip0_587_13623)">
<path d="M25.3667 4.77151C23.3316 5.74532 21.7196 7.19056 20.4716 9.05246C20.292 9.32389 20.4196 9.38342 20.6749 9.38342C21.3698 9.37865 22.0647 9.38104 22.7596 9.38104C23.5869 9.38104 23.5845 9.38103 23.802 8.60246C23.8776 8.33342 23.9698 8.06913 24.0525 7.80246C24.3811 6.75008 24.8845 5.77627 25.3667 4.77151ZM25.5629 27.3072C24.6907 25.8429 24.1092 24.3739 23.6838 22.8429C23.6081 22.5739 23.4096 22.562 23.1945 22.562C22.4121 22.562 21.6298 22.5572 20.8498 22.562C20.7009 22.5644 20.5023 22.4858 20.4125 22.6382C20.3203 22.7977 20.4952 22.9239 20.5803 23.0477C21.5116 24.4215 22.6816 25.5572 24.0501 26.4834C24.4921 26.781 24.9412 27.0739 25.5629 27.3072ZM36.3009 27.2929C36.5892 27.1334 36.88 26.981 37.1636 26.812C38.7898 25.8525 40.1441 24.5977 41.1841 23.0072C41.3 22.8334 41.5316 22.5739 41.066 22.5667C40.182 22.5525 39.2956 22.5644 38.4116 22.5644C38.2083 22.5644 38.0807 22.6667 38.0358 22.8596C37.667 24.4144 37.0572 25.8715 36.3009 27.2929ZM36.2536 4.75723C36.2489 4.81913 36.2323 4.85723 36.2441 4.88103C37.0218 6.21199 37.5914 7.63342 38.005 9.11675C38.0878 9.41199 38.2603 9.49294 38.5345 9.49056C39.3145 9.48342 40.0945 9.49294 40.8745 9.4858C41.021 9.4858 41.2172 9.55723 41.3047 9.3977C41.3945 9.2358 41.2314 9.10722 41.1487 8.98341C40.2316 7.60246 39.0947 6.44294 37.7096 5.53818C37.251 5.23818 36.7854 4.94294 36.2536 4.75723ZM40.9903 14.8596C41.5623 14.8596 42.1343 14.8477 42.704 14.8644C43.0727 14.8739 43.2145 14.7167 43.1601 14.3596C43.049 13.6167 42.9072 12.8834 42.6543 12.1739C42.5645 11.9263 42.4085 11.8144 42.1485 11.8144C41.1109 11.8167 40.0709 11.8167 39.0309 11.8144C38.7023 11.8144 38.6054 11.9882 38.6598 12.2882C38.7827 12.9929 38.8749 13.7001 38.8489 14.4191C38.837 14.7739 39.0143 14.8691 39.3263 14.862C39.8818 14.8525 40.4349 14.8596 40.9903 14.8596ZM20.6749 14.8596C21.2469 14.8596 21.8189 14.8525 22.3909 14.862C22.684 14.8667 22.8423 14.762 22.866 14.4501C22.9227 13.7215 22.97 12.9882 23.0692 12.2644C23.1212 11.8882 22.9865 11.8072 22.6603 11.8096C21.6558 11.8191 20.6489 11.8215 19.6443 11.8096C19.3158 11.8048 19.1409 11.9334 19.0345 12.2477C18.8052 12.9287 18.6894 13.631 18.5523 14.3334C18.472 14.7406 18.6232 14.8739 19.0109 14.8644C19.564 14.8501 20.1194 14.8596 20.6749 14.8596ZM20.6772 17.1953C20.0887 17.1953 19.4978 17.1977 18.9092 17.1929C18.6232 17.1906 18.4909 17.3025 18.55 17.6096C18.7012 18.3977 18.888 19.1763 19.1243 19.9429C19.2047 20.2072 19.3583 20.2977 19.6183 20.2953C20.6607 20.2882 21.7007 20.2906 22.7407 20.2953C23.022 20.2977 23.1449 20.2334 23.0834 19.8977C22.9463 19.1453 22.8565 18.381 22.8423 17.612C22.8376 17.2882 22.6887 17.1858 22.3932 17.1906C21.8212 17.2001 21.2492 17.1929 20.6772 17.1953ZM41.0258 17.1929C40.4514 17.1929 39.8794 17.1953 39.305 17.1929C39.0592 17.1906 38.8441 17.2263 38.856 17.5501C38.8796 18.3429 38.7614 19.1191 38.6338 19.8953C38.5865 20.1882 38.6645 20.3025 38.9789 20.3001C40.0378 20.2834 41.0967 20.2906 42.158 20.2953C42.373 20.2953 42.522 20.231 42.6023 20.0191C42.893 19.2644 43.0632 18.481 43.1649 17.681C43.2121 17.312 43.049 17.1787 42.6921 17.1882C42.1367 17.2048 41.5812 17.1929 41.0258 17.1929ZM27.3261 14.8596C27.9336 14.8596 28.541 14.8501 29.1485 14.8644C29.496 14.8715 29.6567 14.7358 29.652 14.3739C29.6401 13.6929 29.6378 13.012 29.652 12.331C29.659 11.9429 29.4865 11.8072 29.1178 11.8096C28.0423 11.8215 26.9669 11.8191 25.8938 11.812C25.5889 11.8096 25.4045 11.8929 25.369 12.2358C25.2934 12.981 25.1918 13.7239 25.0996 14.4667C25.0618 14.7787 25.239 14.862 25.5061 14.8596C26.1136 14.8548 26.721 14.8596 27.3261 14.8596ZM34.2516 14.8596C34.8591 14.8596 35.4665 14.8429 36.074 14.8667C36.49 14.8834 36.6176 14.712 36.6034 14.3096C36.5798 13.6072 36.4781 12.9191 36.386 12.2263C36.341 11.8858 36.126 11.812 35.8329 11.8144C34.7054 11.8167 33.578 11.8215 32.4481 11.8096C32.096 11.8072 31.947 11.9453 31.9541 12.3072C31.9707 12.9882 31.9754 13.6715 31.9541 14.3525C31.9423 14.7501 32.1078 14.8763 32.4812 14.8644C33.0698 14.8477 33.6607 14.8596 34.2516 14.8596ZM34.4667 17.1953C33.8427 17.1953 33.2187 17.1977 32.597 17.1929C32.33 17.1906 32.1669 17.2763 32.1692 17.581C32.1763 18.3644 32.174 19.1501 32.1716 19.9334C32.1692 20.2096 32.3134 20.2953 32.564 20.2953C33.7056 20.2906 34.8496 20.2858 35.9912 20.2977C36.2701 20.3001 36.4214 20.1834 36.4545 19.9191C36.542 19.1763 36.6176 18.431 36.7003 17.6882C36.7405 17.3334 36.5987 17.1787 36.2323 17.1882C35.6438 17.2048 35.0552 17.1929 34.4667 17.1953ZM32.0652 6.57389C32.0652 7.37865 32.0747 8.18342 32.0605 8.98818C32.0534 9.33342 32.1574 9.50008 32.5309 9.49532C33.4858 9.47865 34.443 9.48103 35.398 9.49532C35.7383 9.50008 35.8258 9.3977 35.717 9.06199C35.327 7.85961 34.8472 6.70246 34.1287 5.65723C33.689 5.01913 33.1785 4.45246 32.5309 4.01913C32.2141 3.80723 32.044 3.79294 32.0581 4.26437C32.0794 5.03341 32.0629 5.80246 32.0652 6.57389ZM32.0629 25.4215C32.0629 26.0001 32.0487 26.5787 32.07 27.1548C32.0818 27.4929 31.8974 28.0191 32.1692 28.1263C32.5001 28.2548 32.8287 27.8334 33.1052 27.5787C34.4691 26.3144 35.164 24.662 35.7336 22.9358C35.847 22.5953 35.6745 22.5548 35.4003 22.5572C34.462 22.5644 33.5236 22.5763 32.5852 22.5525C32.1598 22.5429 32.0463 22.7167 32.0581 23.112C32.0794 23.8834 32.0629 24.6525 32.0629 25.4215ZM27.4656 17.1929C26.825 17.1929 26.1821 17.1977 25.5416 17.1906C25.258 17.1882 25.0547 17.262 25.0949 17.6001C25.187 18.3596 25.1894 19.1287 25.3454 19.8834C25.4021 20.162 25.5156 20.3025 25.8252 20.2977C27.0047 20.2834 28.1818 20.2858 29.3589 20.2977C29.7016 20.3025 29.8198 20.1691 29.8127 19.8358C29.7985 19.1191 29.7914 18.4025 29.8151 17.6882C29.8269 17.2834 29.6472 17.1763 29.2832 17.1882C28.6781 17.2048 28.0707 17.1929 27.4656 17.1929ZM29.808 25.4715C29.808 24.6667 29.7985 23.862 29.8127 23.0572C29.8198 22.7048 29.7111 22.5477 29.34 22.5548C28.3827 22.5715 27.4278 22.5715 26.4729 22.5548C26.0545 22.5477 26.012 22.712 26.1301 23.0667C26.4611 24.0644 26.8463 25.0382 27.3971 25.9358C27.9147 26.7787 28.515 27.5382 29.3636 28.0739C29.678 28.2715 29.8221 28.2572 29.8127 27.8334C29.7985 27.0477 29.808 26.2596 29.808 25.4715ZM29.808 6.63103C29.808 5.82627 29.7961 5.02151 29.8127 4.21675C29.8221 3.79294 29.6756 3.77151 29.3636 3.97865C28.8672 4.30961 28.4252 4.6977 28.0541 5.16675C27.156 6.30723 26.5792 7.60961 26.1301 8.98104C25.993 9.40246 26.1254 9.50246 26.5249 9.49532C27.4443 9.47865 28.3661 9.47389 29.2856 9.4977C29.7087 9.50723 29.8269 9.33818 29.8151 8.94056C29.7938 8.17151 29.808 7.40008 29.808 6.63103ZM24.2085 46.6858C25.674 46.6763 26.8983 45.4453 26.8983 43.9763C26.8983 42.512 25.6149 41.2453 24.14 41.262C22.7052 41.2787 21.4643 42.5644 21.4856 44.0191C21.5045 45.5072 22.7194 46.6953 24.2085 46.6858ZM43.8527 46.6858C45.3985 46.681 46.5236 45.5263 46.5141 43.9525C46.5047 42.481 45.278 41.2596 43.8172 41.262C42.3423 41.2668 41.1298 42.5167 41.1392 44.0287C41.1463 45.4929 42.3707 46.6929 43.8527 46.6858ZM29.7465 32.3953C33.7765 32.3953 37.8065 32.3834 41.8365 32.4072C42.3589 32.4096 42.5976 32.2358 42.782 31.7501C43.5194 29.8072 44.3018 27.881 45.0676 25.9477C46.1454 23.2167 47.2256 20.4882 48.3034 17.7572C48.5138 17.2239 48.4972 17.1977 47.937 17.1929C47.2752 17.1882 46.6158 17.2048 45.9563 17.1882C45.5994 17.181 45.4576 17.3501 45.4245 17.6834C45.3867 18.0667 45.3489 18.4501 45.278 18.8263C43.7818 26.8548 36.0527 32.1953 28.1629 30.6667C21.9063 29.4548 16.8907 24.0501 16.2761 17.6429C16.243 17.3048 16.1249 17.1834 15.7987 17.1882C15.0352 17.2001 14.2694 17.2096 13.506 17.1858C13.0545 17.1715 12.9883 17.3287 13.1018 17.7453C14.3852 22.431 15.6592 27.1167 16.912 31.8096C17.0372 32.2834 17.2547 32.4048 17.7061 32.4025C21.7196 32.3882 25.733 32.3953 29.7465 32.3953ZM19.9965 41.1548C19.441 41.1548 18.8927 41.1572 18.342 41.1525C17.4532 41.1477 17.12 40.8906 16.8907 40.0406C13.5981 27.8977 10.3032 15.7548 7.0225 3.60961C6.8996 3.15484 6.7176 2.98341 6.24723 2.99056C4.75105 3.01675 3.25723 3.00484 1.76341 2.9977C1.47032 2.99532 1.1725 2.97389 0.881778 2.92151C0.352323 2.82865 0.0308701 2.43818 0.00487007 1.90484C-0.0234936 1.32865 0.260141 0.916748 0.787232 0.750081C1.0236 0.673891 1.26469 0.666748 1.50814 0.666748C3.43687 0.669129 5.3656 0.666751 7.29432 0.669132C8.26814 0.671513 8.5825 0.92151 8.83778 1.87389C9.95341 6.00722 11.0785 10.1382 12.1752 14.2787C12.3171 14.8191 12.5581 15.0096 13.1112 14.9787C13.9952 14.931 14.884 14.9572 15.7703 14.9691C16.1154 14.9739 16.2454 14.8548 16.2785 14.4906C16.8789 7.83104 22.1971 2.30008 28.7561 1.37389C36.6767 0.257226 43.8503 5.56913 45.3796 13.4096C45.4316 13.6834 45.4789 13.9596 45.5143 14.2358C45.6018 14.9644 45.597 14.9644 46.3463 14.9667C47.5281 14.9667 48.71 14.9691 49.8894 14.9644C50.2061 14.9644 50.5205 14.9834 50.8136 15.1001C51.2816 15.2858 51.5392 15.7953 51.3927 16.3048C51.2698 16.7382 51.0996 17.162 50.9318 17.5834C48.8281 22.8977 46.7198 28.2096 44.6138 33.5215C44.212 34.5334 43.9401 34.7239 42.8623 34.7239C34.781 34.7263 26.7021 34.7263 18.6209 34.7263C17.7771 34.7263 17.7747 34.7263 17.9851 35.5358C18.2332 36.4834 18.5098 37.4215 18.7249 38.3763C18.8336 38.8644 19.0534 39.0025 19.5427 39.0025C28.8554 38.9858 38.1705 38.9906 47.4832 38.9906C48.3696 38.9906 49.256 38.9858 50.1423 38.9929C50.894 38.9977 51.3383 39.3715 51.3572 39.9977C51.3761 40.6834 50.9176 41.131 50.1541 41.1501C49.6861 41.162 49.2158 41.1715 48.7478 41.1501C48.3436 41.131 48.2561 41.231 48.4594 41.612C49.0503 42.7239 49.1756 43.9048 48.8494 45.1191C48.1805 47.6072 46.0083 48.9787 43.8716 48.8906C41.4536 48.7906 39.4209 46.9025 39.1231 44.5715C38.9954 43.5667 39.097 42.5691 39.584 41.662C39.8109 41.2358 39.7329 41.1453 39.2696 41.1477C35.8801 41.1596 32.493 41.1525 29.1036 41.1548C28.5032 41.1548 28.5032 41.1596 28.768 41.7215C30.3138 45.0025 27.9596 48.8929 24.355 48.8953C20.6772 48.9001 18.2474 45.0929 19.7814 41.7382C19.8594 41.5691 20.0036 41.4239 19.9965 41.1548Z" fill="white"/>
</g>
<defs>
<clipPath id="clip0_587_13623">
<rect width="52" height="50" fill="white" transform="translate(0 0.666748)"/>
</clipPath>
</defs>
</svg>
