<svg width="50" height="50" viewBox="0 0 50 50" fill="none" xmlns="http://www.w3.org/2000/svg">
<g clip-path="url(#clip0_587_13631)">
<path d="M38.4949 11.2545V11.2522C38.9108 11.2522 39.3267 11.2545 39.7426 11.2522C39.8971 11.2522 40.0699 11.2363 40.079 11.0409C40.0949 10.675 40.0949 10.3091 40.0812 9.94315C40.0744 9.74769 39.913 9.72042 39.754 9.72042H37.3108C37.154 9.72042 36.9835 9.73633 36.9721 9.93179C36.9517 10.3295 36.8403 10.7682 37.0199 11.1113C37.179 11.4181 37.5949 11.2159 37.8971 11.25C38.0949 11.2727 38.2949 11.2545 38.4949 11.2545ZM37.7585 6.45451C37.7585 6.63633 37.7562 6.82042 37.7585 7.00224C37.7812 8.18406 37.5585 8.02497 38.829 8.04997C39.1653 8.05679 39.313 7.94997 39.2994 7.59542C39.279 7.04769 39.3017 6.49769 39.2926 5.94997C39.2744 4.76815 39.4926 4.92724 38.2244 4.90224C37.8858 4.89542 37.7335 5.00224 37.754 5.35678C37.7744 5.72269 37.7585 6.0886 37.7585 6.45451ZM38.4994 14.4613C39.3335 14.4613 40.1676 14.4772 41.0017 14.4545C41.2449 14.4477 41.604 14.6341 41.6949 14.1932C41.7926 13.7136 41.5767 13.1954 41.2153 13.0295C41.029 12.9454 40.8312 12.925 40.629 12.9272C39.2267 12.9295 37.8267 12.9227 36.4244 12.9295C35.6494 12.9341 35.3426 13.2795 35.3471 14.0431C35.3471 14.3795 35.488 14.4704 35.7994 14.4659C36.6994 14.4545 37.5994 14.4613 38.4994 14.4613ZM6.41077 45.0227C6.41077 44.6386 6.39714 44.2568 6.41532 43.875C6.43123 43.5409 6.32441 43.3886 5.96532 43.3977C5.21532 43.4181 4.46532 43.4136 3.71759 43.4C3.40623 43.3932 3.26077 43.4886 3.26759 43.825C3.2835 44.5909 3.27896 45.3568 3.26987 46.1227C3.26532 46.4113 3.35623 46.55 3.66759 46.5454C4.45168 46.5341 5.2335 46.5341 6.01532 46.5454C6.32895 46.55 6.42441 46.4091 6.41305 46.1204C6.40168 45.7545 6.41077 45.3886 6.41077 45.0227ZM25.7176 5.68178H25.729C25.729 6.73406 25.729 7.78633 25.7267 8.8386C25.7267 9.65224 25.7244 9.65679 26.5676 9.6477C26.779 9.64542 27.0176 9.72951 27.1926 9.55679C27.4199 9.33179 27.2199 8.21588 26.9358 8.04769C26.388 7.72269 26.229 6.95679 26.738 6.68633C27.3767 6.34542 27.2471 5.84997 27.2653 5.34315C27.2744 5.09997 27.1994 4.96588 26.9653 4.84088C26.2676 4.47042 26.2585 3.66815 26.954 3.30679C27.2153 3.17042 27.2699 3.0136 27.2653 2.76133C27.2449 1.5136 27.4153 1.72042 26.204 1.69997C26.138 1.69769 26.0699 1.70451 26.004 1.6977C25.7585 1.67724 25.7062 1.78406 25.7085 2.02497C25.7244 3.24315 25.7176 4.4636 25.7176 5.68178ZM39.888 3.23406H43.7471C43.9471 3.23406 44.1449 3.23178 44.3403 3.1636C44.6812 3.04315 44.8721 2.79769 44.8676 2.44997C44.8608 2.12724 44.6835 1.87724 44.3562 1.78179C44.1835 1.73179 43.9971 1.70224 43.8153 1.70224C41.3608 1.69769 38.904 1.69769 36.4494 1.70224C36.2676 1.70224 36.079 1.72497 35.9085 1.78179C35.488 1.92269 35.2699 2.40224 35.3562 2.94315C35.4358 3.43633 35.829 3.21815 36.079 3.22269C37.3494 3.24769 38.6176 3.23406 39.888 3.23406ZM20.9153 16.0454C20.9153 17.3454 20.9108 18.6477 20.9176 19.9477C20.9221 20.9909 20.7903 20.8454 21.854 20.8886C22.354 20.9091 22.4653 20.725 22.4608 20.2591C22.4426 17.6068 22.4562 14.9545 22.4494 12.3045C22.4471 11.1954 22.604 11.3522 21.4653 11.3136C21.0085 11.2977 20.9017 11.4682 20.9085 11.8932C20.9312 13.2772 20.9153 14.6613 20.9153 16.0454ZM8.04714 5.70906C6.24486 5.70906 4.44259 5.70678 2.64032 5.70906C1.66532 5.71133 1.76078 5.61133 1.76532 6.59997C1.76987 7.24315 1.77214 7.24315 2.44486 7.24315C6.08123 7.24542 9.71986 7.24769 13.3585 7.24315C14.463 7.24088 14.2994 7.39315 14.3449 6.24542C14.3608 5.82951 14.2221 5.69769 13.8062 5.69997C11.8858 5.71815 9.96759 5.70906 8.04714 5.70906ZM20.9176 5.91133C20.9176 7.01133 20.9244 8.11133 20.9108 9.21133C20.9085 9.53179 21.0176 9.6636 21.3449 9.65451C21.929 9.63633 22.513 9.66133 23.0949 9.64542C23.7176 9.62724 24.0426 9.32951 24.0471 8.72269C24.063 6.6886 24.063 4.65451 24.0471 2.62042C24.0426 2.03179 23.7267 1.73633 23.1403 1.70451C22.7585 1.68633 22.3744 1.69542 21.9903 1.69997C21.2267 1.71133 20.9244 2.00451 20.9176 2.76133C20.9108 3.81133 20.9176 4.86133 20.9176 5.91133ZM27.2971 43.4022C23.8062 43.4022 20.3153 43.4022 16.8267 43.4045C16.6926 43.4045 16.5585 43.4068 16.4244 43.4068C16.2267 43.4045 16.113 43.4863 16.1062 43.7C16.0767 44.8454 16.4494 45.9522 17.7449 46.3863C18.1403 46.5182 18.5608 46.5454 18.9812 46.5454C23.5744 46.5409 28.1676 46.5431 32.7608 46.5431C33.7949 46.5431 34.8312 46.5545 35.8653 46.5386C37.4562 46.5136 38.4017 45.6068 38.488 44.0477C38.5221 43.4318 38.4994 43.4045 37.8676 43.4045C34.3449 43.4022 30.8199 43.4022 27.2971 43.4022ZM27.3471 32.175C25.2903 32.175 23.2358 32.1659 21.1812 32.1795C19.638 32.1863 18.6835 32.9363 18.5608 34.4272C18.4199 36.1045 18.4221 37.8022 18.5608 39.4818C18.679 40.9204 19.5858 41.7091 21.0358 41.7181C25.2108 41.7454 29.388 41.7454 33.563 41.7181C35.0153 41.7091 35.9153 40.9227 36.0335 39.4772C36.1744 37.8 36.1244 36.1068 36.0471 34.4227C36.013 33.6886 35.688 33.0772 35.0721 32.6386C34.5585 32.2727 33.9676 32.1795 33.3608 32.1772C31.3562 32.1704 29.3517 32.175 27.3471 32.175ZM6.41077 31.5159V22.0931C6.41077 21.0659 6.60396 20.8795 7.64941 20.8795C9.48577 20.8772 11.3244 20.8659 13.163 20.8863C13.5903 20.8909 13.7449 20.7772 13.7471 20.3272C13.7562 19.2431 13.8153 18.1591 13.8653 17.075C13.9835 14.5091 14.1062 11.9409 14.2312 9.37497C14.2471 9.07042 14.1721 8.91133 13.8221 8.9136C9.97896 8.92042 6.13577 8.92042 2.29259 8.9136C1.96305 8.91133 1.82896 9.0386 1.86987 9.35679C1.97896 10.2045 1.94259 11.0591 1.97668 11.9091C2.10168 14.9432 2.23805 17.9772 2.36759 21.0136C2.44032 22.6977 2.50395 24.3818 2.57895 26.0659C2.73805 29.65 2.90168 33.2341 3.06305 36.8181C3.13123 38.3181 3.20396 39.8204 3.25623 41.3204C3.26759 41.6636 3.42441 41.7386 3.72668 41.7341C4.42895 41.7227 5.13123 41.7022 5.83123 41.7409C6.30396 41.7659 6.42214 41.5931 6.41986 41.1409C6.40396 37.9318 6.41077 34.725 6.41077 31.5159ZM8.0835 34.5295C8.0835 38.3545 8.08805 42.1795 8.07668 46.0022C8.07441 46.4113 8.19259 46.5727 8.61532 46.55C9.16305 46.5204 9.71759 46.5431 10.2676 46.5431C11.129 46.5431 11.129 46.5431 11.229 45.6772C11.279 45.2409 11.5926 44.9522 12.0335 44.9431C12.4971 44.9318 12.8403 45.2204 12.888 45.675C12.904 45.825 12.904 45.975 12.8949 46.125C12.8744 46.4204 12.988 46.5545 13.2971 46.5454C13.7812 46.5318 14.2653 46.5341 14.7494 46.5454C15.0494 46.5522 15.1085 46.4613 14.954 46.1977C14.6926 45.7477 14.4835 45.2636 14.4517 44.7431C14.4108 44.0591 14.429 43.3727 14.4335 42.6886C14.438 42.0227 14.7153 41.7409 15.3721 41.7318C15.9562 41.725 16.5426 41.7227 17.1267 41.7341C17.438 41.7409 17.5267 41.6636 17.3517 41.3681C16.9403 40.6727 16.8153 39.9159 16.829 39.1091C16.8562 37.5568 16.8335 36.0022 16.838 34.45C16.8471 32.2795 18.6244 30.5091 20.8017 30.5045C23.2744 30.4977 25.7449 30.5022 28.2176 30.5022C28.8653 30.5022 28.8676 30.5 28.8676 29.8318V23.2181C28.8676 22.5522 28.8653 22.5522 28.2153 22.5522C23.338 22.55 18.4608 22.55 13.5835 22.5522C12.9153 22.5522 12.9153 22.5522 12.8949 23.2318C12.8767 23.8636 12.4903 24.225 11.9176 24.1454C11.479 24.0841 11.2358 23.7545 11.2244 23.2C11.2108 22.5522 11.2108 22.5522 10.554 22.5522C9.95168 22.55 9.35168 22.55 8.74941 22.5522C8.08577 22.5522 8.0835 22.5522 8.0835 23.2068V34.5295ZM46.5108 31.3909C46.5108 27.2136 46.5176 23.0386 46.5085 18.8613C46.5062 17.1545 45.5699 16.1522 43.9176 16.1432C40.3244 16.1227 36.7335 16.1227 33.1426 16.1432C31.5244 16.15 30.554 17.1318 30.5471 18.7545C30.529 22.5136 30.5449 26.2727 30.5335 30.0295C30.5335 30.4159 30.6812 30.5159 31.038 30.5091C31.9744 30.4909 32.9085 30.4977 33.8449 30.5045C35.9562 30.5159 37.7449 32.2954 37.7562 34.4022C37.763 35.9568 37.7403 37.5091 37.7653 39.0636C37.779 39.8841 37.6653 40.6613 37.2403 41.3727C37.0562 41.6818 37.1767 41.7386 37.4744 41.7341C38.0926 41.725 38.7108 41.7272 39.329 41.7341C39.7949 41.7409 40.138 41.9863 40.1426 42.4454C40.1562 43.7182 40.3721 45.0318 39.638 46.2068C39.4653 46.4841 39.579 46.5454 39.854 46.5454C41.2403 46.5386 42.6267 46.5636 44.013 46.5318C44.9926 46.5091 45.7994 46.1204 46.2471 45.1841C46.4676 44.725 46.5108 44.225 46.5108 43.7204C46.513 39.6091 46.5108 35.5 46.5108 31.3909ZM23.538 48.2159H2.88805C1.7585 48.2159 1.58805 48.0545 1.60168 46.9022C1.62668 44.7318 1.59714 42.5613 1.49259 40.3932C1.34032 37.225 1.21532 34.0568 1.08578 30.8886C0.990321 28.5704 0.878954 26.2545 0.79259 23.9363C0.674408 20.7681 0.542591 17.6 0.388046 14.4341C0.27441 12.0818 0.174409 9.73178 0.0812272 7.38178C0.049409 6.57951 -0.00513358 5.78179 -0.00286085 4.97951C0.0016846 4.3227 0.285776 4.0386 0.951685 4.0386C5.68123 4.03633 10.4085 4.03633 15.1358 4.0386C15.8267 4.0386 16.113 4.32269 16.0994 5.02042C16.0585 7.32269 15.9449 9.62269 15.8153 11.9227C15.7676 12.7386 15.7699 13.5568 15.7221 14.375C15.6085 16.3386 15.5721 18.3091 15.4858 20.2772C15.4653 20.7227 15.5744 20.9091 16.0608 20.8886C16.929 20.8522 17.7994 20.8522 18.6676 20.8886C19.1449 20.9091 19.254 20.7341 19.2517 20.2841C19.2403 14.4204 19.279 8.55678 19.2199 2.69315C19.204 1.15451 20.4017 -0.0613977 21.8994 0.00451137C23.8994 0.0931477 25.9062 0.0249664 27.913 0.0272392C28.6699 0.0295119 28.9335 0.293149 28.9358 1.05224C28.938 4.14315 28.938 7.23406 28.9335 10.325C28.9335 11.05 28.6608 11.3182 27.9312 11.3204C26.8471 11.325 25.7608 11.3363 24.6744 11.3159C24.279 11.3091 24.113 11.4068 24.1153 11.8431C24.1312 14.6818 24.129 17.5227 24.1176 20.3636C24.1153 20.75 24.2244 20.8931 24.629 20.8863C25.8812 20.8636 27.1358 20.8681 28.388 20.8841C28.7653 20.8909 28.8858 20.7545 28.8744 20.3886C28.8517 19.7363 28.8653 19.0863 28.8676 18.4341C28.879 16.2295 30.6449 14.4727 32.8608 14.4636C32.9608 14.4613 33.063 14.45 33.1608 14.4636C33.5971 14.525 33.7176 14.3068 33.6835 13.9113C33.6426 13.4545 33.7108 13.0113 33.9176 12.5954C34.1494 12.1341 34.488 11.7704 34.9471 11.5318C35.204 11.3977 35.2949 11.2181 35.288 10.9318C35.2721 10.2818 35.2949 9.62951 35.2812 8.97724C35.2721 8.5636 35.4244 8.24997 35.8062 8.09769C36.0403 8.00224 36.0903 7.85679 36.088 7.63633C36.0812 6.86815 36.0744 6.09997 36.0903 5.32951C36.0971 4.99315 35.954 4.89088 35.6403 4.90224C35.2721 4.91815 34.904 4.91588 34.538 4.90224C33.9971 4.88633 33.6971 4.59769 33.6858 4.0636C33.6699 3.44542 33.6653 2.82724 33.688 2.20906C33.729 1.09997 34.754 0.0454203 35.8653 0.0363294C38.704 0.0136021 41.5449 0.0136021 44.3858 0.0363294C45.6176 0.047693 46.5858 1.17497 46.579 2.49997C46.5744 3.77951 45.588 4.86815 44.3699 4.89997C43.3994 4.92269 42.4312 4.91815 41.463 4.89997C41.104 4.89542 40.9471 4.99769 40.9608 5.38178C40.9835 6.13178 40.9699 6.88406 40.9653 7.63633C40.963 7.85679 41.0108 8.00224 41.2471 8.09769C41.6267 8.24997 41.7812 8.5636 41.7721 8.97951C41.7585 9.62951 41.779 10.2818 41.763 10.9341C41.7562 11.2182 41.8562 11.3909 42.1062 11.5341C42.9812 12.0341 43.3971 12.8 43.3744 13.8113C43.363 14.4591 43.379 14.5 44.0426 14.4545C45.729 14.3409 47.6608 15.5591 48.1108 17.6409C48.163 17.8818 48.1812 18.1363 48.1812 18.3841C48.1835 27.0227 48.1858 35.6591 48.1812 44.2977C48.1812 46.4318 46.3858 48.2113 44.238 48.2136C37.338 48.2182 30.438 48.2159 23.538 48.2159Z" fill="white"/>
<path d="M38.5153 20.1524C37.488 20.2138 36.4585 20.3797 35.5585 21.0001C34.2676 21.891 34.2721 23.141 35.5653 24.0342C37.138 25.1206 39.9221 25.1183 41.4971 24.0297C42.7835 23.1365 42.7789 21.8819 41.4857 20.9933C40.5994 20.3842 39.5857 20.2206 38.5153 20.1524ZM38.5767 26.566C36.9676 26.5751 35.5335 26.2115 34.2994 25.2479C32.3926 23.7592 32.3767 21.3092 34.2607 19.8069C35.3267 18.9569 36.5676 18.5547 37.9153 18.4774C39.6426 18.3774 41.2767 18.6569 42.6971 19.7319C43.9471 20.6774 44.463 22.0729 44.0562 23.4297C43.8221 24.2069 43.3357 24.816 42.6926 25.2979C41.4539 26.2251 40.0403 26.5819 38.5767 26.566Z" fill="white"/>
<path d="M11.2295 27.325C11.2295 27.025 11.2114 26.7227 11.2341 26.425C11.2682 25.9863 11.5977 25.7022 12.0364 25.6909C12.5 25.6818 12.8636 25.9704 12.8841 26.4272C12.9114 27.0272 12.9114 27.6295 12.8841 28.2295C12.8636 28.6841 12.4955 28.9727 12.0341 28.9613C11.5955 28.95 11.2682 28.6636 11.2341 28.225C11.2114 27.9272 11.2295 27.625 11.2295 27.325Z" fill="white"/>
<path d="M12.8955 32.1772C12.8955 32.4272 12.9045 32.6772 12.8932 32.9272C12.8727 33.4635 12.55 33.7817 12.0477 33.7749C11.5705 33.7704 11.2455 33.4567 11.2295 32.9544C11.2159 32.4044 11.2136 31.8522 11.2318 31.3022C11.25 30.8044 11.5886 30.4999 12.0727 30.5044C12.5523 30.5113 12.8705 30.8226 12.8932 31.3272C12.9068 31.609 12.8955 31.8931 12.8955 32.1772Z" fill="white"/>
<path d="M12.8924 36.9614C12.8924 37.2455 12.906 37.5296 12.8878 37.8114C12.8583 38.2819 12.5355 38.5819 12.0765 38.5887C11.5924 38.5955 11.2469 38.2887 11.231 37.7955C11.2128 37.2273 11.2105 36.6591 11.2333 36.0932C11.2492 35.6228 11.5833 35.325 12.0424 35.3182C12.5265 35.3114 12.8628 35.616 12.8901 36.1114C12.906 36.3932 12.8924 36.6773 12.8924 36.9614Z" fill="white"/>
<path d="M11.2271 41.7387C11.2271 41.4728 11.2157 41.2046 11.2294 40.9387C11.2544 40.4365 11.5771 40.1296 12.0612 40.1296C12.543 40.1296 12.8748 40.4365 12.8907 40.9387C12.9089 41.4887 12.9089 42.041 12.8907 42.591C12.8748 43.091 12.5407 43.4001 12.0589 43.4001C11.5794 43.4001 11.2544 43.091 11.2294 42.5887C11.2157 42.3069 11.2271 42.0228 11.2271 41.7387Z" fill="white"/>
</g>
<defs>
<clipPath id="clip0_587_13631">
<rect width="50" height="50" fill="white"/>
</clipPath>
</defs>
</svg>
