<svg width="41" height="51" viewBox="0 0 41 51" fill="none" xmlns="http://www.w3.org/2000/svg">
<g clip-path="url(#clip0_587_13686)">
<path d="M20.789 37.9835C20.4092 37.9792 20.0725 38.3009 20.0531 38.6879C20.0359 39.09 20.3747 39.4487 20.7782 39.4531C21.1688 39.4596 21.4924 39.1487 21.5075 38.7531C21.5227 38.34 21.1947 37.9879 20.789 37.9835ZM6.6677 32.4705C6.67202 33.1031 7.17913 33.6074 7.8006 33.5987C8.40265 33.59 8.96371 33.027 8.9486 32.4487C8.92918 31.8509 8.3746 31.3096 7.78118 31.314C7.15971 31.3183 6.66339 31.8335 6.6677 32.4705ZM6.76265 29.5009C7.39923 29.4487 8.08976 29.1553 8.63786 28.5748C9.04786 28.14 9.05218 27.74 8.64434 27.314C8.10702 26.7487 7.44023 26.427 6.66555 26.3814C5.77434 26.3292 5.06007 27.0248 5.05144 27.9161C5.04065 28.84 5.69234 29.5031 6.76265 29.5009ZM5.92755 24.5727C6.57276 24.5292 7.27623 24.2314 7.83513 23.6314C8.23434 23.2009 8.23002 22.7922 7.8157 22.3705C7.26113 21.8031 6.57923 21.4727 5.78081 21.4509C4.88744 21.4248 4.23144 22.0814 4.21634 22.9748C4.19907 23.9053 4.83781 24.5661 5.92755 24.5727ZM3.3726 19.6444C4.17965 19.6422 5.57797 19.0966 6.1757 18.5487C6.56844 18.1879 6.59002 17.964 6.17786 17.6292C5.36434 16.9727 4.42565 16.5792 3.38339 16.5248C2.44686 16.477 1.78223 17.1379 1.76928 18.0531C1.75634 19.0053 2.39939 19.6444 3.3726 19.6444ZM28.8638 10.7053C28.9091 10.2879 28.8703 9.90744 28.4258 9.71614C27.9597 9.51396 27.6964 9.82701 27.4288 10.1183C27.1504 10.4205 26.9325 10.7683 26.7189 11.1183C26.5786 11.3487 26.5419 11.5814 26.6218 11.8509C27.1871 13.7661 27.7439 15.6835 28.3028 17.6009C28.3675 17.8227 28.443 18.0531 28.7387 17.9857C29.071 17.9096 28.9458 17.6422 28.9178 17.44C28.7689 16.34 28.6631 15.2379 28.648 14.127C28.6308 12.9792 28.7516 11.8422 28.8638 10.7053ZM21.5162 47.6683C22.2952 47.6683 23.0742 47.6466 23.8532 47.59C26.7469 47.377 29.5522 46.7705 32.297 45.8379C32.6595 45.714 32.7653 45.6074 32.4999 45.2466C31.5396 43.9466 30.821 42.5161 30.3506 40.9661C30.2405 40.6096 30.0873 40.5227 29.7248 40.627C28.4365 40.9966 27.1375 41.3335 25.8449 41.6814C23.4194 42.3335 20.9961 42.9835 18.5728 43.64C18.3203 43.7074 18.0096 43.7205 18.1801 44.1596C18.5858 45.2118 18.9634 46.2727 19.341 47.3357C19.4295 47.5835 19.5784 47.6792 19.8352 47.6727C20.3962 47.6618 20.9551 47.6683 21.5162 47.6683ZM25.9679 9.13787C26.0046 9.06179 26.0262 8.97048 26.0823 8.90961C26.9476 7.94222 28.1495 7.6444 29.2177 8.12701C30.2837 8.60961 30.8059 9.6444 30.6247 10.9835C30.2837 13.4814 30.3743 15.9596 30.8901 18.4248C31.0886 19.3661 30.7477 19.7922 29.7982 19.7987C29.2371 19.8031 28.6761 19.8031 28.115 19.8009C27.2907 19.7966 27.0684 19.6422 26.8354 18.8487C25.8384 15.4553 24.8501 12.0596 23.8597 8.66396C23.3072 6.77918 22.757 4.89222 22.2067 3.00527C21.9585 2.15092 21.6845 1.9857 20.8257 2.21613C15.8085 3.56613 10.7936 4.91831 5.77865 6.27048C4.68028 6.56831 3.58191 6.86614 2.4857 7.16614C1.82539 7.34874 1.62902 7.677 1.80381 8.34005C2.3217 10.3074 2.85902 12.2683 3.35749 14.2379C3.46539 14.664 3.7157 14.7531 4.07823 14.8118C5.38376 15.0248 6.54902 15.5422 7.49202 16.5009C8.47818 17.5031 8.51702 18.5944 7.58049 19.6292C7.31076 19.927 7.38844 20.0118 7.70349 20.1487C8.30339 20.4096 8.81481 20.8009 9.22049 21.3248C10.1182 22.4857 10.088 23.7683 9.10828 24.8661C8.89897 25.1009 8.80402 25.2314 9.14497 25.4357C10.6555 26.3335 11.3482 28.4444 9.81823 29.914C9.63697 30.0879 9.67149 30.2248 9.83334 30.3857C11.1907 31.7487 10.8519 34.0987 9.2097 35.0118C8.8817 35.1944 9.01118 35.4422 9.07376 35.677C9.5226 37.3792 9.97791 39.0792 10.4311 40.7792C10.608 41.4379 10.7828 42.0987 10.9598 42.7596C11.1691 43.5335 11.4518 43.7161 12.22 43.514C14.27 42.9705 16.3178 42.4118 18.3678 41.8596C19.054 41.6727 19.7424 41.49 20.5408 41.2748C19.8222 41.0922 19.259 40.8357 18.8533 40.3205C18.4563 39.8183 18.2448 39.24 18.2815 38.6074C18.3462 37.4205 19.1295 36.5313 20.2862 36.2553C21.281 36.0205 22.375 36.4944 22.9167 37.3922C23.5705 38.477 23.413 39.4944 22.3362 40.7814C23.0936 40.5814 23.769 40.4031 24.4423 40.2205C26.4923 39.6683 28.5401 39.1118 30.5901 38.564C30.9332 38.4727 31.1987 38.3227 31.3972 38.0009C31.6799 37.5422 32.1158 37.4335 32.5344 37.6531C32.9509 37.8727 33.0976 38.2966 32.9207 38.7966C32.7912 39.1618 32.5797 39.4879 32.2603 39.6857C31.8805 39.9205 31.9064 40.19 32.0251 40.5487C32.5991 42.2574 33.4709 43.7879 34.6729 45.127C34.8563 45.3313 35.0548 45.5227 35.1152 45.8031C35.2188 46.2879 35.0009 46.6792 34.483 46.89C32.1762 47.827 29.8003 48.5183 27.3511 48.9553C25.1069 49.3553 22.8454 49.5487 20.5624 49.477C19.9711 49.4574 19.3777 49.4118 18.7864 49.3661C18.2966 49.3292 18.0506 49.0118 17.8952 48.5727C17.4421 47.2835 16.9587 46.0031 16.5207 44.7096C16.3869 44.314 16.1948 44.2705 15.8409 44.3705C14.7469 44.6792 13.6507 44.9813 12.548 45.2618C10.9662 45.664 9.73623 44.9574 9.30249 43.3683C8.62707 40.8966 7.97539 38.4183 7.33234 35.9379C7.23092 35.5379 7.04534 35.3096 6.65692 35.14C5.20897 34.5053 4.55944 32.9944 5.06871 31.4835C5.17876 31.1596 5.17228 30.9835 4.85291 30.777C3.27118 29.7661 2.8137 27.8987 3.73728 26.2553C3.91423 25.9379 3.90992 25.7814 3.6186 25.5422C2.53318 24.6487 2.15339 23.1487 2.67344 21.827C2.80291 21.4966 2.79428 21.3879 2.42097 21.277C1.0917 20.8814 0.284652 19.9531 0.0559153 18.5922C-0.157716 17.3053 0.310547 16.2227 1.33339 15.4335C1.70239 15.1487 1.74339 14.8987 1.62902 14.4835C1.11328 12.64 0.6256 10.79 0.1336 8.94005C-0.338979 7.15527 0.364493 5.91396 2.12965 5.4357C8.27318 3.77048 14.4189 2.10961 20.5667 0.448744C22.0708 0.0422226 23.3461 0.729179 23.7992 2.22483C24.4315 4.31831 25.0314 6.42048 25.6507 8.51831C25.7068 8.70744 25.709 8.92483 25.9679 9.13787Z" fill="white"/>
<path d="M35.802 34.54C35.8128 34.127 35.5236 33.79 35.1438 33.7726C34.7576 33.7574 34.4274 34.0661 34.4058 34.4639C34.3843 34.9052 34.6799 35.24 35.0964 35.2465C35.5085 35.253 35.7912 34.9704 35.802 34.54ZM27.6495 34.4987C27.6408 34.0878 27.3301 33.7661 26.9482 33.7748C26.5576 33.7813 26.2533 34.103 26.2512 34.5052C26.249 34.9422 26.5641 35.2617 26.9827 35.2465C27.3905 35.2313 27.6559 34.9313 27.6495 34.4987ZM31.2251 23.0878C29.4082 23.0878 27.5912 23.0965 25.7743 23.0791C25.3448 23.0748 25.1938 23.2161 25.2499 23.6444C25.5261 25.7422 25.7958 27.8422 26.0462 29.9422C26.085 30.2704 26.2425 30.3291 26.5144 30.3291C29.283 30.3248 32.0494 30.3226 34.818 30.3313C35.1546 30.3335 35.2949 30.1965 35.3791 29.8813C35.9401 27.7857 36.5055 25.6922 37.0881 23.603C37.2068 23.1835 37.0989 23.0748 36.6738 23.0791C34.859 23.0965 33.0421 23.0857 31.2251 23.0878ZM27.8264 32.1248C29.1859 32.9487 29.6865 33.9661 29.3628 35.1552C29.0715 36.2313 28.053 37.0226 26.9546 37.027C25.8606 37.0313 24.8399 36.2444 24.5378 35.1617C24.2098 33.977 24.7169 32.9378 26.0095 32.1639C25.9814 32.1509 25.9577 32.127 25.9318 32.127C24.6694 32.1052 24.4989 31.9139 24.3587 30.6617C24.0976 28.3552 23.7976 26.053 23.5085 23.7487C23.3294 22.3096 23.1308 20.8704 22.9668 19.4291C22.9258 19.077 22.7921 18.9574 22.4533 18.9748C22.0648 18.9944 21.6721 18.9922 21.2815 18.9704C20.7464 18.9378 20.4033 18.5857 20.3946 18.0987C20.3882 17.6357 20.6989 17.2378 21.2082 17.2117C22.0541 17.1704 22.9064 17.1748 23.7523 17.2139C24.2055 17.2357 24.4882 17.5444 24.5529 18.0096C24.6802 18.94 24.8377 19.8683 24.9089 20.803C24.9456 21.2878 25.1916 21.2944 25.5434 21.2944C29.5873 21.2878 33.629 21.29 37.6707 21.29C39.1748 21.29 39.4273 21.6183 39.0345 23.0835C38.3073 25.7878 37.5715 28.49 36.8507 31.1965C36.7256 31.6617 36.5076 32.0139 35.9466 32.1378C36.581 32.4357 37.06 32.8248 37.347 33.4117C37.6297 33.9878 37.6686 34.5965 37.4938 35.2074C37.196 36.2683 36.1796 37.027 35.1028 37.027C34.0045 37.027 32.9881 36.2378 32.6903 35.1552C32.3666 33.9748 32.8565 32.9704 34.1598 32.1574C34.1318 32.1465 34.1059 32.1248 34.0778 32.1248H27.8264Z" fill="white"/>
<path d="M17.1616 28.0162C15.8885 28.0162 14.6153 28.0205 13.3421 28.0162C12.6451 28.0118 12.2567 27.6988 12.2416 27.1466C12.2265 26.5836 12.6387 26.227 13.3486 26.2249C15.8949 26.2183 18.4412 26.2183 20.9876 26.2249C21.7579 26.227 22.1938 26.6792 22.0687 27.3053C21.9823 27.7466 21.6371 28.0096 21.0825 28.014C19.7748 28.0227 18.4693 28.0162 17.1616 28.0162Z" fill="white"/>
<path d="M19.5828 31.3009C18.8361 31.3009 18.0895 31.3074 17.3429 31.2987C16.689 31.29 16.32 30.9661 16.3136 30.4182C16.3071 29.8682 16.6696 29.5182 17.3235 29.5117C18.8491 29.4987 20.3769 29.4987 21.9047 29.5139C22.5564 29.5204 22.9059 29.8639 22.9016 30.4248C22.8973 30.9748 22.5348 31.29 21.8723 31.2987C21.1106 31.3074 20.3467 31.3009 19.5828 31.3009Z" fill="white"/>
<path d="M17.9491 24.7292C17.2024 24.7292 16.4558 24.7379 15.7092 24.727C15.0704 24.7184 14.6863 24.3705 14.6885 23.8314C14.6885 23.3205 15.0661 22.9488 15.6703 22.9444C17.2132 22.927 18.7583 22.927 20.3012 22.9444C20.9075 22.951 21.2722 23.3227 21.2679 23.8423C21.2614 24.3749 20.9011 24.714 20.2904 24.7249C19.5114 24.7401 18.7302 24.7292 17.9491 24.7292Z" fill="white"/>
</g>
<defs>
<clipPath id="clip0_587_13686">
<rect width="41" height="50" fill="white" transform="translate(0 0.333496)"/>
</clipPath>
</defs>
</svg>
