<svg width="50" height="50" viewBox="0 0 50 50" fill="none" xmlns="http://www.w3.org/2000/svg">
<g clip-path="url(#clip0_587_13654)">
<path d="M28.4499 21.4152C28.8151 21.6196 29.1021 21.7848 29.3912 21.9435C33.139 23.9761 36.8869 26.0109 40.6412 28.0326C41.0412 28.2478 41.2216 28.5326 41.2108 28.9848C41.1934 29.8304 41.2042 30.6783 41.2086 31.5239C41.2108 32.0152 41.239 32.0326 41.6847 31.7957C41.9803 31.637 42.2673 31.463 42.5695 31.3152C42.7999 31.2022 42.8847 31.0326 42.8825 30.7804C42.876 29.8217 42.876 28.863 42.8825 27.9065C42.8847 27.6522 42.7934 27.4935 42.5695 27.3696C38.5064 25.1478 34.4477 22.9174 30.3869 20.6913C30.2499 20.6152 30.1151 20.5152 29.9412 20.6087C29.4695 20.8652 28.9977 21.1196 28.4499 21.4152ZM31.9108 19.5348C32.0151 19.6283 32.0477 19.6674 32.0869 19.6913C35.8782 21.7761 39.6716 23.8587 43.4608 25.9478C43.7042 26.0826 43.9108 26.0522 44.1347 25.9261C44.876 25.5152 45.6173 25.1065 46.3629 24.7087C46.6651 24.5457 46.7151 24.4304 46.3716 24.2457C42.6499 22.2304 38.9325 20.2087 35.2151 18.1891C35.0456 18.0957 34.8716 17.9957 34.6738 18.0978C33.7695 18.5652 32.8673 19.037 31.9108 19.5348ZM23.0347 24.3022C23.1456 24.3891 23.1803 24.4239 23.2195 24.4478C26.9977 26.5848 30.7782 28.7196 34.5542 30.8609C34.7782 30.9891 34.9564 30.9739 35.1738 30.85C36.2021 30.2696 37.2412 29.7043 38.2716 29.1283C38.7064 28.887 38.7086 28.8478 38.2629 28.6022C36.8347 27.8174 35.4064 27.0391 33.976 26.2609C31.7064 25.0217 29.4369 23.7826 27.1673 22.5457C26.9716 22.4391 26.7825 22.3 26.5412 22.4304C25.389 23.0457 24.2369 23.6609 23.0347 24.3022ZM47.5738 31.5239C47.5738 29.8152 47.5673 28.1065 47.5803 26.3957C47.5825 26.0304 47.5086 25.9326 47.1586 26.1304C46.4369 26.5391 45.7086 26.9391 44.9651 27.3087C44.626 27.4783 44.5173 27.7022 44.5238 28.0652C44.539 29.1348 44.5216 30.2043 44.5303 31.2761C44.5347 31.8609 44.3064 32.2609 43.7629 32.5348C42.8369 33.0022 41.9369 33.5217 41.0282 34.0196C40.2303 34.4565 39.6303 34.1152 39.6173 33.2043C39.6064 32.3739 39.6042 31.5413 39.6195 30.7109C39.6282 30.3435 39.5499 30.2522 39.1999 30.45C38.1847 31.0217 37.1651 31.5891 36.1282 32.1239C35.7651 32.3109 35.6325 32.5348 35.6347 32.9413C35.6499 36.1848 35.6434 39.4261 35.6434 42.6696C35.6434 43.2609 35.6564 43.2696 36.1825 42.9913C39.8325 41.0783 43.4782 39.1587 47.1303 37.2522C47.4586 37.0826 47.5869 36.8804 47.5825 36.5087C47.5629 34.8478 47.5738 33.1848 47.5738 31.5239ZM33.9586 37.6978C33.9586 36.0522 33.9521 34.4087 33.9651 32.763C33.9673 32.4348 33.8542 32.2391 33.5673 32.0783C29.9086 30.0196 26.2542 27.9522 22.5999 25.887C22.126 25.6217 22.1195 25.6261 22.1195 26.1674C22.1173 29.1696 22.1238 32.1717 22.1129 35.1717C22.1108 35.5348 22.226 35.7543 22.5347 35.9478C26.1956 38.2522 29.8499 40.5696 33.5064 42.8804C33.6216 42.9543 33.7369 43.1109 33.8803 43.0304C34.0238 42.95 33.9564 42.7674 33.9564 42.6304C33.9608 40.987 33.9586 39.3413 33.9586 37.6978ZM49.1325 37.7804C48.9521 38.037 48.6977 38.1957 48.426 38.3391C44.126 40.6304 39.8216 42.9174 35.5303 45.2239C35.0129 45.5022 34.6129 45.4717 34.1195 45.1587C29.8303 42.4348 25.5303 39.7261 21.2195 37.037C20.7499 36.7435 20.5586 36.3891 20.5586 35.8674C20.5629 32.1261 20.5608 28.387 20.5608 24.6478C20.5608 24.087 20.7825 23.7022 21.3042 23.4239C25.6064 21.1348 29.8999 18.8326 34.1847 16.5109C34.6369 16.2674 34.9934 16.2761 35.4303 16.5152C39.8173 18.9152 44.2129 21.3 48.6064 23.6891C48.8238 23.8065 48.9977 23.9587 49.1325 24.1652V37.7804Z" fill="white"/>
<path d="M18.2628 11.2978H25.6867C26.2954 11.2978 26.3454 11.2283 26.2389 10.6283C25.8454 8.42826 24.6215 6.88478 22.5715 6.00435C22.1193 5.81087 21.9019 5.4913 21.8889 5.01087C21.8824 4.72391 21.8867 4.43913 21.8084 4.15652C21.3345 2.42609 19.6063 1.32826 17.7324 1.57392C16.0411 1.79565 14.6628 3.16739 14.6454 4.72391C14.6367 5.42826 14.365 5.81522 13.7367 6.12609C11.9302 7.01739 10.7715 8.45435 10.365 10.4565C10.2106 11.2087 10.2802 11.2978 11.0302 11.2978H18.2628ZM19.5976 0C21.2454 0.48913 22.4889 1.45652 23.2063 3.05C23.3519 3.37174 23.4954 3.7087 23.5084 4.05217C23.528 4.51739 23.7584 4.74348 24.1432 4.95652C25.1911 5.53913 26.0758 6.32174 26.7302 7.33478C26.928 7.64348 27.1519 7.75 27.5106 7.74783C30.1802 7.73478 32.8476 7.7413 35.5171 7.7413C36.4737 7.7413 36.6932 7.96522 36.6932 8.93261C36.6954 10.7065 36.6932 12.4804 36.6954 14.2543C36.6954 14.55 36.6671 14.837 36.4171 15.037C36.1606 15.2435 35.8693 15.2891 35.5628 15.1609C35.2258 15.0196 35.1019 14.7413 35.1019 14.3913C35.1019 12.9065 35.0802 11.4196 35.1106 9.93478C35.1215 9.43478 34.9606 9.31739 34.4845 9.32174C32.3911 9.34783 30.2976 9.34348 28.2041 9.32391C27.7932 9.32174 27.7106 9.43043 27.8237 9.81739C28.0476 10.5978 27.9758 11.4043 27.9606 12.2C27.9541 12.5804 27.7345 12.8283 27.3563 12.8957C27.1367 12.9348 26.9128 12.9478 26.6889 12.95C21.1302 12.9522 15.5693 12.9522 10.0084 12.95C9.8954 12.95 9.78453 12.9543 9.67149 12.9478C8.96497 12.9109 8.69323 12.6478 8.65845 11.9457C8.61932 11.2065 8.68453 10.4739 8.8541 9.75652C8.93019 9.42609 8.84975 9.32826 8.52149 9.33043C6.34758 9.33696 4.17366 9.33913 2.00193 9.33043C1.68019 9.32826 1.56932 9.46087 1.59323 9.76087C1.60193 9.87174 1.59323 9.98478 1.59323 10.0957V46.7696C1.59323 47.537 1.59323 47.537 2.33453 47.537C12.9932 47.537 23.6519 47.537 34.3084 47.5348C34.9171 47.5348 35.0237 47.6413 35.0171 46.8717C35.0106 46.3304 35.3171 46.0087 35.7693 46.0022C36.2411 45.9935 36.5845 46.3413 36.5976 46.8652C36.6106 47.3587 36.6106 47.8565 36.5954 48.35C36.5824 48.8587 36.328 49.1022 35.8193 49.1261C35.7085 49.1326 35.5976 49.1283 35.4845 49.1283H1.1128C0.9541 49.1283 0.791056 49.137 0.634534 49.1174C0.273664 49.0696 0.0584464 48.8565 0.0127943 48.4935C-0.00677096 48.3196 0.00192651 48.1435 0.00192651 47.9674V8.94565C0.00192651 7.92391 0.182361 7.7413 1.1954 7.7413C3.84758 7.7413 6.50192 7.73478 9.1541 7.74783C9.53019 7.75 9.76497 7.63913 9.97366 7.31522C10.6671 6.25217 11.5845 5.42174 12.7106 4.82826C12.9258 4.71739 13.0693 4.57826 13.1084 4.33261C13.4737 2.09783 14.8041 0.719566 16.9237 0.0434793C16.9541 0.0347836 16.9802 0.0152174 17.0084 0H19.5976Z" fill="white"/>
<path d="M9.40832 30.0477C9.40832 29.5543 9.39528 29.0586 9.41267 28.5651C9.42354 28.2369 9.3018 28.1086 8.96919 28.1151C8.12354 28.1282 7.27789 28.1282 6.43223 28.1151C6.09528 28.1086 5.98658 28.2477 5.99093 28.5695C6.0018 29.5434 5.99963 30.5151 5.99093 31.489C5.98876 31.7934 6.10615 31.9173 6.41484 31.9151C7.27571 31.9043 8.13658 31.9021 8.99745 31.9151C9.31267 31.9195 9.41919 31.7847 9.41267 31.4825C9.39745 31.0043 9.40832 30.526 9.40832 30.0477ZM11.0018 30.0456C11.0018 30.9086 11.0083 31.7695 10.9996 32.6303C10.9953 33.2369 10.7888 33.5108 10.1844 33.5216C8.52571 33.5521 6.86484 33.5499 5.20832 33.5195C4.61702 33.5086 4.36267 33.2347 4.35615 32.6412C4.33441 30.8869 4.33441 29.1303 4.35615 27.376C4.36484 26.7825 4.61267 26.5434 5.22137 26.5151C6.86267 26.4369 8.50832 26.4412 10.1496 26.5108C10.8192 26.539 10.9975 26.7803 11.0018 27.4608C11.0061 28.3238 11.0018 29.1847 11.0018 30.0456Z" fill="white"/>
<path d="M5.99643 40.0675C5.99643 40.5631 6.00512 41.0566 5.99208 41.5523C5.98556 41.8566 6.10512 41.9805 6.41599 41.9762C7.27686 41.9631 8.1399 41.9631 9.00077 41.9762C9.31816 41.9805 9.41599 41.8457 9.41382 41.5457C9.40295 40.5718 9.40295 39.5979 9.41382 38.6262C9.41816 38.3001 9.30512 38.1631 8.97034 38.1675C8.12469 38.1805 7.27903 38.1805 6.43338 38.1675C6.09643 38.1631 5.98338 38.311 5.99208 38.6305C6.00729 39.1088 5.99643 39.5892 5.99643 40.0675ZM11.0029 40.0957C11.0029 40.9566 11.0095 41.8197 11.0008 42.6805C10.9964 43.3088 10.7529 43.5588 10.1356 43.5631C8.5073 43.5696 6.88121 43.5697 5.25295 43.561C4.67469 43.5588 4.37034 43.3088 4.36164 42.7305C4.33556 40.9588 4.33556 39.1892 4.35947 37.4175C4.36816 36.8088 4.69425 36.5283 5.31816 36.524C6.89643 36.511 8.47686 36.5088 10.0551 36.5262C10.729 36.5327 10.9986 36.8349 11.0029 37.511C11.0073 38.374 11.0051 39.2349 11.0029 40.0957Z" fill="white"/>
<path d="M9.40886 19.9848C9.40886 19.4739 9.40017 18.963 9.41104 18.4522C9.41756 18.1674 9.30669 18.05 9.01756 18.0543C8.1393 18.0652 7.26104 18.0652 6.38278 18.0543C6.08713 18.0522 5.99147 18.1848 5.99365 18.4609C6.00017 19.45 6.00234 20.4413 5.99365 21.4304C5.99147 21.7326 6.10887 21.8674 6.41539 21.863C7.27843 21.8565 8.1393 21.8543 9.00234 21.863C9.31973 21.8674 9.41973 21.7174 9.41321 21.4217C9.40017 20.9435 9.40886 20.463 9.40886 19.9848ZM11.0023 20.0826C11.0023 20.9435 11.0089 21.8065 11.0002 22.6674C10.9958 23.2761 10.7936 23.5456 10.1828 23.5587C8.52626 23.5891 6.86539 23.5869 5.20887 23.5543C4.61973 23.5435 4.36321 23.263 4.35669 22.6717C4.33495 20.9174 4.33278 19.1609 4.35887 17.4065C4.36756 16.7913 4.65669 16.5587 5.27191 16.5587C6.88278 16.5543 8.49582 16.5543 10.1067 16.5587C10.7632 16.5587 10.9958 16.7913 11.0023 17.45C11.0089 18.3282 11.0023 19.2065 11.0023 20.0826Z" fill="white"/>
<path d="M18.363 20.8304C16.6564 20.8304 14.9477 20.8347 13.2412 20.8282C12.576 20.8238 12.2586 20.526 12.2803 19.9695C12.2934 19.563 12.4934 19.3064 12.9021 19.2477C13.1695 19.2086 13.4412 19.1891 13.7108 19.1891C16.839 19.1847 19.9651 19.1847 23.0934 19.1891C23.3325 19.1891 23.5716 19.213 23.8086 19.2369C24.2216 19.2804 24.4412 19.5456 24.4847 19.9282C24.526 20.2977 24.3282 20.5673 23.9977 20.7325C23.789 20.8369 23.5651 20.8304 23.3412 20.8304H18.363Z" fill="white"/>
<path d="M17.3886 39.2H21.9342C22.1603 39.2 22.3821 39.2044 22.5951 39.2891C22.9321 39.4283 23.0755 39.6957 23.0712 40.0457C23.0647 40.4 22.8951 40.6696 22.5473 40.7609C22.306 40.8261 22.0451 40.8457 21.7908 40.8457C18.8886 40.8522 15.9842 40.85 13.0799 40.8478C12.8755 40.8478 12.6669 40.8217 12.4625 40.8022C12.0103 40.7587 11.7495 40.4891 11.7386 40.0565C11.7277 39.6239 12.0038 39.3478 12.4147 39.2391C12.5821 39.1957 12.7625 39.2022 12.9386 39.2022C14.4212 39.1978 15.906 39.2 17.3886 39.2Z" fill="white"/>
<path d="M16.0653 29.2304C16.9893 29.2304 17.9153 29.2326 18.8393 29.2304C19.0653 29.2282 19.2871 29.2456 19.4936 29.3435C19.8436 29.5087 19.9588 29.8 19.924 30.1696C19.8936 30.5152 19.7088 30.7348 19.3762 30.8087C19.1762 30.8543 18.9675 30.8739 18.761 30.8739C16.9762 30.8782 15.1893 30.8782 13.4045 30.8739C13.1979 30.8739 12.9893 30.8543 12.7871 30.8109C12.3893 30.7282 12.1914 30.4587 12.1914 30.0587C12.1893 29.6652 12.3719 29.3826 12.7719 29.2913C12.9566 29.25 13.1501 29.2348 13.3393 29.2326C14.2479 29.2261 15.1566 29.2304 16.0653 29.2304Z" fill="white"/>
<path d="M19.5824 5.85005C19.5954 5.06962 19.0171 4.45005 18.2671 4.44353C17.5432 4.43701 16.9367 5.04353 16.9324 5.78266C16.9258 6.52831 17.5019 7.13701 18.2324 7.15657C18.9911 7.17614 19.5693 6.61527 19.5824 5.85005ZM18.2584 8.75222C16.6389 8.75222 15.2824 7.40005 15.2911 5.79353C15.2998 4.17614 16.6432 2.84788 18.2715 2.8457C19.9237 2.8457 21.2367 4.15222 21.2345 5.79788C21.2345 7.40657 19.8758 8.7544 18.2584 8.75222Z" fill="white"/>
</g>
<defs>
<clipPath id="clip0_587_13654">
<rect width="50" height="50" fill="white"/>
</clipPath>
</defs>
</svg>
