<svg width="200" height="200" viewBox="0 0 200 200" fill="none" xmlns="http://www.w3.org/2000/svg">
<path d="M99.3514 99.3696V179.762C54.9514 179.762 18.959 143.77 18.959 99.3696H99.3514Z" stroke="#A163FF" stroke-miterlimit="10"/>
<path d="M179.759 99.3695H99.3516V18.9619C143.767 18.9619 179.759 54.9695 179.759 99.3695Z" stroke="#A163FF" stroke-miterlimit="10"/>
<path d="M169.684 100.683C169.684 139.252 138.419 170.517 99.8496 170.517C61.2798 170.517 30.0157 139.252 30.0157 100.683C30.0157 62.1128 61.2798 30.8487 99.8496 30.8487C138.419 30.8487 169.684 62.1128 169.684 100.683Z" fill="#A163FF"/>
<path d="M30.0157 100.683C30.0157 62.1144 61.2814 30.8487 99.8496 30.8487C138.418 30.8487 169.684 62.1144 169.684 100.683C169.684 139.251 138.418 170.517 99.8496 170.517C61.2814 170.517 30.0157 139.251 30.0157 100.683Z" stroke="white" stroke-miterlimit="10"/>
<path d="M87.3015 81.3734H87.2977C87.2977 80.9508 87.2939 80.5244 87.2977 80.1017C87.3015 79.781 87.1581 79.6074 86.826 79.5961C86.1769 79.5659 85.5769 79.3546 85.026 79.0263C84.7279 78.8489 84.5505 78.9395 84.3581 79.1885C83.2411 80.6414 84.1845 82.9395 86.0034 83.1923C87.1732 83.3546 87.2977 83.2489 87.3015 82.0904V81.3734ZM111.237 81.3885C111.237 81.7055 111.264 82.03 111.234 82.3432C111.158 83.064 111.486 83.2753 112.166 83.2338C113.166 83.1697 113.913 82.7281 114.324 81.8376C114.735 80.9432 114.686 80.0225 114.128 79.181C113.641 78.4489 113.415 78.4225 112.698 78.9546C112.551 79.064 112.4 79.2112 112.23 79.2451C111.275 79.4413 111.132 80.0942 111.234 80.9093C111.256 81.0678 111.237 81.23 111.237 81.3885ZM92.0071 107.23V102.272C92.0071 100.807 92.0071 100.807 90.6788 101.328C90.4071 101.438 90.143 101.573 89.86 101.645C89.2147 101.811 88.9958 102.181 89.0071 102.86C89.0411 105.687 88.9958 108.513 89.0298 111.339C89.0562 113.819 88.5543 113.389 91.1958 113.453C91.8411 113.468 92.0222 113.185 92.0147 112.589C91.992 110.804 92.0071 109.019 92.0071 107.23ZM106.445 107.072V111.389C106.445 113.475 106.445 113.449 108.513 113.46C109.222 113.464 109.43 113.222 109.422 112.532C109.392 109.758 109.437 106.985 109.403 104.211C109.366 101.449 109.898 102.192 107.305 101.158C106.46 100.822 106.449 100.838 106.445 101.789C106.441 103.551 106.445 105.309 106.445 107.072ZM99.2034 113.441C100.483 113.441 101.762 113.43 103.041 113.449C103.554 113.456 103.841 113.317 103.834 112.736C103.811 111.347 103.815 109.962 103.834 108.577C103.837 108.075 103.652 107.989 103.2 108.136C100.558 109 97.909 108.985 95.2788 108.098C94.6864 107.898 94.5958 108.132 94.6034 108.645C94.6222 109.977 94.6373 111.309 94.5958 112.641C94.5769 113.294 94.8449 113.468 95.4486 113.453C96.6977 113.422 97.9505 113.445 99.2034 113.441ZM103.826 101.041C103.826 99.898 103.807 98.7508 103.834 97.6036C103.849 97.0187 103.649 96.9319 103.12 97.1055C100.528 97.9508 97.9317 97.9017 95.3467 97.064C94.7807 96.8829 94.592 96.9885 94.5996 97.6036C94.626 99.8413 94.6184 102.079 94.6034 104.317C94.5996 104.807 94.7543 105.109 95.2109 105.313C97.8675 106.475 100.52 106.521 103.196 105.381C103.641 105.189 103.845 104.898 103.834 104.4C103.807 103.279 103.826 102.162 103.826 101.041ZM79.4637 131.377C79.4637 129.43 79.4486 127.483 79.4713 125.536C79.4826 124.939 79.3203 124.66 78.6675 124.675C77.1467 124.705 75.6298 124.705 74.109 124.675C73.475 124.664 73.275 124.917 73.2788 125.528C73.2977 129.287 73.2864 133.045 73.2901 136.804C73.2939 137.709 73.475 137.89 74.3656 137.898C75.8034 137.913 77.2449 137.883 78.6826 137.913C79.2713 137.924 79.4826 137.732 79.475 137.136C79.4449 135.215 79.4637 133.294 79.4637 131.377ZM86.5015 108.392C86.5015 106.819 86.4901 105.245 86.509 103.672C86.5128 103.166 86.4109 102.989 85.8713 103.204C83.2977 104.23 80.6562 105.113 78.143 106.272C75.1732 107.638 73.4977 110.09 73.3279 113.373C73.192 116.007 73.3052 118.653 73.2788 121.294C73.275 121.887 73.4939 122.09 74.0788 122.079C75.5732 122.049 77.0675 122.038 78.5618 122.083C79.2562 122.105 79.4864 121.89 79.4788 121.177C79.46 119.302 80.0034 118.536 81.7581 117.868C83.2109 117.313 84.3317 116.381 85.1354 115.06C85.3845 114.645 85.6298 114.222 86.06 113.977C86.4486 113.758 86.509 113.434 86.5052 113.034C86.4939 111.487 86.5015 109.939 86.5015 108.392ZM125.43 117.185H125.422C125.422 116.011 125.441 114.838 125.418 113.664C125.354 110.309 123.241 107.264 120.124 106.053C117.69 105.105 115.237 104.2 112.807 103.245C112.211 103.011 112.015 103.083 112.022 103.766C112.049 106.619 112.052 109.472 112.022 112.324C112.011 113.128 112.041 113.841 112.818 114.336C113.068 114.494 113.215 114.83 113.381 115.102C114.173 116.407 115.275 117.351 116.709 117.845C118.351 118.407 119.117 119.536 119.056 121.226C119.034 121.913 119.313 122.094 119.951 122.079C121.445 122.045 122.939 122.034 124.43 122.083C125.181 122.109 125.479 121.894 125.445 121.102C125.388 119.796 125.43 118.49 125.43 117.185ZM95.6713 79.6036V79.6074C93.9656 79.6074 92.26 79.6112 90.5505 79.6036C90.1279 79.6036 89.8109 79.6753 89.8184 80.2036C89.86 82.6527 89.5732 85.1319 90.0222 87.547C90.9015 92.2678 94.9581 95.3508 99.7166 95.1244C104.8 94.8829 108.554 90.9432 108.607 86.0904C108.634 84.0904 108.592 82.0904 108.63 80.0904C108.641 79.4564 108.471 79.0414 107.886 78.7432C107.362 78.4753 106.932 78.0451 106.615 77.547C106.32 77.0866 106.105 77.098 105.698 77.4527C104.041 78.8791 102.12 79.6338 99.9128 79.6074C98.4977 79.5885 97.0864 79.6036 95.6713 79.6036ZM97.6713 60.8753C95.4449 60.8753 93.6298 60.8602 91.8184 60.8753C87.6411 60.9206 85.2939 64.1583 85.4222 67.2942C85.5241 69.7432 85.4411 72.1998 85.4449 74.6527C85.4486 76.4753 86.06 77.0829 87.8977 77.0866C91.6298 77.0904 95.3618 77.0564 99.0939 77.098C101.811 77.1281 103.988 76.23 105.396 73.7998C105.717 73.2414 106.207 72.9697 106.868 73.0602C107.675 73.1734 108.079 73.6715 108.2 74.698C108.351 75.9357 109.143 76.8074 110.294 77.0036C111.022 77.1281 111.452 76.8187 111.46 76.0866C111.475 73.3395 111.49 70.5923 111.449 67.8489C111.43 66.6225 110.611 65.864 109.43 65.8036C107.298 65.7017 106.332 64.9583 105.796 62.9017C105.498 61.7508 104.83 61.1244 103.645 60.9847C101.517 60.7395 99.3845 60.9621 97.6713 60.8753ZM99.1996 137.902C104.641 137.902 110.079 137.894 115.52 137.917C116.188 137.917 116.468 137.77 116.464 137.034C116.434 131.807 116.437 126.577 116.46 121.351C116.464 120.709 116.234 120.407 115.641 120.185C113.837 119.513 112.403 118.336 111.373 116.713C111.06 116.219 110.698 116.056 110.135 116.056C102.879 116.072 95.626 116.072 88.3694 116.053C87.7543 116.053 87.3996 116.268 87.0788 116.773C86.0788 118.355 84.6713 119.487 82.9317 120.155C82.2675 120.407 82.0562 120.77 82.06 121.453C82.0788 126.6 82.0864 131.747 82.0524 136.894C82.0486 137.724 82.3279 137.924 83.1166 137.921C88.475 137.89 93.8373 137.902 99.1996 137.902ZM72.9505 140.358C71.3241 139.641 70.6449 138.404 70.6524 136.619C70.6901 129.072 70.6411 121.524 70.6826 113.977C70.7015 110.177 72.3354 107.151 75.3656 104.868C75.9845 104.4 76.6675 104.041 77.392 103.758C81.9354 101.985 86.475 100.192 91.0298 98.4489C91.7769 98.1621 92.0222 97.7696 92.0335 96.981C92.0524 95.9357 91.8147 95.1772 90.9769 94.4225C88.6562 92.3357 87.4675 89.6414 87.3166 86.5131C87.2901 85.9847 87.0939 85.8451 86.592 85.8263C83.5958 85.7093 81.6562 83.9772 81.3354 81.0715C81.1769 79.6225 81.6486 78.3244 82.6449 77.2564C82.9769 76.9017 83.075 76.5847 82.943 76.1206C82.8449 75.7659 82.8335 75.381 82.8335 75.0112C82.826 72.3961 82.8184 69.7847 82.8335 67.1697C82.86 62.1621 86.6524 58.3772 91.6637 58.3621C95.4222 58.3546 99.1845 58.3546 102.943 58.3621C105.901 58.3734 107.479 59.547 108.324 62.3885C108.486 62.947 108.777 63.1885 109.339 63.181C111.822 63.1432 114.132 65.2527 114.011 68.098C113.913 70.3885 114.007 72.6866 113.981 74.981C113.973 75.5772 114.135 75.9395 114.675 76.264C116.72 77.4904 117.615 79.7923 117 82.0602C116.411 84.2451 114.434 85.7885 112.098 85.8187C111.441 85.8263 111.256 86.0451 111.2 86.6829C110.909 89.9923 109.558 92.7923 106.981 94.9206C106.275 95.5017 106.532 96.2112 106.437 96.8942C106.309 97.7923 106.69 98.1961 107.532 98.5093C112.007 100.166 116.46 101.875 120.913 103.596C125.237 105.268 128.018 109.298 128.041 113.932C128.064 118.626 128.045 123.321 128.052 128.015C128.052 128.694 127.928 129.309 127.241 129.615C126.4 129.992 125.539 129.422 125.464 128.385C125.396 127.43 125.418 126.468 125.437 125.509C125.449 124.951 125.286 124.668 124.671 124.675C123.045 124.702 121.415 124.694 119.788 124.679C119.29 124.675 119.064 124.864 119.068 125.385C119.075 129.332 119.075 133.279 119.064 137.226C119.064 137.755 119.29 137.917 119.792 137.909C121.339 137.89 122.886 137.894 124.43 137.906C125.135 137.909 125.452 137.6 125.434 136.887C125.411 136.034 125.411 135.177 125.441 134.324C125.475 133.362 125.969 132.807 126.735 132.8C127.532 132.792 128.026 133.381 128.045 134.377C128.056 135.098 128.011 135.819 128.056 136.539C128.166 138.343 127.437 139.63 125.766 140.358H72.9505Z" fill="white"/>
<path d="M99.3536 127.453C96.98 127.453 94.6064 127.456 92.2328 127.453C90.5649 127.449 89.5573 126.551 89.4554 124.902C89.3951 123.894 89.3951 122.875 89.4554 121.864C89.5573 120.181 90.5724 119.237 92.2554 119.211C93.5875 119.192 94.9234 119.196 96.2554 119.215C97.2592 119.226 97.8215 119.728 97.8064 120.543C97.7913 121.324 97.2441 121.804 96.2819 121.822C95.1347 121.841 93.9875 121.849 92.8403 121.822C92.2705 121.807 92.0441 121.981 92.0328 122.592C91.9875 124.939 91.9686 124.939 94.2856 124.939C98.1007 124.939 101.912 124.924 105.727 124.954C106.448 124.962 106.704 124.773 106.693 124.019C106.663 121.83 106.697 121.83 104.504 121.83C103.784 121.826 103.063 121.845 102.346 121.819C101.448 121.785 100.92 121.29 100.912 120.532C100.904 119.766 101.429 119.241 102.32 119.222C103.784 119.192 105.252 119.173 106.716 119.226C108.101 119.275 109.021 120.113 109.21 121.483C109.376 122.724 109.376 123.988 109.214 125.23C109.033 126.634 108.052 127.441 106.633 127.449C104.206 127.46 101.78 127.453 99.3536 127.453Z" fill="white"/>
</svg>
