<svg width="200" height="201" viewBox="0 0 200 201" fill="none" xmlns="http://www.w3.org/2000/svg">
<path d="M99.3553 99.8699V180.262C54.9553 180.262 18.9629 144.27 18.9629 99.8699H99.3553Z" stroke="#F06BBC" stroke-miterlimit="10"/>
<path d="M179.763 99.87H99.3555V19.4624C143.771 19.4624 179.763 55.47 179.763 99.87Z" stroke="#F06BBC" stroke-miterlimit="10"/>
<path d="M169.688 101.183C169.688 139.753 138.423 171.017 99.8535 171.017C61.2837 171.017 30.0196 139.753 30.0196 101.183C30.0196 62.6136 61.2837 31.3494 99.8535 31.3494C138.423 31.3494 169.688 62.6136 169.688 101.183Z" fill="#F06BBC"/>
<path d="M30.0196 101.183C30.0196 62.6151 61.2853 31.3494 99.8535 31.3494C138.422 31.3494 169.688 62.6151 169.688 101.183C169.688 139.752 138.422 171.017 99.8535 171.017C61.2853 171.017 30.0196 139.752 30.0196 101.183Z" stroke="white" stroke-miterlimit="10"/>
<path d="M136.767 113.085L102.594 136.029C102.296 136.225 102.088 136.534 102.02 136.885C101.718 138.357 100.284 139.308 98.8127 139.006C98.7561 138.995 98.6995 138.983 98.6429 138.968C97.3335 138.598 96.492 137.327 96.6618 135.976C96.8467 134.632 97.9901 133.632 99.3486 133.625C99.5297 133.625 99.7146 133.644 99.8958 133.681C100.25 133.753 100.617 133.681 100.918 133.481L135.22 110.764C135.862 110.338 136.726 110.515 137.152 111.157L137.16 111.168C137.571 111.81 137.398 112.659 136.767 113.085ZM139.443 109.693C138.209 107.787 135.662 107.24 133.756 108.474C133.745 108.481 133.73 108.489 133.718 108.497L99.8467 130.93C98.5599 130.817 97.2731 131.164 96.2165 131.908C93.7637 133.644 93.1863 137.036 94.9184 139.485C95.6505 140.515 96.7184 141.263 97.9373 141.591C98.4052 141.715 98.8844 141.78 99.3712 141.783C100.375 141.78 101.36 141.5 102.213 140.968C103.315 140.285 104.137 139.232 104.533 137.998L138.281 115.342C140.137 114.085 140.65 111.58 139.443 109.693Z" fill="white"/>
<path d="M108.861 137.761C108.14 137.545 107.385 137.957 107.17 138.674C107.053 139.074 106.902 139.462 106.725 139.84C106.404 140.515 106.691 141.327 107.37 141.647C108.046 141.972 108.857 141.681 109.178 141.006C109.416 140.504 109.616 139.983 109.774 139.451C109.989 138.73 109.582 137.976 108.861 137.761Z" fill="white"/>
<path d="M99.3561 128.195C100.107 128.195 100.715 127.587 100.715 126.836C100.715 126.085 100.107 125.478 99.3561 125.478C93.3561 125.485 88.492 130.345 88.4844 136.345C88.4806 137.961 88.8391 139.553 89.5335 141.006C89.8542 141.685 90.6655 141.972 91.341 141.651C92.0203 141.33 92.3108 140.519 91.9901 139.844L91.9863 139.84C91.4693 138.749 91.2014 137.557 91.2052 136.345C91.2089 131.847 94.8542 128.198 99.3561 128.195Z" fill="white"/>
<path d="M113.412 102.149C112.706 101.889 111.925 102.251 111.668 102.957C111.408 103.659 111.77 104.44 112.476 104.7C116.265 106.093 119.808 108.081 122.97 110.591C123.559 111.055 124.412 110.957 124.876 110.368C125.344 109.78 125.246 108.927 124.657 108.463C121.268 105.772 117.472 103.64 113.412 102.149Z" fill="white"/>
<path d="M133.978 121.545C133.306 121.881 133.038 122.7 133.374 123.368C135.834 128.247 137.2 133.606 137.378 139.066H127.857C127.698 135.598 126.906 132.191 125.513 129.01C125.215 128.323 124.412 128.01 123.725 128.308C123.038 128.61 122.725 129.41 123.023 130.096C124.449 133.353 125.178 136.87 125.17 140.425C125.17 141.176 125.781 141.783 126.529 141.783H138.759C139.51 141.783 140.117 141.176 140.117 140.425C140.136 134.077 138.657 127.817 135.8 122.149C135.464 121.477 134.649 121.21 133.978 121.545Z" fill="white"/>
<path d="M70.8541 139.062H61.3334C61.5824 131.644 64.0088 124.462 68.3183 118.413C70.2239 115.727 72.4654 113.3 74.9937 111.187L81.7711 117.964C75.2353 123.074 71.2504 130.776 70.8541 139.062ZM112.262 118.059C112.915 118.432 113.745 118.21 114.118 117.561C114.492 116.912 114.273 116.081 113.624 115.704C104.405 110.387 92.99 110.64 84.0202 116.372L84.0126 116.361L77.1598 109.508C79.9522 107.5 83.0088 105.885 86.2353 104.696C86.9409 104.44 87.3032 103.659 87.0428 102.953C86.7862 102.251 86.0051 101.889 85.2994 102.145C69.2541 108.047 58.5938 123.327 58.5938 140.421C58.5938 141.172 59.2013 141.779 59.9522 141.779H72.1824C72.9296 141.779 73.5409 141.172 73.5409 140.421C73.5409 126.187 85.1221 114.606 99.356 114.606C103.888 114.602 108.337 115.795 112.262 118.059Z" fill="white"/>
<path d="M129.249 84.7114C133.751 84.7114 137.4 88.3604 137.4 92.8623C137.4 97.368 133.751 101.017 129.249 101.017C124.747 101.017 121.098 97.368 121.098 92.8623C121.101 88.3642 124.747 84.7151 129.249 84.7114ZM129.249 103.734C135.252 103.734 140.12 98.8661 140.12 92.8623C140.12 86.8623 135.252 81.9944 129.249 81.9944C123.245 81.9944 118.377 86.8623 118.377 92.8623C118.385 98.8661 123.249 103.726 129.249 103.734Z" fill="white"/>
<path d="M107.507 95.5831C107.507 100.085 103.858 103.734 99.3561 103.734C94.8504 103.734 91.2014 100.085 91.2014 95.5831C91.2014 91.0812 94.8504 87.4322 99.3561 87.4322C103.854 87.436 107.503 91.0812 107.507 95.5831ZM88.4844 95.5831C88.4844 101.587 93.3523 106.455 99.3561 106.455C105.356 106.455 110.224 101.587 110.224 95.5831C110.224 89.5794 105.356 84.7114 99.3561 84.7114C93.3523 84.719 88.4919 89.5831 88.4844 95.5831Z" fill="white"/>
<path d="M69.4635 86.0737C73.9654 86.0737 77.6144 89.7227 77.6144 94.2246C77.6144 98.7303 73.9654 102.379 69.4635 102.379C64.9616 102.379 61.3126 98.7303 61.3126 94.2246C61.3163 89.7265 64.9616 86.0774 69.4635 86.0737ZM69.4635 105.096C75.4673 105.096 80.3352 100.228 80.3352 94.2246C80.3352 88.2246 75.4673 83.3567 69.4635 83.3567C63.4597 83.3567 58.5918 88.2246 58.5918 94.2246C58.5993 100.228 63.4635 105.089 69.4635 105.096Z" fill="white"/>
<path d="M125.171 91.5078H126.529C127.28 91.5078 127.888 90.9002 127.888 90.1493C127.888 89.3983 127.28 88.7908 126.529 88.7908H125.171C124.42 88.7908 123.812 89.3983 123.812 90.1493C123.812 90.9002 124.42 91.5078 125.171 91.5078Z" fill="white"/>
<path d="M131.966 91.5078H133.324C134.075 91.5078 134.683 90.9002 134.683 90.1493C134.683 89.3983 134.075 88.7908 133.324 88.7908H131.966C131.215 88.7908 130.607 89.3983 130.607 90.1493C130.607 90.9002 131.215 91.5078 131.966 91.5078Z" fill="white"/>
<path d="M126.53 92.8662C125.779 92.8662 125.172 93.4738 125.172 94.2247C125.172 96.4775 126.998 98.3002 129.247 98.3002C131.5 98.3002 133.323 96.4775 133.323 94.2247C133.323 93.4738 132.715 92.8662 131.964 92.8662C131.213 92.8662 130.606 93.4738 130.606 94.2247C130.606 94.9756 129.998 95.5832 129.247 95.5832C128.496 95.5832 127.889 94.9756 127.889 94.2247C127.889 93.4738 127.281 92.8662 126.53 92.8662Z" fill="white"/>
<path d="M65.3858 92.8662H66.7443C67.4953 92.8662 68.1028 92.2586 68.1028 91.5077C68.1028 90.7567 67.4953 90.1492 66.7443 90.1492H65.3858C64.6349 90.1492 64.0273 90.7567 64.0273 91.5077C64.0273 92.2586 64.6349 92.8662 65.3858 92.8662Z" fill="white"/>
<path d="M72.1808 92.8662H73.5392C74.2902 92.8662 74.8977 92.2586 74.8977 91.5077C74.8977 90.7567 74.2902 90.1492 73.5392 90.1492H72.1808C71.4298 90.1492 70.8223 90.7567 70.8223 91.5077C70.8223 92.2586 71.4298 92.8662 72.1808 92.8662Z" fill="white"/>
<path d="M65.3867 98.3001C65.3867 99.051 65.9943 99.6586 66.7452 99.6586C67.4962 99.6586 68.1037 99.051 68.1037 98.3001C68.1037 97.5491 68.7112 96.9416 69.4622 96.9416C70.2131 96.9416 70.8207 97.5491 70.8207 98.3001C70.8207 99.051 71.4282 99.6586 72.1792 99.6586C72.9301 99.6586 73.5377 99.051 73.5377 98.3001C73.5377 96.0473 71.715 94.2246 69.4622 94.2246C67.2131 94.2246 65.3867 96.0473 65.3867 98.3001Z" fill="white"/>
<path d="M96.6389 94.2245C97.3898 94.2245 97.9973 93.617 97.9973 92.8661C97.9973 92.1151 97.3898 91.5076 96.6389 91.5076H95.2804C94.5294 91.5076 93.9219 92.1151 93.9219 92.8661C93.9219 93.617 94.5294 94.2245 95.2804 94.2245H96.6389Z" fill="white"/>
<path d="M102.073 94.2245H103.432C104.183 94.2245 104.79 93.617 104.79 92.8661C104.79 92.1151 104.183 91.5076 103.432 91.5076H102.073C101.322 91.5076 100.715 92.1151 100.715 92.8661C100.715 93.617 101.322 94.2245 102.073 94.2245Z" fill="white"/>
<path d="M102.074 96.9419H96.6397C95.8888 96.9419 95.2812 97.5494 95.2812 98.3004C95.2812 99.0513 95.8888 99.6589 96.6397 99.6589H102.074C102.825 99.6589 103.432 99.0513 103.432 98.3004C103.432 97.5494 102.825 96.9419 102.074 96.9419Z" fill="white"/>
<path d="M83.051 64.3304C83.051 63.5794 83.6585 62.9719 84.4095 62.9719H114.304C115.051 62.9719 115.659 63.5794 115.662 64.3304V81.4322L113.904 79.6737C113.651 79.4209 113.304 79.2775 112.945 79.2775H84.4095C83.6585 79.2775 83.051 78.6662 83.051 77.919V64.3304ZM84.4095 81.9945H112.379L116.059 85.6737C116.591 86.2021 117.451 86.2021 117.979 85.6737C118.236 85.4171 118.379 85.0737 118.379 84.7115V64.3304C118.375 62.0813 116.553 60.2549 114.304 60.2549H84.4095C82.1604 60.2549 80.3378 62.0813 80.334 64.3304V77.919C80.3378 80.1681 82.1604 81.9907 84.4095 81.9945Z" fill="white"/>
<path d="M89.8448 76.5604C90.2071 76.5604 90.5505 76.417 90.8071 76.1642L96.6373 70.3302L101.113 74.8019C101.645 75.334 102.505 75.334 103.033 74.8019L107.509 70.3302V72.4849C107.509 73.2359 108.117 73.8434 108.867 73.8434C109.618 73.8434 110.226 73.2359 110.226 72.4849V67.051C110.226 66.3 109.618 65.6887 108.867 65.6887H103.433C102.683 65.6887 102.075 66.3 102.075 67.051C102.075 67.7982 102.683 68.4095 103.433 68.4095H105.588L102.075 71.9227L97.5995 67.4472C97.0675 66.9151 96.2071 66.9151 95.6788 67.4472L88.8826 74.2397C88.3543 74.7717 88.3543 75.6321 88.8826 76.1642C89.1392 76.417 89.4826 76.5604 89.8448 76.5604Z" fill="white"/>
</svg>
